<svg width="40" height="40" viewBox="0 0 40 40" fill="none" xmlns="http://www.w3.org/2000/svg">
<g clip-path="url(#clip0_1567_30433)">
<path d="M36.8167 20.0002V20C36.8167 16.674 35.8304 13.4226 33.9826 10.6572C32.1347 7.89167 29.5083 5.73624 26.4355 4.46343C23.3626 3.19061 19.9814 2.85759 16.7192 3.50646C13.4571 4.15534 10.4607 5.75697 8.10883 8.10882C5.75698 10.4607 4.15534 13.4571 3.50647 16.7192C2.8576 19.9813 3.19062 23.3626 4.46344 26.4355C5.73625 29.5083 7.89168 32.1347 10.6572 33.9825C13.4227 35.8304 16.674 36.8167 20 36.8167H20.0002C24.4587 36.8118 28.7332 35.0385 31.8858 31.8858C35.0385 28.7332 36.8118 24.4587 36.8167 20.0002ZM8.97194 3.49533C12.2362 1.3142 16.074 0.150016 19.9999 0.15C25.2627 0.155714 30.3084 2.24889 34.0297 5.97026C37.7511 9.69166 39.8443 14.7373 39.85 20.0002C39.85 23.9261 38.6858 27.7638 36.5047 31.0281C34.3235 34.2924 31.2234 36.8366 27.5963 38.339C23.9692 39.8414 19.978 40.2345 16.1275 39.4686C12.2769 38.7027 8.74001 36.8121 5.96394 34.0361C3.18787 31.26 1.29734 27.7231 0.531421 23.8725C-0.234495 20.022 0.158601 16.0308 1.661 12.4037C3.1634 8.77662 5.70762 5.67647 8.97194 3.49533Z" fill="#8B8B8B" stroke="white" stroke-width="0.3"/>
<path d="M18.9282 8.92772C19.2126 8.64329 19.5984 8.4835 20.0007 8.4835C20.4029 8.4835 20.7887 8.64329 21.0731 8.92772C21.3575 9.21215 21.5173 9.59792 21.5173 10.0002V23.3335C21.5173 23.7357 21.3575 24.1215 21.0731 24.4059C20.7887 24.6904 20.4029 24.8502 20.0007 24.8502C19.5984 24.8502 19.2126 24.6904 18.9282 24.4059C18.6438 24.1215 18.484 23.7357 18.484 23.3335V10.0002C18.484 9.59792 18.6438 9.21215 18.9282 8.92772Z" fill="#8B8B8B" stroke="white" stroke-width="0.3"/>
<path d="M20.0007 28.4835C20.8383 28.4835 21.5173 29.1625 21.5173 30.0002C21.5173 30.8378 20.8383 31.5168 20.0007 31.5168C19.163 31.5168 18.484 30.8378 18.484 30.0002C18.484 29.1625 19.163 28.4835 20.0007 28.4835Z" fill="#8B8B8B" stroke="white" stroke-width="0.3"/>
</g>
<defs>
<clipPath id="clip0_1567_30433">
<rect width="40" height="40" fill="white"/>
</clipPath>
</defs>
</svg>
