<svg width="32" height="32" viewBox="0 0 32 32" fill="none" xmlns="http://www.w3.org/2000/svg">
<g clip-path="url(#clip0_1973_31348)">
<path d="M24 18C24 19.9778 23.4135 21.9112 22.3147 23.5557C21.2159 25.2002 19.6541 26.4819 17.8268 27.2388C15.9996 27.9957 13.9889 28.1937 12.0491 27.8078C10.1093 27.422 8.32746 26.4696 6.92894 25.0711C5.53041 23.6725 4.578 21.8907 4.19215 19.9509C3.8063 18.0111 4.00433 16.0004 4.76121 14.1732C5.51808 12.3459 6.79981 10.7841 8.4443 9.6853C10.0888 8.58649 12.0222 8 14 8C14.2652 8 14.5196 8.10535 14.7071 8.29289C14.8946 8.48042 15 8.73478 15 9C15 9.26521 14.8946 9.51957 14.7071 9.7071C14.5196 9.89464 14.2652 10 14 10C12.4178 10 10.871 10.4692 9.55544 11.3482C8.23985 12.2273 7.21447 13.4767 6.60897 14.9385C6.00347 16.4003 5.84504 18.0089 6.15372 19.5607C6.4624 21.1126 7.22433 22.538 8.34315 23.6568C9.46197 24.7757 10.8874 25.5376 12.4393 25.8463C13.9911 26.155 15.5997 25.9965 17.0615 25.391C18.5233 24.7855 19.7727 23.7602 20.6518 22.4446C21.5308 21.129 22 19.5822 22 18C22 17.7348 22.1054 17.4804 22.2929 17.2929C22.4804 17.1054 22.7348 17 23 17C23.2652 17 23.5196 17.1054 23.7071 17.2929C23.8946 17.4804 24 17.7348 24 18Z" fill="#828282"/>
<path d="M19.6202 19.916C19.6203 20.0474 19.5945 20.1775 19.5442 20.299C19.1658 21.2101 18.5685 22.0139 17.8053 22.6391C17.0421 23.2643 16.1365 23.6916 15.1686 23.8833C14.2008 24.0749 13.2007 24.0249 12.2568 23.7378C11.3129 23.4506 10.4544 22.9351 9.75729 22.237C9.06018 21.5388 8.546 20.6795 8.26028 19.7351C7.97456 18.7908 7.92612 17.7906 8.11925 16.8231C8.31237 15.8556 8.7411 14.9506 9.36747 14.1883C9.99384 13.426 10.7985 12.83 11.7102 12.453C11.8321 12.4001 11.9632 12.3721 12.0959 12.3704C12.2287 12.3688 12.3605 12.3936 12.4835 12.4434C12.6066 12.4933 12.7185 12.5671 12.8128 12.6607C12.907 12.7542 12.9817 12.8656 13.0324 12.9883C13.0831 13.111 13.1089 13.2426 13.1082 13.3754C13.1076 13.5081 13.0805 13.6394 13.0285 13.7616C12.9766 13.8838 12.9008 13.9945 12.8056 14.0871C12.7105 14.1797 12.5978 14.2524 12.4742 14.301C11.867 14.5529 11.3312 14.9506 10.9142 15.459C10.4973 15.9673 10.2121 16.5706 10.0839 17.2154C9.95565 17.8603 9.98833 18.5267 10.179 19.1559C10.3698 19.7851 10.7126 20.3576 11.1773 20.8227C11.6419 21.2878 12.2141 21.6312 12.8431 21.8225C13.4721 22.0138 14.1385 22.0472 14.7835 21.9195C15.4284 21.7919 16.032 21.5073 16.5407 21.0909C17.0495 20.6744 17.4477 20.139 17.7002 19.532C17.7888 19.318 17.9488 19.1415 18.153 19.0324C18.3572 18.9233 18.5929 18.8884 18.82 18.9337C19.047 18.979 19.2513 19.1017 19.398 19.2808C19.5446 19.46 19.6246 19.6844 19.6242 19.916L19.6202 19.916Z" fill="#828282"/>
</g>
<path d="M26.3787 5.62181C26.0105 5.25412 25.5114 5.04761 24.991 5.04761C24.4706 5.04761 23.9715 5.25412 23.6032 5.62181L14.7935 14.4315C14.5413 14.6823 14.3412 14.9807 14.205 15.3094C14.0688 15.6381 13.9991 15.9905 14 16.3463V17.4583C14 17.602 14.0571 17.7397 14.1587 17.8413C14.2602 17.9429 14.398 18 14.5417 18H15.6537C16.0095 18.001 16.3619 17.9314 16.6906 17.7953C17.0192 17.6592 17.3176 17.4592 17.5685 17.207L26.3787 8.39677C26.7462 8.02854 26.9526 7.52954 26.9526 7.00929C26.9526 6.48904 26.7462 5.99004 26.3787 5.62181ZM16.8026 16.4411C16.4971 16.7445 16.0843 16.9154 15.6537 16.9166H15.0833V16.3463C15.0828 16.1328 15.1246 15.9213 15.2063 15.7241C15.288 15.5269 15.4081 15.3479 15.5595 15.1974L22.2453 8.5116L23.4911 9.75743L16.8026 16.4411ZM25.6123 7.63085L24.2548 8.98881L23.009 7.74568L24.367 6.38772C24.4488 6.3061 24.5458 6.24139 24.6527 6.19728C24.7595 6.15317 24.8739 6.13054 24.9895 6.13066C25.105 6.13079 25.2195 6.15367 25.3262 6.19801C25.4329 6.24235 25.5298 6.30728 25.6114 6.38908C25.6931 6.47088 25.7578 6.56796 25.8019 6.67477C25.846 6.78158 25.8686 6.89604 25.8685 7.0116C25.8684 7.12716 25.8455 7.24156 25.8012 7.34828C25.7568 7.455 25.6919 7.55193 25.6101 7.63356L25.6123 7.63085Z" fill="#828282" stroke="#828282" stroke-width="0.7"/>
<defs>
<clipPath id="clip0_1973_31348">
<rect width="24" height="24" fill="white" transform="translate(4 28) rotate(-90)"/>
</clipPath>
</defs>
</svg>
