<svg width="25" height="24" viewBox="0 0 25 24" fill="none" xmlns="http://www.w3.org/2000/svg">
<path d="M12.25 16C14.4591 16 16.25 14.2091 16.25 12C16.25 9.79086 14.4591 8 12.25 8C10.0409 8 8.25 9.79086 8.25 12C8.25 14.2091 10.0409 16 12.25 16Z" stroke="#263997" stroke-width="2" stroke-linecap="round" stroke-linejoin="round"/>
<path d="M16.25 8.00036V13.0004C16.25 13.796 16.5661 14.5591 17.1287 15.1217C17.6913 15.6843 18.4544 16.0004 19.25 16.0004C20.0457 16.0004 20.8087 15.6843 21.3713 15.1217C21.9339 14.5591 22.25 13.796 22.25 13.0004V12.0004C22.2499 9.74339 21.4862 7.55283 20.0833 5.78489C18.6803 4.01694 16.7206 2.77558 14.5226 2.26265C12.3247 1.74973 10.0179 1.9954 7.97736 2.95972C5.93677 3.92405 4.28241 5.55031 3.28327 7.57408C2.28413 9.59785 1.99898 11.9001 2.47418 14.1065C2.94938 16.3128 4.15699 18.2936 5.90064 19.7266C7.64429 21.1597 9.82144 21.9607 12.0781 21.9995C14.3347 22.0383 16.5381 21.3126 18.33 19.9404" stroke="#263997" stroke-width="2" stroke-linecap="round" stroke-linejoin="round"/>
</svg>
