<svg width="40" height="40" viewBox="0 0 40 40" fill="none" xmlns="http://www.w3.org/2000/svg">
<rect width="40" height="40" rx="20" fill="white"/>
<path d="M12.5949 22.8718C12.6849 22.8718 12.7749 22.8375 12.8435 22.7689L13.3749 22.2375C13.5121 22.1002 13.5121 21.8776 13.3749 21.7403C13.2376 21.603 13.0149 21.603 12.8777 21.7403L12.3463 22.2717C12.209 22.409 12.209 22.6316 12.3463 22.7689C12.415 22.8375 12.5049 22.8718 12.5949 22.8718Z" fill="#2C2F88" stroke="#2C2F88" stroke-width="0.3"/>
<path d="M27.5322 22.7688C27.6009 22.8374 27.6909 22.8718 27.7808 22.8718C27.8708 22.8718 27.9608 22.8374 28.0294 22.7688C28.1667 22.6315 28.1667 22.4089 28.0294 22.2717L27.498 21.7402C27.3607 21.6029 27.1381 21.6029 27.0009 21.7402C26.8636 21.8775 26.8636 22.1001 27.0009 22.2374L27.5322 22.7688Z" fill="#2C2F88" stroke="#2C2F88" stroke-width="0.3"/>
<path d="M30.9398 19.165C28.9542 18.2428 25.9674 18.1546 25.3643 18.1463L22.5161 16.3338C21.6745 15.7982 20.7024 15.5151 19.7048 15.5151H16.3571C15.4903 15.5151 14.6225 15.72 13.8472 16.1076L12.064 16.9992C11.5267 17.2679 10.9521 17.4418 10.356 17.5164L8.96628 17.6901C8.41541 17.7589 8 18.2295 8 18.7846V21.0285C8 21.6852 8.44105 22.27 9.07255 22.4504L10.7334 22.9249C11.0187 23.8281 11.8643 24.4849 12.8606 24.4849C13.6893 24.4849 14.4133 24.0302 14.7979 23.3576H25.5778C25.9624 24.0302 26.6864 24.4849 27.5151 24.4849C28.7449 24.4849 29.7455 23.4843 29.7455 22.2545C29.7455 21.0247 28.7449 20.0241 27.5151 20.0241C26.2853 20.0241 25.2847 21.0246 25.2847 22.2545C25.2847 22.3911 25.2977 22.5246 25.3213 22.6544H15.0543C15.0779 22.5245 15.0909 22.391 15.0909 22.2545C15.0909 21.0247 14.0904 20.0241 12.8606 20.0241C11.6608 20.0241 10.6798 20.9764 10.6325 22.1648L9.26567 21.7743C8.9345 21.6797 8.70312 21.373 8.70312 21.0285V19.9758H9.10306C9.29722 19.9758 9.45463 19.8184 9.45463 19.6242C9.45463 19.4301 9.29722 19.2727 9.10306 19.2727H8.70312V18.7846C8.70312 18.5833 8.85373 18.4127 9.05347 18.3878L10.4432 18.2141C11.1186 18.1296 11.7696 17.9325 12.3784 17.6281L12.5388 17.548L13.1891 18.1953C13.6103 18.6165 14.1704 18.8486 14.7662 18.8486H15.491C15.6851 18.8486 15.8425 18.6912 15.8425 18.497C15.8425 18.3028 15.6851 18.1454 15.491 18.1454H14.7662C14.7047 18.1454 14.644 18.1414 14.5839 18.1343L14.9723 16.4185C15.4215 16.2867 15.8895 16.2182 16.3571 16.2182H18.1455V18.1454H16.994C16.7999 18.1454 16.6425 18.3028 16.6425 18.4969C16.6425 18.6911 16.7999 18.8485 16.994 18.8485H25.2606C25.2939 18.8485 28.6152 18.8606 30.6437 19.8026C30.7627 19.8579 30.8688 19.9336 30.9594 20.0241H30.5212C30.3271 20.0241 30.1697 20.1815 30.1697 20.3757C30.1697 20.5699 30.3271 20.7273 30.5212 20.7273H31.2905C31.2943 20.7653 31.2969 20.8036 31.2969 20.8424V22.0898C31.2969 22.4381 31.1436 22.6544 30.897 22.6544C30.7028 22.6544 30.5454 22.8118 30.5454 23.006C30.5454 23.2002 30.7028 23.3576 30.897 23.3576C31.2083 23.3576 31.4912 23.2294 31.6936 22.9968C31.8941 22.7663 32 22.4527 32 22.0898V20.8424C32 20.1225 31.5838 19.464 30.9398 19.165ZM27.5151 20.7273C28.3572 20.7273 29.0423 21.4124 29.0423 22.2545C29.0423 23.0967 28.3572 23.7818 27.5151 23.7818C26.673 23.7818 25.9879 23.0967 25.9879 22.2545C25.9879 21.4124 26.673 20.7273 27.5151 20.7273ZM12.8606 20.7273C13.7027 20.7273 14.3878 21.4124 14.3878 22.2545C14.3878 23.0967 13.7027 23.7818 12.8606 23.7818C12.0185 23.7818 11.3334 23.0967 11.3334 22.2545C11.3334 21.4124 12.0185 20.7273 12.8606 20.7273ZM13.9184 17.8891C13.8358 17.8338 13.7581 17.77 13.6862 17.6981L13.2036 17.2155L14.1617 16.7365C14.1682 16.7332 14.1749 16.7302 14.1815 16.7269L13.9184 17.8891ZM18.8486 16.2182H19.7048C20.5684 16.2182 21.41 16.4633 22.1386 16.927L24.0533 18.1454H18.8486V16.2182Z" fill="#2C2F88" stroke="#2C2F88" stroke-width="0.3"/>
<path d="M16.2424 21.1514C16.0483 21.1514 15.8909 21.3088 15.8909 21.503C15.8909 21.6971 16.0483 21.8546 16.2424 21.8546H24.1333C24.3274 21.8546 24.4848 21.6971 24.4848 21.503C24.4848 21.3088 24.3274 21.1514 24.1333 21.1514H16.2424Z" fill="#2C2F88" stroke="#2C2F88" stroke-width="0.3"/>
</svg>
