<svg width="26" height="24" viewBox="0 0 26 24" fill="none" xmlns="http://www.w3.org/2000/svg">
<path d="M2.84536 14.9768L2.70047 15.0156L2.73929 15.1605L4.29221 20.956C4.37115 21.2507 4.56388 21.5018 4.82802 21.6543C5.09216 21.8068 5.40606 21.8482 5.70066 21.7692L19.2236 18.1458C19.5182 18.0668 19.7694 17.8741 19.9219 17.6099C20.0744 17.3458 20.1157 17.0319 20.0368 16.7373L18.4839 10.9417L18.4451 10.7969L18.3002 10.8357L2.84536 14.9768ZM17.8602 9.1936L18.0051 9.15478L17.9662 9.00989L17.7074 8.04396C17.6285 7.74936 17.4357 7.49817 17.1716 7.34567C16.9075 7.19317 16.5936 7.15185 16.299 7.23079L2.77601 10.8543C2.4814 10.9332 2.23022 11.1259 2.07772 11.3901C1.92522 11.6542 1.88389 11.9681 1.96283 12.2627L2.22165 13.2286L2.26048 13.3735L2.40536 13.3347L17.8602 9.1936ZM9.67619 17.2876L6.77841 18.064C6.56066 18.1224 6.32865 18.0918 6.13341 17.9791C5.93818 17.8664 5.79572 17.6807 5.73738 17.463C5.67903 17.2452 5.70958 17.0132 5.82229 16.818C5.93501 16.6228 6.12067 16.4803 6.33842 16.4219L9.2362 15.6455C9.45395 15.5871 9.68596 15.6177 9.88119 15.7304C10.0764 15.8431 10.2189 16.0288 10.2772 16.2465C10.3356 16.4643 10.305 16.6963 10.1923 16.8915C10.0796 17.0868 9.89394 17.2292 9.67619 17.2876ZM2.33601 9.21218L15.859 5.58872C16.5891 5.39308 17.367 5.4955 18.0216 5.87343C18.6762 6.25137 19.1539 6.87386 19.3495 7.60397L21.6789 16.2973C21.8745 17.0274 21.7721 17.8053 21.3942 18.4599C21.0162 19.1145 20.3937 19.5922 19.6636 19.7878L6.14065 23.4113C5.41054 23.6069 4.63262 23.5045 3.97802 23.1266C3.32342 22.7486 2.84576 22.1261 2.65013 21.396L0.32076 12.7027C0.125127 11.9726 0.227543 11.1947 0.605476 10.5401C0.98341 9.88547 1.6059 9.40781 2.33601 9.21218Z" fill="#828282" stroke="white" stroke-width="0.3"/>
<rect x="5" y="1" width="18" height="13" fill="white"/>
<path d="M6 5.85H5.85V6V12C5.85 12.305 5.97116 12.5975 6.18683 12.8132C6.40249 13.0288 6.695 13.15 7 13.15H21C21.305 13.15 21.5975 13.0288 21.8132 12.8132C22.0288 12.5975 22.15 12.305 22.15 12V6V5.85H22H6ZM22 4.15H22.15V4V3C22.15 2.695 22.0288 2.40249 21.8132 2.18683C21.5975 1.97116 21.305 1.85 21 1.85H7C6.695 1.85 6.40249 1.97116 6.18683 2.18683C5.97116 2.40249 5.85 2.695 5.85 3V4V4.15H6H22ZM7 0.15H21C21.7559 0.15 22.4808 0.450267 23.0153 0.984746C23.5497 1.51922 23.85 2.24413 23.85 3V12C23.85 12.7559 23.5497 13.4808 23.0153 14.0153C22.4808 14.5497 21.7559 14.85 21 14.85H7C6.24413 14.85 5.51922 14.5497 4.98475 14.0153C4.45027 13.4808 4.15 12.7559 4.15 12V3C4.15 2.24413 4.45027 1.51922 4.98475 0.984746C5.51922 0.450267 6.24413 0.15 7 0.15Z" fill="#828282" stroke="white" stroke-width="0.3"/>
</svg>
