<svg width="24" height="24" viewBox="0 0 24 24" fill="none" xmlns="http://www.w3.org/2000/svg">
<g clip-path="url(#clip0_731_19937)">
<path d="M23.9999 11.2476C23.8553 8.90758 23.0291 6.66108 21.6231 4.78499C20.2171 2.9089 18.2929 1.48526 16.0876 0.689559C13.8823 -0.106139 11.4924 -0.239103 9.21247 0.307059C6.93253 0.853221 4.86225 2.05463 3.25686 3.76318C1.65147 5.47173 0.581149 7.61273 0.17785 9.92222C-0.225449 12.2317 0.0559044 14.6088 0.987224 16.7603C1.91854 18.9118 3.45912 20.7438 5.41902 22.0303C7.37892 23.3169 9.67246 24.0018 12.0169 24.0006H18.9999C20.3256 23.9992 21.5966 23.472 22.534 22.5346C23.4714 21.5972 23.9986 20.3262 23.9999 19.0006V11.2476ZM21.9999 19.0006C21.9999 19.7962 21.6838 20.5593 21.1212 21.1219C20.5586 21.6845 19.7956 22.0006 18.9999 22.0006H12.0169C10.6058 21.9999 9.21075 21.7019 7.92261 21.1259C6.63446 20.5499 5.48218 19.7088 4.54091 18.6576C3.59508 17.6068 2.88484 16.366 2.4578 15.0184C2.03077 13.6707 1.89681 12.2473 2.06491 10.8436C2.33034 8.62951 3.3251 6.56675 4.89235 4.98049C6.4596 3.39422 8.51021 2.37467 10.7209 2.08256C11.1521 2.02851 11.5863 2.00113 12.0209 2.00056C14.3514 1.99421 16.6097 2.80847 18.3999 4.30056C19.4454 5.16951 20.3036 6.24172 20.9224 7.45219C21.5413 8.66267 21.9078 9.9862 21.9999 11.3426V19.0006Z" fill="#101010"/>
<path d="M7.99976 9H11.9998C12.265 9 12.5193 8.89464 12.7069 8.7071C12.8944 8.51957 12.9998 8.26521 12.9998 8C12.9998 7.73478 12.8944 7.48043 12.7069 7.29289C12.5193 7.10536 12.265 7 11.9998 7H7.99976C7.73454 7 7.48019 7.10536 7.29265 7.29289C7.10511 7.48043 6.99976 7.73478 6.99976 8C6.99976 8.26521 7.10511 8.51957 7.29265 8.7071C7.48019 8.89464 7.73454 9 7.99976 9Z" fill="#101010"/>
<path d="M15.9998 11H7.99976C7.73454 11 7.48019 11.1054 7.29265 11.2929C7.10511 11.4804 6.99976 11.7348 6.99976 12C6.99976 12.2652 7.10511 12.5196 7.29265 12.7071C7.48019 12.8947 7.73454 13 7.99976 13H15.9998C16.265 13 16.5193 12.8947 16.7069 12.7071C16.8944 12.5196 16.9998 12.2652 16.9998 12C16.9998 11.7348 16.8944 11.4804 16.7069 11.2929C16.5193 11.1054 16.265 11 15.9998 11Z" fill="#101010"/>
<path d="M15.9998 15H7.99976C7.73454 15 7.48019 15.1054 7.29265 15.2929C7.10511 15.4804 6.99976 15.7348 6.99976 16C6.99976 16.2652 7.10511 16.5196 7.29265 16.7071C7.48019 16.8947 7.73454 17 7.99976 17H15.9998C16.265 17 16.5193 16.8947 16.7069 16.7071C16.8944 16.5196 16.9998 16.2652 16.9998 16C16.9998 15.7348 16.8944 15.4804 16.7069 15.2929C16.5193 15.1054 16.265 15 15.9998 15Z" fill="#101010"/>
</g>
<defs>
<clipPath id="clip0_731_19937">
<rect width="24" height="24" fill="white"/>
</clipPath>
</defs>
</svg>
