<svg width="80" height="80" viewBox="0 0 80 80" fill="none" xmlns="http://www.w3.org/2000/svg">
<g clip-path="url(#clip0_1973_49964)">
<path d="M80 40C80 40.8841 79.6488 41.7319 79.0237 42.357C78.3986 42.9821 77.5507 43.3333 76.6667 43.3333C75.7826 43.3333 74.9348 42.9821 74.3096 42.357C73.6845 41.7319 73.3333 40.8841 73.3333 40C73.3236 31.1624 69.8086 22.6896 63.5595 16.4405C57.3104 10.1914 48.8376 6.67637 40 6.66667C39.1159 6.66667 38.2681 6.31548 37.643 5.69036C37.0179 5.06523 36.6667 4.21739 36.6667 3.33333C36.6667 2.44928 37.0179 1.60143 37.643 0.976311C38.2681 0.35119 39.1159 0 40 0C50.6051 0.0114703 60.7726 4.22943 68.2716 11.7284C75.7706 19.2274 79.9885 29.3949 80 40ZM53.3333 43.3333C54.2174 43.3333 55.0652 42.9821 55.6904 42.357C56.3155 41.7319 56.6667 40.8841 56.6667 40C56.6667 39.1159 56.3155 38.2681 55.6904 37.643C55.0652 37.0179 54.2174 36.6667 53.3333 36.6667H45.7433C45.1624 35.6681 44.3319 34.8376 43.3333 34.2567V23.3333C43.3333 22.4493 42.9821 21.6014 42.357 20.9763C41.7319 20.3512 40.8841 20 40 20C39.1159 20 38.2681 20.3512 37.643 20.9763C37.0179 21.6014 36.6667 22.4493 36.6667 23.3333V34.2567C35.7826 34.7657 35.0275 35.4715 34.46 36.3192C33.8925 37.1669 33.5277 38.1339 33.394 39.1453C33.2602 40.1567 33.3611 41.1853 33.6887 42.1514C34.0164 43.1175 34.562 43.9953 35.2834 44.7166C36.0047 45.438 36.8825 45.9836 37.8486 46.3113C38.8147 46.6389 39.8433 46.7398 40.8547 46.606C41.8661 46.4723 42.8331 46.1075 43.6808 45.54C44.5285 44.9725 45.2343 44.2174 45.7433 43.3333H53.3333ZM6.09 22.6133C5.43073 22.6133 4.78626 22.8088 4.2381 23.1751C3.68994 23.5414 3.2627 24.062 3.0104 24.6711C2.75811 25.2801 2.6921 25.9504 2.82072 26.597C2.94933 27.2436 3.2668 27.8375 3.73298 28.3037C4.19915 28.7699 4.7931 29.0873 5.4397 29.2159C6.0863 29.3446 6.75653 29.2786 7.36561 29.0263C7.9747 28.774 8.4953 28.3467 8.86157 27.7986C9.22784 27.2504 9.42333 26.6059 9.42333 25.9467C9.42333 25.0626 9.07215 24.2148 8.44702 23.5896C7.8219 22.9645 6.97406 22.6133 6.09 22.6133ZM6.66667 40C6.66667 39.3407 6.47117 38.6963 6.1049 38.1481C5.73863 37.5999 5.21803 37.1727 4.60895 36.9204C3.99986 36.6681 3.32964 36.6021 2.68303 36.7307C2.03643 36.8593 1.44249 37.1768 0.976312 37.643C0.510137 38.1092 0.192668 38.7031 0.0640506 39.3497C-0.0645668 39.9963 0.00144427 40.6665 0.253736 41.2756C0.506028 41.8847 0.93327 42.4053 1.48143 42.7716C2.0296 43.1378 2.67406 43.3333 3.33333 43.3333C4.21739 43.3333 5.06524 42.9821 5.69036 42.357C6.31548 41.7319 6.66667 40.8841 6.66667 40ZM40 73.3333C39.3407 73.3333 38.6963 73.5288 38.1481 73.8951C37.5999 74.2614 37.1727 74.782 36.9204 75.3911C36.6681 76.0001 36.6021 76.6704 36.7307 77.317C36.8593 77.9636 37.1768 78.5575 37.643 79.0237C38.1092 79.4899 38.7031 79.8073 39.3497 79.936C39.9963 80.0646 40.6665 79.9986 41.2756 79.7463C41.8847 79.494 42.4053 79.0667 42.7716 78.5186C43.1378 77.9704 43.3333 77.3259 43.3333 76.6667C43.3333 75.7826 42.9821 74.9348 42.357 74.3096C41.7319 73.6845 40.8841 73.3333 40 73.3333ZM14.07 10.69C13.4107 10.69 12.7663 10.8855 12.2181 11.2518C11.6699 11.618 11.2427 12.1386 10.9904 12.7477C10.7381 13.3568 10.6721 14.027 10.8007 14.6736C10.9293 15.3202 11.2468 15.9142 11.713 16.3804C12.1792 16.8465 12.7731 17.164 13.4197 17.2926C14.0663 17.4212 14.7365 17.3552 15.3456 17.1029C15.9547 16.8506 16.4753 16.4234 16.8416 15.8752C17.2078 15.3271 17.4033 14.6826 17.4033 14.0233C17.4033 13.1393 17.0521 12.2914 16.427 11.6663C15.8019 11.0412 14.9541 10.69 14.07 10.69ZM25.93 2.80333C25.2707 2.80333 24.6263 2.99883 24.0781 3.3651C23.5299 3.73137 23.1027 4.25197 22.8504 4.86105C22.5981 5.47014 22.5321 6.14036 22.6607 6.78697C22.7893 7.43357 23.1068 8.02751 23.573 8.49369C24.0392 8.95986 24.6331 9.27733 25.2797 9.40595C25.9263 9.53457 26.5965 9.46856 27.2056 9.21626C27.8147 8.96397 28.3353 8.53673 28.7016 7.98857C29.0678 7.4404 29.2633 6.79594 29.2633 6.13667C29.2633 5.25261 28.9121 4.40477 28.287 3.77964C27.6619 3.15452 26.8141 2.80333 25.93 2.80333ZM6.09 50.72C5.43073 50.72 4.78626 50.9155 4.2381 51.2818C3.68994 51.648 3.2627 52.1686 3.0104 52.7777C2.75811 53.3868 2.6921 54.057 2.82072 54.7036C2.94933 55.3502 3.2668 55.9442 3.73298 56.4104C4.19915 56.8765 4.7931 57.194 5.4397 57.3226C6.0863 57.4512 6.75653 57.3852 7.36561 57.1329C7.9747 56.8806 8.4953 56.4534 8.86157 55.9052C9.22784 55.3571 9.42333 54.7126 9.42333 54.0533C9.42333 53.1693 9.07215 52.3214 8.44702 51.6963C7.8219 51.0712 6.97406 50.72 6.09 50.72ZM14.07 62.6433C13.4107 62.6433 12.7663 62.8388 12.2181 63.2051C11.6699 63.5714 11.2427 64.092 10.9904 64.701C10.7381 65.3101 10.6721 65.9804 10.8007 66.627C10.9293 67.2736 11.2468 67.8675 11.713 68.3337C12.1792 68.7999 12.7731 69.1173 13.4197 69.2459C14.0663 69.3746 14.7365 69.3086 15.3456 69.0563C15.9547 68.804 16.4753 68.3767 16.8416 67.8286C17.2078 67.2804 17.4033 66.6359 17.4033 65.9767C17.4033 65.0926 17.0521 64.2448 16.427 63.6196C15.8019 62.9945 14.9541 62.6433 14.07 62.6433ZM25.93 70.53C25.2707 70.53 24.6263 70.7255 24.0781 71.0918C23.5299 71.458 23.1027 71.9786 22.8504 72.5877C22.5981 73.1968 22.5321 73.867 22.6607 74.5136C22.7893 75.1602 23.1068 75.7542 23.573 76.2204C24.0392 76.6865 24.6331 77.004 25.2797 77.1326C25.9263 77.2612 26.5965 77.1952 27.2056 76.9429C27.8147 76.6906 28.3353 76.2634 28.7016 75.7152C29.0678 75.1671 29.2633 74.5226 29.2633 73.8633C29.2633 72.9793 28.9121 72.1314 28.287 71.5063C27.6619 70.8812 26.8141 70.53 25.93 70.53ZM73.91 50.72C73.2507 50.72 72.6063 50.9155 72.0581 51.2818C71.5099 51.648 71.0827 52.1686 70.8304 52.7777C70.5781 53.3868 70.5121 54.057 70.6407 54.7036C70.7693 55.3502 71.0868 55.9442 71.553 56.4104C72.0191 56.8765 72.6131 57.194 73.2597 57.3226C73.9063 57.4512 74.5765 57.3852 75.1856 57.1329C75.7947 56.8806 76.3153 56.4534 76.6816 55.9052C77.0478 55.3571 77.2433 54.7126 77.2433 54.0533C77.2433 53.1693 76.8921 52.3214 76.267 51.6963C75.6419 51.0712 74.7941 50.72 73.91 50.72ZM65.93 62.6433C65.2707 62.6433 64.6263 62.8388 64.0781 63.2051C63.5299 63.5714 63.1027 64.092 62.8504 64.701C62.5981 65.3101 62.5321 65.9804 62.6607 66.627C62.7893 67.2736 63.1068 67.8675 63.573 68.3337C64.0392 68.7999 64.6331 69.1173 65.2797 69.2459C65.9263 69.3746 66.5965 69.3086 67.2056 69.0563C67.8147 68.804 68.3353 68.3767 68.7016 67.8286C69.0678 67.2804 69.2633 66.6359 69.2633 65.9767C69.2633 65.0926 68.9121 64.2448 68.287 63.6196C67.6619 62.9945 66.814 62.6433 65.93 62.6433ZM54.07 70.53C53.4107 70.53 52.7663 70.7255 52.2181 71.0918C51.6699 71.458 51.2427 71.9786 50.9904 72.5877C50.7381 73.1968 50.6721 73.867 50.8007 74.5136C50.9293 75.1602 51.2468 75.7542 51.713 76.2204C52.1791 76.6865 52.7731 77.004 53.4197 77.1326C54.0663 77.2612 54.7365 77.1952 55.3456 76.9429C55.9547 76.6906 56.4753 76.2634 56.8416 75.7152C57.2078 75.1671 57.4033 74.5226 57.4033 73.8633C57.4033 72.9793 57.0521 72.1314 56.427 71.5063C55.8019 70.8812 54.9541 70.53 54.07 70.53Z" fill="#F8F8FB"/>
</g>
<defs>
<clipPath id="clip0_1973_49964">
<rect width="80" height="80" fill="white"/>
</clipPath>
</defs>
</svg>
