<svg width="25" height="24" viewBox="0 0 25 24" fill="none" xmlns="http://www.w3.org/2000/svg">
<g clip-path="url(#clip0_731_22033)">
<path d="M24.5 15.9996V20.9996C24.5 21.7953 24.1839 22.5584 23.6213 23.121C23.0587 23.6836 22.2956 23.9996 21.5 23.9996H16.5C15.0971 23.9982 13.7192 23.6279 12.5047 22.9258C11.2901 22.2237 10.2815 21.2146 9.58 19.9996C10.3339 19.9943 11.0852 19.9111 11.822 19.7516C12.3832 20.4533 13.095 21.0197 13.9048 21.4088C14.7146 21.798 15.6016 21.9999 16.5 21.9996H21.5C21.7652 21.9996 22.0196 21.8943 22.2071 21.7068C22.3946 21.5192 22.5 21.2649 22.5 20.9996V15.9996C22.4998 15.1009 22.2972 14.2137 21.9074 13.4039C21.5175 12.5941 20.9504 11.8824 20.248 11.3216C20.4088 10.585 20.4933 9.83366 20.5 9.07965C21.715 9.7811 22.7241 10.7897 23.4262 12.0043C24.1282 13.2189 24.4986 14.5967 24.5 15.9996ZM18.477 9.65065C18.5705 8.36229 18.3856 7.06889 17.9348 5.85834C17.4841 4.6478 16.778 3.54847 15.8646 2.63506C14.9512 1.72166 13.8518 1.01558 12.6413 0.564802C11.4308 0.114026 10.1374 -0.0708809 8.849 0.0226448C6.56592 0.283377 4.45693 1.36982 2.91918 3.07739C1.38143 4.78496 0.521027 6.99582 0.5 9.29365L0.5 14.3336C0.5 16.8656 2.007 17.9996 3.5 17.9996H9.2C11.4988 17.9799 13.711 17.12 15.4198 15.5822C17.1286 14.0444 18.2159 11.9347 18.477 9.65065ZM14.45 4.05065C15.1599 4.76215 15.7088 5.61784 16.0593 6.55983C16.4099 7.50182 16.554 8.50812 16.482 9.51065C16.2686 11.2943 15.4105 12.9385 14.0693 14.1336C12.7282 15.3287 10.9964 15.9924 9.2 15.9996H3.5C2.572 15.9996 2.5 14.7246 2.5 14.3336V9.29365C2.50834 7.49802 3.17265 5.76735 4.36792 4.42732C5.56319 3.0873 7.20699 2.23031 8.99 2.01764C9.156 2.00564 9.322 1.99964 9.488 1.99964C10.4093 1.99879 11.3217 2.17948 12.1731 2.5314C13.0245 2.88332 13.7982 3.39957 14.45 4.05065Z" fill="#0E3D94"/>
</g>
<defs>
<clipPath id="clip0_731_22033">
<rect width="24" height="24" fill="white" transform="translate(0.5)"/>
</clipPath>
</defs>
</svg>
