<svg width="34" height="30" viewBox="0 0 34 30" fill="none" xmlns="http://www.w3.org/2000/svg">
<g opacity="0.2">
<path d="M7.625 21.25C8.66053 21.25 9.5 20.4105 9.5 19.375C9.5 18.3395 8.66053 17.5 7.625 17.5C6.58947 17.5 5.75 18.3395 5.75 19.375C5.75 20.4105 6.58947 21.25 7.625 21.25Z" fill="#0E3D94"/>
<path d="M29.8754 23.9623L33.4629 20.3748C33.5801 20.2586 33.6731 20.1204 33.7365 19.968C33.8 19.8157 33.8327 19.6523 33.8327 19.4873C33.8327 19.3223 33.8 19.1589 33.7365 19.0066C33.6731 18.8543 33.5801 18.716 33.4629 18.5998C33.2287 18.367 32.9119 18.2363 32.5817 18.2363C32.2514 18.2363 31.9346 18.367 31.7004 18.5998L28.1004 22.1873L24.5004 18.5998C24.2662 18.367 23.9494 18.2363 23.6192 18.2363C23.2889 18.2363 22.9721 18.367 22.7379 18.5998C22.6208 18.716 22.5278 18.8543 22.4643 19.0066C22.4008 19.1589 22.3682 19.3223 22.3682 19.4873C22.3682 19.6523 22.4008 19.8157 22.4643 19.968C22.5278 20.1204 22.6208 20.2586 22.7379 20.3748L26.3254 23.9623L22.7504 27.4998C22.5176 27.734 22.3869 28.0508 22.3869 28.3811C22.3869 28.7113 22.5176 29.0281 22.7504 29.2623C22.9846 29.4951 23.3014 29.6258 23.6317 29.6258C23.9619 29.6258 24.2787 29.4951 24.5129 29.2623L28.1004 25.6748L31.7004 29.2623C31.9332 29.4933 32.2475 29.6234 32.5754 29.6248C32.7399 29.6258 32.903 29.5942 33.0553 29.532C33.2076 29.4698 33.3461 29.3782 33.4629 29.2623C33.6957 29.0281 33.8264 28.7113 33.8264 28.3811C33.8264 28.0508 33.6957 27.734 33.4629 27.4998L29.8754 23.9623Z" fill="#0E3D94"/>
<path d="M19.6875 23.75H7C6.00544 23.75 5.05161 23.3549 4.34835 22.6517C3.64509 21.9484 3.25 20.9946 3.25 20V12.5H28.25V15.5875C28.25 15.919 28.3817 16.237 28.6161 16.4714C28.8505 16.7058 29.1685 16.8375 29.5 16.8375C29.8315 16.8375 30.1495 16.7058 30.3839 16.4714C30.6183 16.237 30.75 15.919 30.75 15.5875V10C30.75 9.17924 30.5883 8.36651 30.2743 7.60823C29.9602 6.84994 29.4998 6.16095 28.9194 5.58058C28.3391 5.00022 27.6501 4.53984 26.8918 4.22575C26.1335 3.91166 25.3208 3.75 24.5 3.75L7 3.75C5.3424 3.75 3.75269 4.40848 2.58058 5.58058C1.40848 6.75269 0.75 8.3424 0.75 10L0.75 20C0.75 21.6576 1.40848 23.2473 2.58058 24.4194C3.75269 25.5915 5.3424 26.25 7 26.25H19.6875C20.019 26.25 20.337 26.1183 20.5714 25.8839C20.8058 25.6495 20.9375 25.3315 20.9375 25C20.9375 24.6685 20.8058 24.3505 20.5714 24.1161C20.337 23.8817 20.019 23.75 19.6875 23.75ZM4.35 7.35C5.05259 6.64654 6.00577 6.25088 7 6.25H24.5C25.4946 6.25 26.4484 6.64509 27.1517 7.34835C27.8549 8.05161 28.25 9.00544 28.25 10H3.25C3.25088 9.00577 3.64654 8.05259 4.35 7.35Z" fill="#0E3D94"/>
</g>
</svg>
