<svg width="25" height="24" viewBox="0 0 25 24" fill="none" xmlns="http://www.w3.org/2000/svg">
<path d="M3.44594 14.9768L3.30105 15.0156L3.33988 15.1605L4.89279 20.956C4.97173 21.2507 5.16447 21.5018 5.42861 21.6543C5.69274 21.8068 6.00664 21.8482 6.30125 21.7692L19.8242 18.1458C20.1188 18.0668 20.37 17.8741 20.5225 17.6099C20.675 17.3458 20.7163 17.0319 20.6374 16.7373L19.0845 10.9417L19.0456 10.7969L18.9008 10.8357L3.44594 14.9768ZM18.4608 9.1936L18.6057 9.15478L18.5668 9.00989L18.308 8.04396C18.2291 7.74936 18.0363 7.49817 17.7722 7.34567C17.5081 7.19317 17.1942 7.15185 16.8996 7.23079L3.37659 10.8543C3.08199 10.9332 2.83081 11.1259 2.67831 11.3901C2.52581 11.6542 2.48448 11.9681 2.56342 12.2627L2.82224 13.2286L2.86106 13.3735L3.00595 13.3347L18.4608 9.1936ZM10.2768 17.2876L7.379 18.064C7.16124 18.1224 6.92923 18.0918 6.734 17.9791C6.53877 17.8664 6.39631 17.6807 6.33796 17.463C6.27962 17.2452 6.31016 17.0132 6.42288 16.818C6.5356 16.6228 6.72125 16.4803 6.939 16.4219L9.83678 15.6455C10.0545 15.5871 10.2865 15.6177 10.4818 15.7304C10.677 15.8431 10.8195 16.0288 10.8778 16.2465C10.9362 16.4643 10.9056 16.6963 10.7929 16.8915C10.6802 17.0868 10.4945 17.2292 10.2768 17.2876ZM2.9366 9.21218L16.4596 5.58872C17.1897 5.39308 17.9676 5.4955 18.6222 5.87343C19.2768 6.25137 19.7545 6.87386 19.9501 7.60397L22.2795 16.2973C22.4751 17.0274 22.3727 17.8053 21.9947 18.4599C21.6168 19.1145 20.9943 19.5922 20.2642 19.7878L6.74124 23.4113C6.01113 23.6069 5.23321 23.5045 4.57861 23.1266C3.92401 22.7486 3.44635 22.1261 3.25072 21.396L0.921346 12.7027C0.725713 11.9726 0.828129 11.1947 1.20606 10.5401C1.584 9.88547 2.20649 9.40781 2.9366 9.21218Z" fill="#0E3D94" stroke="#0E3D94" stroke-width="0.3"/>
<rect x="5.60059" y="1" width="18" height="13" fill="white"/>
<path d="M21.6006 0H7.60059C6.80494 0 6.04187 0.316071 5.47927 0.87868C4.91666 1.44129 4.60059 2.20435 4.60059 3V12C4.60059 12.7956 4.91666 13.5587 5.47927 14.1213C6.04187 14.6839 6.80494 15 7.60059 15H21.6006C22.3962 15 23.1593 14.6839 23.7219 14.1213C24.2845 13.5587 24.6006 12.7956 24.6006 12V3C24.6006 2.20435 24.2845 1.44129 23.7219 0.87868C23.1593 0.316071 22.3962 0 21.6006 0ZM22.6006 12C22.6006 12.2652 22.4952 12.5196 22.3077 12.7071C22.1202 12.8946 21.8658 13 21.6006 13H7.60059C7.33537 13 7.08102 12.8946 6.89348 12.7071C6.70594 12.5196 6.60059 12.2652 6.60059 12V6H22.6006V12ZM22.6006 4H6.60059V3C6.60059 2.73478 6.70594 2.48043 6.89348 2.29289C7.08102 2.10536 7.33537 2 7.60059 2H21.6006C21.8658 2 22.1202 2.10536 22.3077 2.29289C22.4952 2.48043 22.6006 2.73478 22.6006 3V4Z" fill="#0E3D94"/>
</svg>
