<svg width="24" height="24" viewBox="0 0 24 24" fill="none" xmlns="http://www.w3.org/2000/svg">
<path d="M18.8292 5.1708C18.7198 5.06144 18.5715 5 18.4168 5C18.2621 5 18.1138 5.06144 18.0044 5.1708L12 11.1752L5.99564 5.1708C5.88625 5.06144 5.7379 5 5.58322 5C5.42854 5 5.28019 5.06144 5.1708 5.1708C5.06144 5.28019 5 5.42854 5 5.58322C5 5.7379 5.06144 5.88625 5.1708 5.99564L11.1752 12L5.1708 18.0044C5.06144 18.1138 5 18.2621 5 18.4168C5 18.5715 5.06144 18.7198 5.1708 18.8292C5.28019 18.9386 5.42854 19 5.58322 19C5.7379 19 5.88625 18.9386 5.99564 18.8292L12 12.8248L18.0044 18.8292C18.1138 18.9386 18.2621 19 18.4168 19C18.5715 19 18.7198 18.9386 18.8292 18.8292C18.9386 18.7198 19 18.5715 19 18.4168C19 18.2621 18.9386 18.1138 18.8292 18.0044L12.8248 12L18.8292 5.99564C18.9386 5.88625 19 5.7379 19 5.58322C19 5.42854 18.9386 5.28019 18.8292 5.1708Z" fill="#101010" stroke="#101010"/>
</svg>
