<svg width="17" height="16" viewBox="0 0 17 16" fill="none" xmlns="http://www.w3.org/2000/svg">
<path d="M14.2499 2.66667H12.1833C12.0285 1.91428 11.6191 1.23823 11.0241 0.752479C10.429 0.266727 9.68472 0.000969683 8.91658 0L7.58325 0C6.81511 0.000969683 6.0708 0.266727 5.47575 0.752479C4.88071 1.23823 4.47132 1.91428 4.31659 2.66667H2.24992C2.07311 2.66667 1.90354 2.7369 1.77851 2.86193C1.65349 2.98695 1.58325 3.15652 1.58325 3.33333C1.58325 3.51014 1.65349 3.67971 1.77851 3.80474C1.90354 3.92976 2.07311 4 2.24992 4H2.91659V12.6667C2.91764 13.5504 3.26917 14.3976 3.89407 15.0225C4.51896 15.6474 5.36619 15.9989 6.24992 16H10.2499C11.1336 15.9989 11.9809 15.6474 12.6058 15.0225C13.2307 14.3976 13.5822 13.5504 13.5833 12.6667V4H14.2499C14.4267 4 14.5963 3.92976 14.7213 3.80474C14.8463 3.67971 14.9166 3.51014 14.9166 3.33333C14.9166 3.15652 14.8463 2.98695 14.7213 2.86193C14.5963 2.7369 14.4267 2.66667 14.2499 2.66667ZM7.58325 1.33333H8.91658C9.3301 1.33384 9.73334 1.46225 10.071 1.70096C10.4087 1.93967 10.6642 2.27699 10.8026 2.66667H5.69725C5.83564 2.27699 6.09119 1.93967 6.42884 1.70096C6.7665 1.46225 7.16974 1.33384 7.58325 1.33333ZM12.2499 12.6667C12.2499 13.1971 12.0392 13.7058 11.6641 14.0809C11.2891 14.456 10.7804 14.6667 10.2499 14.6667H6.24992C5.71949 14.6667 5.21078 14.456 4.83571 14.0809C4.46063 13.7058 4.24992 13.1971 4.24992 12.6667V4H12.2499V12.6667Z" fill="#D63933"/>
<path d="M6.91667 11.9996C7.09348 11.9996 7.26304 11.9293 7.38807 11.8043C7.51309 11.6793 7.58333 11.5097 7.58333 11.3329V7.33293C7.58333 7.15611 7.51309 6.98655 7.38807 6.86152C7.26304 6.7365 7.09348 6.66626 6.91667 6.66626C6.73985 6.66626 6.57029 6.7365 6.44526 6.86152C6.32024 6.98655 6.25 7.15611 6.25 7.33293V11.3329C6.25 11.5097 6.32024 11.6793 6.44526 11.8043C6.57029 11.9293 6.73985 11.9996 6.91667 11.9996Z" fill="#D63933"/>
<path d="M9.58317 11.9996C9.75999 11.9996 9.92956 11.9293 10.0546 11.8043C10.1796 11.6793 10.2498 11.5097 10.2498 11.3329V7.33293C10.2498 7.15611 10.1796 6.98655 10.0546 6.86152C9.92956 6.7365 9.75999 6.66626 9.58317 6.66626C9.40636 6.66626 9.23679 6.7365 9.11177 6.86152C8.98674 6.98655 8.9165 7.15611 8.9165 7.33293V11.3329C8.9165 11.5097 8.98674 11.6793 9.11177 11.8043C9.23679 11.9293 9.40636 11.9996 9.58317 11.9996Z" fill="#D63933"/>
</svg>
