<svg width="16" height="18" viewBox="0 0 16 18" fill="none" xmlns="http://www.w3.org/2000/svg">
<path d="M13.9999 3.66667H11.9333C11.7786 2.91428 11.3692 2.23823 10.7741 1.75248C10.1791 1.26673 9.43475 1.00097 8.66662 1L7.33328 1C6.56515 1.00097 5.82083 1.26673 5.22578 1.75248C4.63074 2.23823 4.22135 2.91428 4.06662 3.66667H1.99995C1.82314 3.66667 1.65357 3.7369 1.52854 3.86193C1.40352 3.98695 1.33328 4.15652 1.33328 4.33333C1.33328 4.51014 1.40352 4.67971 1.52854 4.80474C1.65357 4.92976 1.82314 5 1.99995 5H2.66662V13.6667C2.66767 14.5504 3.0192 15.3976 3.6441 16.0225C4.26899 16.6474 5.11622 16.9989 5.99995 17H9.99995C10.8837 16.9989 11.7309 16.6474 12.3558 16.0225C12.9807 15.3976 13.3322 14.5504 13.3333 13.6667V5H13.9999C14.1768 5 14.3463 4.92976 14.4714 4.80474C14.5964 4.67971 14.6666 4.51014 14.6666 4.33333C14.6666 4.15652 14.5964 3.98695 14.4714 3.86193C14.3463 3.7369 14.1768 3.66667 13.9999 3.66667ZM7.33328 2.33333H8.66662C9.08013 2.33384 9.48337 2.46225 9.82102 2.70096C10.1587 2.93967 10.4142 3.27699 10.5526 3.66667H5.44728C5.58567 3.27699 5.84122 2.93967 6.17887 2.70096C6.51653 2.46225 6.91977 2.33384 7.33328 2.33333ZM11.9999 13.6667C11.9999 14.1971 11.7892 14.7058 11.4142 15.0809C11.0391 15.456 10.5304 15.6667 9.99995 15.6667H5.99995C5.46952 15.6667 4.96081 15.456 4.58574 15.0809C4.21066 14.7058 3.99995 14.1971 3.99995 13.6667V5H11.9999V13.6667Z" fill="#EB4F49" stroke="#EB4F49" stroke-width="0.5"/>
<path d="M6.66667 12.9993C6.84348 12.9993 7.01304 12.9291 7.13807 12.8041C7.26309 12.6791 7.33333 12.5095 7.33333 12.3327V8.33268C7.33333 8.15587 7.26309 7.9863 7.13807 7.86128C7.01304 7.73625 6.84348 7.66602 6.66667 7.66602C6.48985 7.66602 6.32029 7.73625 6.19526 7.86128C6.07024 7.9863 6 8.15587 6 8.33268V12.3327C6 12.5095 6.07024 12.6791 6.19526 12.8041C6.32029 12.9291 6.48985 12.9993 6.66667 12.9993Z" fill="#EB4F49" stroke="#EB4F49" stroke-width="0.5"/>
<path d="M9.33324 12.9993C9.51005 12.9993 9.67962 12.9291 9.80464 12.8041C9.92967 12.6791 9.99991 12.5095 9.99991 12.3327V8.33268C9.99991 8.15587 9.92967 7.9863 9.80464 7.86128C9.67962 7.73625 9.51005 7.66602 9.33324 7.66602C9.15642 7.66602 8.98685 7.73625 8.86183 7.86128C8.7368 7.9863 8.66656 8.15587 8.66656 8.33268V12.3327C8.66656 12.5095 8.7368 12.6791 8.86183 12.8041C8.98685 12.9291 9.15642 12.9993 9.33324 12.9993Z" fill="#EB4F49"/>
</svg>
