<svg width="25" height="24" viewBox="0 0 25 24" fill="none" xmlns="http://www.w3.org/2000/svg">
<g clip-path="url(#clip0_1973_38770)">
<path d="M19.5 4.99927H17.4C17.1679 3.87068 16.5538 2.85661 15.6613 2.12799C14.7687 1.39936 13.6522 1.00072 12.5 0.999268H5.5C4.17441 1.00086 2.90356 1.52815 1.96622 2.46549C1.02888 3.40283 0.501588 4.67367 0.5 5.99927L0.5 14.9993C0.502514 15.8949 0.805538 16.7638 1.36054 17.4667C1.91553 18.1697 2.69039 18.666 3.561 18.8763C3.46676 19.3767 3.48287 19.8917 3.60819 20.3853C3.73351 20.8789 3.96503 21.3392 4.2866 21.734C4.60816 22.1289 5.01202 22.4489 5.46999 22.6715C5.92796 22.8942 6.42901 23.0143 6.93817 23.0234C7.44733 23.0325 7.95234 22.9303 8.41796 22.7241C8.88357 22.5179 9.29858 22.2125 9.63401 21.8294C9.96944 21.4462 10.2172 20.9944 10.3601 20.5056C10.5029 20.0168 10.5373 19.5028 10.461 18.9993H14.543C14.5173 19.1647 14.5036 19.3318 14.502 19.4993C14.502 20.4275 14.8707 21.3178 15.5271 21.9741C16.1835 22.6305 17.0737 22.9993 18.002 22.9993C18.9303 22.9993 19.8205 22.6305 20.4769 21.9741C21.1333 21.3178 21.502 20.4275 21.502 19.4993C21.5009 19.2902 21.4804 19.0816 21.441 18.8763C22.3112 18.6656 23.0856 18.1691 23.6403 17.4662C24.1949 16.7633 24.4976 15.8946 24.5 14.9993V9.99927C24.4984 8.67367 23.9711 7.40283 23.0338 6.46549C22.0964 5.52815 20.8256 5.00086 19.5 4.99927ZM22.5 9.99927V10.9993H17.5V6.99927H19.5C20.2956 6.99927 21.0587 7.31534 21.6213 7.87795C22.1839 8.44056 22.5 9.20362 22.5 9.99927ZM2.5 14.9993V5.99927C2.5 5.20362 2.81607 4.44056 3.37868 3.87795C3.94129 3.31534 4.70435 2.99927 5.5 2.99927H12.5C13.2956 2.99927 14.0587 3.31534 14.6213 3.87795C15.1839 4.44056 15.5 5.20362 15.5 5.99927V16.9993H4.5C3.96957 16.9993 3.46086 16.7886 3.08579 16.4135C2.71071 16.0384 2.5 15.5297 2.5 14.9993ZM8.5 19.4993C8.5 19.8971 8.34196 20.2786 8.06066 20.5599C7.77936 20.8412 7.39782 20.9993 7 20.9993C6.60218 20.9993 6.22064 20.8412 5.93934 20.5599C5.65804 20.2786 5.5 19.8971 5.5 19.4993C5.50061 19.3284 5.53212 19.159 5.593 18.9993H8.407C8.46788 19.159 8.49939 19.3284 8.5 19.4993ZM18 20.9993C17.6022 20.9993 17.2206 20.8412 16.9393 20.5599C16.658 20.2786 16.5 19.8971 16.5 19.4993C16.5004 19.3283 16.5319 19.1589 16.593 18.9993H19.407C19.4681 19.1589 19.4996 19.3283 19.5 19.4993C19.5 19.8971 19.342 20.2786 19.0607 20.5599C18.7794 20.8412 18.3978 20.9993 18 20.9993ZM20.5 16.9993H17.5V12.9993H22.5V14.9993C22.5 15.5297 22.2893 16.0384 21.9142 16.4135C21.5391 16.7886 21.0304 16.9993 20.5 16.9993Z" fill="#0E3D94"/>
</g>
<defs>
<clipPath id="clip0_1973_38770">
<rect width="24" height="24" fill="white" transform="translate(0.5)"/>
</clipPath>
</defs>
</svg>
