<svg width="25" height="24" viewBox="0 0 25 24" fill="none" xmlns="http://www.w3.org/2000/svg">
<g clip-path="url(#clip0_3218_56751)">
<path d="M18.2918 7.21208C17.8475 5.30137 16.7165 3.62053 15.114 2.48907C13.5114 1.35761 11.549 0.854401 9.59978 1.0751C7.65052 1.2958 5.8503 2.22502 4.5413 3.68613C3.2323 5.14724 2.50578 7.03838 2.49984 9.00008C2.49898 10.2785 2.80778 11.5381 3.39984 12.6711C2.32097 13.2492 1.46624 14.1713 0.971458 15.2909C0.476677 16.4104 0.370224 17.6632 0.66901 18.8502C0.967797 20.0372 1.65469 21.0903 2.62054 21.8422C3.5864 22.5941 4.77583 23.0016 5.99984 23.0001H16.4998C18.4589 22.991 20.3466 22.2633 21.8049 20.9551C23.2632 19.6469 24.1907 17.849 24.4117 15.9024C24.6326 13.9558 24.1316 11.9958 23.0036 10.394C21.8756 8.79221 20.1991 7.66002 18.2918 7.21208ZM16.4998 21.0001H5.99984C5.14826 21.0026 4.32512 20.6938 3.68536 20.1318C3.04559 19.5697 2.63332 18.7932 2.52615 17.9484C2.41899 17.1036 2.62431 16.2488 3.10347 15.5448C3.58264 14.8408 4.3026 14.3363 5.12784 14.1261C5.28655 14.0852 5.43279 14.006 5.55368 13.8953C5.67458 13.7847 5.76643 13.646 5.82115 13.4916C5.87587 13.3371 5.89178 13.1715 5.86749 13.0094C5.8432 12.8474 5.77945 12.6937 5.68184 12.5621C4.91299 11.5338 4.49825 10.284 4.49984 9.00008C4.51125 7.48607 5.09462 6.03234 6.13298 4.93044C7.17133 3.82854 8.58789 3.15993 10.0986 3.05871C11.6092 2.9575 13.1023 3.43115 14.2784 4.38468C15.4545 5.33822 16.2266 6.70112 16.4398 8.20008C16.4686 8.41774 16.5682 8.61988 16.7233 8.7753C16.8783 8.93073 17.0803 9.0308 17.2978 9.06009C18.7967 9.27332 20.1595 10.0453 21.113 11.2211C22.0665 12.397 22.5403 13.8898 22.4394 15.4004C22.3384 16.9109 21.6702 18.3274 20.5686 19.366C19.4671 20.4045 18.0137 20.9882 16.4998 21.0001Z" fill="#0E3D94"/>
</g>
<defs>
<clipPath id="clip0_3218_56751">
<rect width="24" height="24" fill="white" transform="translate(0.5)"/>
</clipPath>
</defs>
</svg>
