<svg width="16" height="16" viewBox="0 0 16 16" fill="none" xmlns="http://www.w3.org/2000/svg">
<path d="M11.9995 10.3326C11.9117 10.3331 11.8248 10.3162 11.7435 10.2831C11.6623 10.2499 11.5884 10.201 11.5261 10.1392L8.47281 7.07922C8.41083 7.01674 8.3371 6.96714 8.25586 6.9333C8.17462 6.89945 8.08748 6.88203 7.99947 6.88203C7.91146 6.88203 7.82433 6.89945 7.74309 6.9333C7.66185 6.96714 7.58811 7.01674 7.52614 7.07922L4.47281 10.1392C4.34727 10.2648 4.17701 10.3353 3.99947 10.3353C3.82194 10.3353 3.65168 10.2648 3.52614 10.1392C3.4006 10.0137 3.33008 9.84342 3.33008 9.66589C3.33008 9.57798 3.34739 9.49093 3.38103 9.40972C3.41467 9.32851 3.46398 9.25471 3.52614 9.19255L6.58614 6.13923C6.9661 5.77418 7.47257 5.57031 7.99947 5.57031C8.52638 5.57031 9.03285 5.77418 9.41281 6.13923L12.4728 9.19255C12.5353 9.25453 12.5849 9.32826 12.6187 9.4095C12.6526 9.49074 12.67 9.57788 12.67 9.66589C12.67 9.75389 12.6526 9.84103 12.6187 9.92227C12.5849 10.0035 12.5353 10.0772 12.4728 10.1392C12.4105 10.201 12.3366 10.2499 12.2554 10.2831C12.1742 10.3162 12.0872 10.3331 11.9995 10.3326Z" fill="#0E3D94" stroke="#0E3D94" stroke-width="0.5"/>
</svg>
