<svg width="17" height="16" viewBox="0 0 17 16" fill="none" xmlns="http://www.w3.org/2000/svg">
<path d="M13.1585 0.597722L4.93739 8.8307C4.62339 9.14346 4.37447 9.51548 4.20502 9.92522C4.03556 10.335 3.94896 10.7743 3.95021 11.2178V12.1247C3.95021 12.3038 4.02125 12.4756 4.14771 12.6022C4.27416 12.7288 4.44567 12.8 4.62451 12.8H5.5301C5.97295 12.8012 6.41166 12.7145 6.82082 12.5448C7.22997 12.3751 7.60145 12.1258 7.91375 11.8114L16.1348 3.5784C16.5289 3.1828 16.7502 2.64683 16.7502 2.08806C16.7502 1.52928 16.5289 0.99332 16.1348 0.597722C15.7341 0.214093 15.201 0 14.6467 0C14.0923 0 13.5592 0.214093 13.1585 0.597722ZM15.1814 2.62355L6.96029 10.8565C6.58007 11.235 6.06617 11.448 5.5301 11.4494H5.29881V11.2178C5.30022 10.681 5.51295 10.1663 5.89085 9.78555L14.1119 1.55256C14.256 1.41478 14.4475 1.33789 14.6467 1.33789C14.8458 1.33789 15.0374 1.41478 15.1814 1.55256C15.3229 1.69472 15.4024 1.88729 15.4024 2.08806C15.4024 2.28883 15.3229 2.4814 15.1814 2.62355Z" fill="#0E3D94"/>
<path d="M16.0833 5.98599C15.9065 5.98599 15.7369 6.05623 15.6119 6.18126C15.4869 6.30628 15.4167 6.47585 15.4167 6.65266V9.99999H12.75C12.2196 9.99999 11.7109 10.2107 11.3358 10.5858C10.9607 10.9608 10.75 11.4696 10.75 12V14.6667H4.08333C3.5529 14.6667 3.04419 14.4559 2.66912 14.0809C2.29405 13.7058 2.08333 13.1971 2.08333 12.6667V3.33333C2.08333 2.8029 2.29405 2.29419 2.66912 1.91912C3.04419 1.54405 3.5529 1.33333 4.08333 1.33333H10.1113C10.2881 1.33333 10.4577 1.26309 10.5827 1.13807C10.7078 1.01305 10.778 0.843477 10.778 0.666666C10.778 0.489855 10.7078 0.320286 10.5827 0.195262C10.4577 0.0702378 10.2881 0 10.1113 0L4.08333 0C3.1996 0.00105857 2.35237 0.352588 1.72748 0.977479C1.10259 1.60237 0.751059 2.4496 0.75 3.33333L0.75 12.6667C0.751059 13.5504 1.10259 14.3976 1.72748 15.0225C2.35237 15.6474 3.1996 15.9989 4.08333 16H11.6453C12.0833 16.0012 12.5171 15.9156 12.9217 15.7481C13.3264 15.5806 13.6938 15.3344 14.0027 15.024L15.7733 13.252C16.0838 12.9432 16.33 12.576 16.4977 12.1715C16.6653 11.7669 16.7511 11.3332 16.75 10.8953V6.65266C16.75 6.47585 16.6798 6.30628 16.5547 6.18126C16.4297 6.05623 16.2601 5.98599 16.0833 5.98599ZM13.06 14.0813C12.792 14.3487 12.4531 14.5337 12.0833 14.6147V12C12.0833 11.8232 12.1536 11.6536 12.2786 11.5286C12.4036 11.4036 12.5732 11.3333 12.75 11.3333H15.3667C15.2842 11.7023 15.0993 12.0406 14.8333 12.3093L13.06 14.0813Z" fill="#0E3D94"/>
</svg>
