<svg width="24" height="24" viewBox="0 0 24 24" fill="none" xmlns="http://www.w3.org/2000/svg">
<path d="M13.6378 22C13.4607 22 13.2884 21.9415 13.1467 21.8333L9.87291 19.3333C9.77126 19.2557 9.68876 19.1551 9.63194 19.0393C9.57512 18.9236 9.54553 18.796 9.54553 18.6667V13.9833L3.80333 7.40583C3.39552 6.9374 3.12925 6.35901 3.03652 5.7402C2.94379 5.12138 3.02855 4.48846 3.28061 3.91751C3.53268 3.34656 3.94132 2.86188 4.45742 2.52172C4.97352 2.18156 5.57512 2.0004 6.18992 2H17.8118C18.4266 2.00073 19.028 2.1822 19.5439 2.52259C20.0598 2.86298 20.4682 3.34781 20.72 3.91882C20.9718 4.48983 21.0563 5.12273 20.9633 5.74146C20.8703 6.36018 20.6039 6.93841 20.1959 7.40667L14.4562 13.9833V21.1667C14.4562 21.3877 14.37 21.5996 14.2165 21.7559C14.063 21.9122 13.8548 22 13.6378 22ZM11.1824 18.25L12.8193 19.5V13.6667C12.8195 13.4626 12.8932 13.2657 13.0264 13.1133L18.9748 6.29917C19.1732 6.0709 19.3026 5.7892 19.3476 5.48788C19.3925 5.18655 19.3511 4.87842 19.2283 4.60046C19.1056 4.32251 18.9066 4.08655 18.6553 3.92091C18.404 3.75527 18.1112 3.66699 17.8118 3.66667H6.18992C5.89073 3.66713 5.59804 3.75546 5.34692 3.92105C5.09581 4.08665 4.89694 4.3225 4.77418 4.60029C4.65141 4.87809 4.60996 5.18605 4.65478 5.48723C4.69961 5.78842 4.82882 6.07004 5.02691 6.29833L10.9762 13.1133C11.1091 13.2659 11.1825 13.4627 11.1824 13.6667V18.25Z" fill="#101010"/>
</svg>
