<svg width="16" height="16" viewBox="0 0 16 16" fill="none" xmlns="http://www.w3.org/2000/svg">
<g clip-path="url(#clip0_731_21220)">
<path d="M11.6667 1.27734C10.916 1.28902 10.1817 1.49858 9.5379 1.88486C8.8941 2.27114 8.36363 2.82046 8.00005 3.47734C7.63648 2.82046 7.10601 2.27114 6.46221 1.88486C5.81841 1.49858 5.08409 1.28902 4.33339 1.27734C3.13668 1.32934 2.00919 1.85285 1.19724 2.7335C0.385293 3.61415 -0.0451135 4.78036 5.35741e-05 5.97734C5.35741e-05 9.00868 3.19072 12.3193 5.86672 14.564C6.4642 15.0661 7.21962 15.3414 8.00005 15.3414C8.78048 15.3414 9.53591 15.0661 10.1334 14.564C12.8094 12.3193 16.0001 9.00868 16.0001 5.97734C16.0452 4.78036 15.6148 3.61415 14.8029 2.7335C13.9909 1.85285 12.8634 1.32934 11.6667 1.27734ZM9.27672 13.544C8.91938 13.8449 8.46722 14.0099 8.00005 14.0099C7.53289 14.0099 7.08073 13.8449 6.72339 13.544C3.29805 10.67 1.33339 7.91268 1.33339 5.97734C1.28781 5.13382 1.57763 4.3065 2.13963 3.67581C2.70163 3.04512 3.49021 2.66224 4.33339 2.61068C5.17656 2.66224 5.96515 3.04512 6.52714 3.67581C7.08914 4.3065 7.37896 5.13382 7.33339 5.97734C7.33339 6.15415 7.40363 6.32372 7.52865 6.44875C7.65367 6.57377 7.82324 6.64401 8.00005 6.64401C8.17686 6.64401 8.34643 6.57377 8.47146 6.44875C8.59648 6.32372 8.66672 6.15415 8.66672 5.97734C8.62115 5.13382 8.91096 4.3065 9.47296 3.67581C10.035 3.04512 10.8235 2.66224 11.6667 2.61068C12.5099 2.66224 13.2985 3.04512 13.8605 3.67581C14.4225 4.3065 14.7123 5.13382 14.6667 5.97734C14.6667 7.91268 12.7021 10.67 9.27672 13.5413V13.544Z" fill="#1E1E20"/>
</g>
<defs>
<clipPath id="clip0_731_21220">
<rect width="16" height="16" fill="white"/>
</clipPath>
</defs>
</svg>
