<svg width="80" height="80" viewBox="0 0 80 80" fill="none" xmlns="http://www.w3.org/2000/svg">
<rect x="1" y="1" width="78" height="78" rx="39" stroke="white" stroke-width="2"/>
<path d="M40.0003 23.667C39.3815 23.667 38.788 23.9128 38.3504 24.3504C37.9128 24.788 37.667 25.3815 37.667 26.0003V44.667C37.667 45.2858 37.9128 45.8793 38.3504 46.3169C38.788 46.7545 39.3815 47.0003 40.0003 47.0003C40.6192 47.0003 41.2127 46.7545 41.6503 46.3169C42.0879 45.8793 42.3337 45.2858 42.3337 44.667V26.0003C42.3337 25.3815 42.0879 24.788 41.6503 24.3504C41.2127 23.9128 40.6192 23.667 40.0003 23.667Z" fill="white"/>
<path d="M42.3337 54.0003C42.3337 52.7117 41.289 51.667 40.0003 51.667C38.7117 51.667 37.667 52.7117 37.667 54.0003C37.667 55.289 38.7117 56.3337 40.0003 56.3337C41.289 56.3337 42.3337 55.289 42.3337 54.0003Z" fill="white"/>
</svg>
