<svg fill="none" height="29" viewBox="0 0 29 29" width="29" xmlns="http://www.w3.org/2000/svg">
    <path
        d="M1.41664 19.2551L5.35429 18.548C5.596 18.5046 5.82714 18.6651 5.87055 18.9068L5.94909 19.3442L7.16084 19.1266C7.46676 19.072 7.76072 18.9641 8.0297 18.8082L9.0643 18.2069C11.0796 17.029 13.4782 16.6939 15.739 17.2747L21.1241 18.6424C21.4607 18.7269 21.7564 18.9284 21.9578 19.211L26.7738 17.5602C27.1136 17.4414 27.4859 17.4547 27.8164 17.598C28.1467 17.7413 28.411 18.0038 28.5563 18.3331C28.7032 18.6645 28.7206 19.0388 28.605 19.3822C28.4894 19.7257 28.2493 20.0135 27.9321 20.1887L20.3554 24.3221C18.4997 25.3358 16.4069 25.8362 14.2932 25.7718L9.3669 25.6267L9.36696 25.627C9.00538 25.6142 8.64347 25.6383 8.28689 25.6987L7.12757 25.9069L7.28471 26.782C7.30555 26.8981 7.27925 27.0177 7.21195 27.1145C7.14465 27.2112 7.04158 27.2772 6.92555 27.2981L2.9879 28.0051C2.87188 28.026 2.75229 28 2.65552 27.9327C2.55876 27.8654 2.49277 27.7623 2.47194 27.6463L1.05777 19.771C1.03694 19.6549 1.06294 19.5354 1.13024 19.4386C1.19754 19.3418 1.30062 19.2758 1.41664 19.255L1.41664 19.2551ZM8.1298 24.8239C8.55315 24.7479 8.9835 24.716 9.41349 24.7289L14.3394 24.8738C16.2885 24.9309 18.2177 24.4693 19.9297 23.5358L27.5071 19.4067C27.747 19.2786 27.8578 18.9947 27.7678 18.7378C27.6776 18.4812 27.4137 18.3287 27.1462 18.3785L27.0586 18.3943L22.2267 20.0567L22.2268 20.057C22.2286 20.468 22.0579 20.8613 21.756 21.1405C21.4538 21.4197 21.0489 21.5593 20.639 21.5252L14.2602 21.0134C14.0075 20.9937 13.8182 20.7731 13.8375 20.5201C13.8571 20.2671 14.0778 20.0781 14.3307 20.0974L20.7155 20.6444C20.893 20.6591 21.0676 20.5912 21.1884 20.46C21.3234 20.3193 21.3762 20.1184 21.3277 19.9293L21.323 19.903C21.319 19.8858 21.3159 19.8683 21.3136 19.8505C21.2474 19.6758 21.0988 19.5452 20.9168 19.5017L15.5317 18.1337L15.5317 18.134C13.4872 17.6081 11.3177 17.9117 9.49596 18.9783L8.46135 19.5796C8.1023 19.788 7.70933 19.9321 7.30023 20.005L6.10604 20.2194L6.97027 25.0322L8.1298 24.8239ZM3.26853 27.0517L6.33104 26.5018L5.07397 19.5013L2.01145 20.0513L3.26853 27.0517Z"
        fill="#B5B5B5" stroke="#B5B5B5" stroke-width="0.5" />
    <path
        d="M14.9694 4.10976V4.80477C14.1255 4.90397 13.4802 5.67337 13.6045 6.54205C13.679 7.38595 14.4484 8.0065 15.2923 8.0065H15.739C16.1362 8.0065 16.4589 8.35401 16.4092 8.75121C16.3597 9.12346 16.037 9.37175 15.6895 9.37175H15.0937C14.8454 9.37175 14.6717 9.22285 14.6221 8.9995C14.6221 8.94998 14.5476 8.90028 14.4979 8.90028H13.8029C13.7284 8.90028 13.6787 8.97474 13.6787 9.04919C13.7284 9.7442 14.2993 10.2654 14.9943 10.3151V10.9853C14.9943 11.0598 15.044 11.1094 15.1185 11.1094L15.7388 11.1098C15.8133 11.1098 15.863 11.0601 15.863 10.9856V10.2906C16.6077 10.1665 17.2035 9.59566 17.2779 8.85096C17.3773 7.8829 16.6079 7.06378 15.6646 7.06378H15.1432C14.746 7.06378 14.4233 6.71627 14.473 6.31907C14.5225 5.97159 14.8452 5.7233 15.1927 5.7233H15.7885C16.0368 5.7233 16.2105 5.8722 16.2602 6.09556C16.2602 6.14508 16.3346 6.19477 16.3843 6.19477H17.0793C17.1538 6.19477 17.2035 6.12032 17.2035 6.04587C17.1538 5.35085 16.5829 4.82969 15.8879 4.77999V4.10976C15.8879 4.0353 15.8382 3.98561 15.7638 3.98561H15.0935C15.0191 3.98561 14.9694 4.0353 14.9694 4.10976Z"
        fill="#B5B5B5" stroke="#B5B5B5" stroke-width="0.2" />
    <path clip-rule="evenodd"
        d="M14.473 6.31907C14.517 6.01012 14.777 5.77958 15.0784 5.73226C15.0908 5.73031 15.1033 5.72867 15.1159 5.72735C15.1413 5.72467 15.1669 5.7233 15.1927 5.7233H15.7885C15.7993 5.7233 15.8099 5.72358 15.8204 5.72414C15.9972 5.73349 16.1329 5.82075 16.2083 5.95682C16.2236 5.98455 16.2365 6.01432 16.2467 6.04587C16.2519 6.06198 16.2564 6.07855 16.2602 6.09556C16.2602 6.10143 16.2612 6.1073 16.2631 6.1131C16.2658 6.12099 16.27 6.12874 16.2755 6.13613C16.2999 6.16902 16.3485 6.19477 16.3843 6.19477H17.0793C17.1369 6.19477 17.1797 6.15021 17.1961 6.09556C17.2009 6.07957 17.2035 6.06272 17.2035 6.04587C17.1997 5.99293 17.1929 5.94099 17.1832 5.8902C17.1619 5.77793 17.1266 5.67124 17.0793 5.57153C17.0655 5.54232 17.0506 5.51371 17.0347 5.48574C16.9813 5.39158 16.9168 5.30463 16.8429 5.22624C16.8328 5.21559 16.8226 5.2051 16.8122 5.19477C16.5922 4.97576 16.2968 4.82933 15.9694 4.78804C15.9424 4.78464 15.9153 4.78195 15.8879 4.77999V4.10976C15.8879 4.0353 15.8382 3.98561 15.7638 3.98561H15.0935C15.0191 3.98561 14.9694 4.0353 14.9694 4.10976V4.80477C14.942 4.80799 14.9148 4.81191 14.8879 4.81652C14.1976 4.93463 13.6573 5.50313 13.5951 6.19399C13.5946 6.19901 13.5942 6.20404 13.5938 6.20908C13.5852 6.31755 13.5883 6.42896 13.6045 6.54205C13.6745 7.33596 14.3597 7.9322 15.1432 8.00005C15.1926 8.00432 15.2423 8.0065 15.2923 8.0065H15.739C16.1362 8.0065 16.4589 8.35401 16.4092 8.75121C16.4088 8.75468 16.4083 8.75814 16.4078 8.76159C16.4077 8.76237 16.4075 8.76315 16.4074 8.76393C16.3565 9.10171 16.0794 9.33465 15.7663 9.36771C15.7476 9.36968 15.7287 9.37095 15.7098 9.37147C15.703 9.37166 15.6963 9.37175 15.6895 9.37175H15.0937C15.0829 9.37175 15.0723 9.37147 15.0618 9.37092C14.885 9.36157 14.7493 9.2743 14.6739 9.13824C14.6586 9.1105 14.6457 9.08073 14.6355 9.04919C14.6303 9.03308 14.6258 9.0165 14.6221 8.9995C14.6221 8.99363 14.621 8.98775 14.6191 8.98196C14.6048 8.93889 14.5417 8.90028 14.4979 8.90028H13.8029C13.7453 8.90028 13.7025 8.94485 13.6861 8.9995C13.6813 9.01548 13.6787 9.03234 13.6787 9.04919C13.6825 9.10213 13.6893 9.15406 13.699 9.20486C13.7203 9.31712 13.7556 9.42382 13.8029 9.52353C13.8167 9.55274 13.8316 9.58135 13.8475 9.60932C13.9009 9.70348 13.9655 9.79043 14.0394 9.86882C14.0494 9.87947 14.0596 9.88996 14.07 9.90028C14.2788 10.1081 14.5555 10.2506 14.863 10.2999C14.9062 10.3068 14.95 10.3119 14.9943 10.3151V10.9853C14.9943 10.9852 14.9943 10.9854 14.9943 10.9853C14.9945 11.0596 15.0441 11.1094 15.1185 11.1094L15.7388 11.1098C15.8133 11.1098 15.863 11.0601 15.863 10.9856V10.2906C15.9073 10.2832 15.9511 10.2743 15.9943 10.2638C16.6717 10.0992 17.2 9.55942 17.2763 8.86652C17.2765 8.86427 17.2768 8.86202 17.277 8.85977C17.2773 8.85684 17.2776 8.8539 17.2779 8.85096C17.354 8.11047 16.9216 7.45713 16.292 7.19087C16.1665 7.13783 16.0333 7.10015 15.8947 7.08021C15.8435 7.07284 15.7915 7.06789 15.739 7.06548C15.7143 7.06435 15.6895 7.06378 15.6646 7.06378H15.1432C14.7958 7.06378 14.5054 6.79796 14.4713 6.46556C14.4697 6.45 14.4686 6.43428 14.4682 6.41845C14.4673 6.3858 14.4688 6.35261 14.473 6.31907Z"
        fill="#B5B5B5" fill-rule="evenodd" />
    <path
        d="M14.9943 10.9853C14.9943 10.9854 14.9943 10.9852 14.9943 10.9853ZM14.9943 10.9853C14.9945 11.0596 15.0441 11.1094 15.1185 11.1094L15.7388 11.1098C15.8133 11.1098 15.863 11.0601 15.863 10.9856V10.2906C15.9073 10.2832 15.9511 10.2743 15.9943 10.2638C16.6717 10.0992 17.2 9.55942 17.2763 8.86652C17.2765 8.86427 17.2768 8.86202 17.277 8.85977C17.2773 8.85684 17.2776 8.8539 17.2779 8.85096C17.354 8.11047 16.9216 7.45713 16.292 7.19087C16.1665 7.13783 16.0333 7.10015 15.8947 7.08021C15.8435 7.07284 15.7915 7.06789 15.739 7.06548C15.7143 7.06435 15.6895 7.06378 15.6646 7.06378H15.1432C14.7958 7.06378 14.5054 6.79796 14.4713 6.46556C14.4697 6.45 14.4686 6.43428 14.4682 6.41845C14.4673 6.3858 14.4688 6.35261 14.473 6.31907C14.517 6.01012 14.777 5.77958 15.0784 5.73226C15.0908 5.73031 15.1033 5.72867 15.1159 5.72735C15.1413 5.72467 15.1669 5.7233 15.1927 5.7233H15.7885C15.7993 5.7233 15.8099 5.72358 15.8204 5.72414C15.9972 5.73349 16.1329 5.82075 16.2083 5.95682C16.2236 5.98455 16.2365 6.01432 16.2467 6.04587C16.2519 6.06198 16.2564 6.07855 16.2602 6.09556C16.2602 6.10143 16.2612 6.1073 16.2631 6.1131C16.2658 6.12099 16.27 6.12874 16.2755 6.13613C16.2999 6.16902 16.3485 6.19477 16.3843 6.19477H17.0793C17.1369 6.19477 17.1797 6.15021 17.1961 6.09556C17.2009 6.07957 17.2035 6.06272 17.2035 6.04587C17.1997 5.99293 17.1929 5.94099 17.1832 5.8902C17.1619 5.77793 17.1266 5.67124 17.0793 5.57153C17.0655 5.54232 17.0506 5.51371 17.0347 5.48574C16.9813 5.39158 16.9168 5.30463 16.8429 5.22624C16.8328 5.21559 16.8226 5.2051 16.8122 5.19477C16.5922 4.97576 16.2968 4.82933 15.9694 4.78804C15.9424 4.78464 15.9153 4.78195 15.8879 4.77999V4.10976C15.8879 4.0353 15.8382 3.98561 15.7638 3.98561H15.0935C15.0191 3.98561 14.9694 4.0353 14.9694 4.10976V4.80477C14.942 4.80799 14.9148 4.81191 14.8879 4.81652C14.1976 4.93463 13.6573 5.50313 13.5951 6.19399C13.5946 6.19901 13.5942 6.20404 13.5938 6.20908C13.5852 6.31755 13.5883 6.42896 13.6045 6.54205C13.6745 7.33596 14.3597 7.9322 15.1432 8.00005C15.1926 8.00432 15.2423 8.0065 15.2923 8.0065H15.739C16.1362 8.0065 16.4589 8.35401 16.4092 8.75121C16.4088 8.75468 16.4083 8.75814 16.4078 8.76159C16.4077 8.76237 16.4075 8.76315 16.4074 8.76393C16.3565 9.10171 16.0794 9.33465 15.7663 9.36771C15.7476 9.36968 15.7287 9.37095 15.7098 9.37147C15.703 9.37166 15.6963 9.37175 15.6895 9.37175H15.0937C15.0829 9.37175 15.0723 9.37147 15.0618 9.37092C14.885 9.36157 14.7493 9.2743 14.6739 9.13824C14.6586 9.1105 14.6457 9.08073 14.6355 9.04919C14.6303 9.03308 14.6258 9.0165 14.6221 8.9995C14.6221 8.99363 14.621 8.98775 14.6191 8.98196C14.6048 8.93889 14.5417 8.90028 14.4979 8.90028H13.8029C13.7453 8.90028 13.7025 8.94485 13.6861 8.9995C13.6813 9.01548 13.6787 9.03234 13.6787 9.04919C13.6825 9.10213 13.6893 9.15406 13.699 9.20486C13.7203 9.31712 13.7556 9.42382 13.8029 9.52353C13.8167 9.55274 13.8316 9.58135 13.8475 9.60932C13.9009 9.70348 13.9655 9.79043 14.0394 9.86882C14.0494 9.87947 14.0596 9.88996 14.07 9.90028C14.2788 10.1081 14.5555 10.2506 14.863 10.2999C14.9062 10.3068 14.95 10.3119 14.9943 10.3151V10.9853Z"
        stroke="#B5B5B5" stroke-width="0.4" />
    <path clip-rule="evenodd"
        d="M9.94545 7.49988C9.94545 10.5676 12.4323 13.0544 15.5 13.0544C18.5677 13.0544 21.0545 10.5676 21.0545 7.49988C21.0545 4.43219 18.5677 1.94533 15.5 1.94533C12.4323 1.94533 9.94545 4.43219 9.94545 7.49988ZM15.5 0.999878C11.9101 0.999878 9 3.91003 9 7.49988C9 11.0897 11.9101 13.9999 15.5 13.9999C19.0899 13.9999 22 11.0897 22 7.49988C22 3.91003 19.0899 0.999878 15.5 0.999878Z"
        fill="#B5B5B5" fill-rule="evenodd" stroke="#B5B5B5" stroke-width="0.4" />
</svg>
