<svg width="25" height="24" viewBox="0 0 25 24" fill="none" xmlns="http://www.w3.org/2000/svg">
<path d="M11.7667 0C9.22065 0 6.77886 1.01142 4.97851 2.81177C3.17817 4.61211 2.16675 7.0539 2.16675 9.59997C2.16675 16.0799 10.6267 23.3999 10.9867 23.7119C11.2041 23.8978 11.4807 24 11.7667 24C12.0527 24 12.3294 23.8978 12.5467 23.7119C12.9667 23.3999 21.3667 16.0799 21.3667 9.59997C21.3667 7.0539 20.3553 4.61211 18.5549 2.81177C16.7546 1.01142 14.3128 0 11.7667 0ZM11.7667 21.1799C9.21073 18.7799 4.56674 13.608 4.56674 9.59997C4.56674 7.69042 5.32531 5.85907 6.67556 4.50882C8.02582 3.15856 9.85716 2.39999 11.7667 2.39999C13.6763 2.39999 15.5076 3.15856 16.8579 4.50882C18.2081 5.85907 18.9667 7.69042 18.9667 9.59997C18.9667 13.608 14.3227 18.7919 11.7667 21.1799ZM11.7667 4.79998C10.8174 4.79998 9.88934 5.0815 9.09999 5.60893C8.31064 6.13636 7.69541 6.88601 7.33211 7.76309C6.96881 8.64018 6.87375 9.60529 7.05896 10.5364C7.24417 11.4675 7.70133 12.3228 8.37262 12.9941C9.04391 13.6654 9.89918 14.1225 10.8303 14.3077C11.7614 14.4929 12.7265 14.3979 13.6036 14.0346C14.4807 13.6713 15.2303 13.0561 15.7578 12.2667C16.2852 11.4773 16.5667 10.5493 16.5667 9.59997C16.5667 8.32693 16.061 7.10604 15.1608 6.20587C14.2606 5.3057 13.0398 4.79998 11.7667 4.79998ZM11.7667 12C11.292 12 10.828 11.8592 10.4334 11.5955C10.0387 11.3318 9.73106 10.9569 9.54941 10.5184C9.36776 10.0799 9.32024 9.59731 9.41284 9.13175C9.50544 8.6662 9.73402 8.23856 10.0697 7.90292C10.4053 7.56727 10.8329 7.3387 11.2985 7.24609C11.7641 7.15349 12.2466 7.20102 12.6852 7.38267C13.1237 7.56431 13.4985 7.87193 13.7622 8.26661C14.026 8.66128 14.1667 9.1253 14.1667 9.59997C14.1667 10.2365 13.9139 10.8469 13.4638 11.297C13.0137 11.7471 12.4032 12 11.7667 12Z" fill="#0E3D94"/>
</svg>
