<svg width="24" height="24" viewBox="0 0 24 24" fill="none" xmlns="http://www.w3.org/2000/svg">
<g clip-path="url(#clip0_996_25069)">
<path d="M22.8283 9.17116L18.9493 5.29216C18.7607 5.11001 18.5081 5.00921 18.2459 5.01149C17.9837 5.01377 17.7329 5.11894 17.5475 5.30435C17.3621 5.48975 17.2569 5.74057 17.2546 6.00276C17.2523 6.26496 17.3531 6.51756 17.5353 6.70616L21.4143 10.5852C21.5295 10.7027 21.6302 10.8336 21.7143 10.9752C21.6993 10.9752 21.6873 10.9672 21.6723 10.9672L5.98828 10.9992C5.72306 10.9992 5.46871 11.1045 5.28117 11.2921C5.09364 11.4796 4.98828 11.7339 4.98828 11.9992C4.98828 12.2644 5.09364 12.5187 5.28117 12.7063C5.46871 12.8938 5.72306 12.9992 5.98828 12.9992L21.6663 12.9672C21.6943 12.9672 21.7173 12.9532 21.7443 12.9512C21.6556 13.1203 21.5431 13.2759 21.4103 13.4132L17.5313 17.2922C17.4358 17.3844 17.3596 17.4948 17.3072 17.6168C17.2548 17.7388 17.2272 17.87 17.226 18.0028C17.2249 18.1355 17.2502 18.2672 17.3005 18.3901C17.3507 18.513 17.425 18.6247 17.5189 18.7186C17.6128 18.8125 17.7244 18.8867 17.8473 18.937C17.9702 18.9873 18.1019 19.0126 18.2347 19.0114C18.3675 19.0103 18.4987 18.9827 18.6207 18.9303C18.7427 18.8779 18.853 18.8017 18.9453 18.7062L22.8243 14.8272C23.5742 14.0771 23.9954 13.0598 23.9954 11.9992C23.9954 10.9385 23.5742 9.92127 22.8243 9.17116H22.8283Z" fill="#8B8B8B"/>
<path d="M12 22H5C4.20435 22 3.44129 21.6839 2.87868 21.1213C2.31607 20.5587 2 19.7956 2 19V5C2 4.20435 2.31607 3.44129 2.87868 2.87868C3.44129 2.31607 4.20435 2 5 2H12C12.2652 2 12.5196 1.89464 12.7071 1.70711C12.8946 1.51957 13 1.26522 13 1C13 0.734784 12.8946 0.48043 12.7071 0.292893C12.5196 0.105357 12.2652 0 12 0L5 0C3.67441 0.00158786 2.40356 0.528882 1.46622 1.46622C0.528882 2.40356 0.00158786 3.67441 0 5L0 19C0.00158786 20.3256 0.528882 21.5964 1.46622 22.5338C2.40356 23.4711 3.67441 23.9984 5 24H12C12.2652 24 12.5196 23.8946 12.7071 23.7071C12.8946 23.5196 13 23.2652 13 23C13 22.7348 12.8946 22.4804 12.7071 22.2929C12.5196 22.1054 12.2652 22 12 22Z" fill="#8B8B8B"/>
</g>
<defs>
<clipPath id="clip0_996_25069">
<rect width="24" height="24" fill="white"/>
</clipPath>
</defs>
</svg>
