<svg width="16" height="16" viewBox="0 0 16 16" fill="none" xmlns="http://www.w3.org/2000/svg">
<path d="M15.6899 9.8168C15.5519 9.64912 15.3748 9.51791 15.1741 9.43468C14.9735 9.35145 14.7555 9.31876 14.5393 9.33947C13.3777 9.4313 12.2503 9.7759 11.2358 10.3492C10.2214 10.9224 9.34454 11.7105 8.66662 12.6581V9.27347C9.59764 9.11529 10.4428 8.63312 11.0528 7.91216C11.6627 7.19119 11.9982 6.27784 11.9999 5.33347C11.9999 3.47147 10.7046 1.8988 9.43728 0.606137C9.05304 0.230701 8.53716 0.0205078 7.99995 0.0205078C7.46274 0.0205078 6.94686 0.230701 6.56262 0.606137C5.29528 1.8988 3.99995 3.47147 3.99995 5.33347C4.0017 6.27784 4.33719 7.19119 4.94715 7.91216C5.5571 8.63312 6.40226 9.11529 7.33328 9.27347V12.6581C6.65536 11.7105 5.77849 10.9224 4.76407 10.3492C3.74965 9.7759 2.62218 9.4313 1.46062 9.33947C1.24441 9.31888 1.02645 9.35162 0.82584 9.43484C0.62523 9.51806 0.448092 9.64921 0.30995 9.8168C0.172692 9.97977 0.0771226 10.1737 0.0314797 10.3818C-0.0141633 10.5899 -0.0085109 10.806 0.0479496 11.0115C1.40728 15.9035 7.72728 16.0001 7.99595 16.0001H8.00395C8.27062 16.0001 14.5933 15.9035 15.9526 11.0115C16.0088 10.8059 16.0142 10.5899 15.9684 10.3818C15.9227 10.1737 15.8271 9.97983 15.6899 9.8168ZM5.33328 5.33347C5.33328 3.56414 7.54528 1.5208 7.55862 1.50947C7.31528 2.13347 5.79528 5.93347 7.33328 6.00014C7.51009 6.00014 7.67966 5.9299 7.80469 5.80487C7.92971 5.67985 7.99995 5.51028 7.99995 5.33347C8.05027 4.14776 8.3351 2.98378 8.83795 1.9088C9.79195 2.9288 10.6666 4.1028 10.6666 5.33347C10.6666 6.04071 10.3857 6.71899 9.88557 7.21909C9.38547 7.71919 8.70719 8.00014 7.99995 8.00014C7.29271 8.00014 6.61443 7.71919 6.11433 7.21909C5.61423 6.71899 5.33328 6.04071 5.33328 5.33347ZM1.33728 10.6668C2.53844 10.7641 3.69263 11.1768 4.68318 11.8631C5.67374 12.5494 6.46556 13.485 6.97862 14.5755C5.31395 14.3448 2.13328 13.5335 1.33728 10.6668ZM9.02995 14.5741C9.54719 13.4868 10.3392 12.5532 11.3278 11.8657C12.3164 11.1782 13.4672 10.7606 14.6666 10.6541C13.8706 13.5221 10.6973 14.3408 9.02995 14.5741Z" fill="#BDBDBD"/>
</svg>
