<svg width="40" height="40" viewBox="0 0 40 40" fill="none" xmlns="http://www.w3.org/2000/svg">
<rect width="40" height="40" rx="20" fill="white"/>
<path d="M21.3334 21.3332C21.3334 21.1491 21.1842 20.9999 21.0001 20.9999C20.816 20.9999 20.6667 21.1491 20.6667 21.3332C20.6667 22.0696 21.2637 22.6665 22.0001 22.6665V22.9999C22.0001 23.184 22.1493 23.3332 22.3334 23.3332C22.5175 23.3332 22.6667 23.184 22.6667 22.9999V22.6665C23.4031 22.6665 24.0001 22.0696 24.0001 21.3332C24.0001 20.5968 23.4031 19.9999 22.6667 19.9999V18.6665C23.0349 18.6665 23.3334 18.965 23.3334 19.3332C23.3334 19.5173 23.4827 19.6665 23.6667 19.6665C23.8508 19.6665 24.0001 19.5173 24.0001 19.3332C24.0001 18.5968 23.4031 17.9999 22.6667 17.9999V17.6665C22.6667 17.4824 22.5175 17.3332 22.3334 17.3332C22.1493 17.3332 22.0001 17.4824 22.0001 17.6665V17.9999C21.2637 17.9999 20.6667 18.5968 20.6667 19.3332C20.6667 20.0696 21.2637 20.6665 22.0001 20.6665V21.9999C21.6319 21.9999 21.3334 21.7014 21.3334 21.3332ZM21.3334 19.3332C21.3334 18.965 21.6319 18.6665 22.0001 18.6665V19.9999C21.6319 19.9999 21.3334 19.7014 21.3334 19.3332ZM22.6667 20.6665C23.0349 20.6665 23.3334 20.965 23.3334 21.3332C23.3334 21.7014 23.0349 21.9999 22.6667 21.9999V20.6665Z" fill="#818285" stroke="#818285" stroke-width="0.3"/>
<path d="M29.7213 21.2569C28.9 17.7666 27.074 15.7443 25.7553 14.6879C27.409 14.8126 27.9413 15.5006 27.957 15.5213C28.0614 15.6704 28.2661 15.7081 28.4169 15.6061C28.5676 15.504 28.6086 15.3 28.509 15.1476C28.485 15.1116 28.022 14.4503 26.6757 14.1476C27.0199 13.8646 27.2236 13.4455 27.2333 12.9999C27.1888 12.2613 26.6745 11.6349 25.9587 11.4473C25.988 11.2065 26.0029 10.9642 26.0033 10.7216C26.003 10.4981 25.8907 10.2897 25.7043 10.1665C25.5178 10.0433 25.2821 10.0217 25.0763 10.1089C24.908 10.1851 24.7517 10.2854 24.6123 10.4066C24.4488 10.5747 24.2236 10.6686 23.989 10.6666C23.7548 10.6683 23.5301 10.5744 23.3667 10.4066C22.7792 9.86406 21.8735 9.86406 21.286 10.4066C21.1224 10.5751 20.8968 10.6691 20.662 10.6666C20.4279 10.6686 20.2031 10.5746 20.04 10.4066C19.901 10.2857 19.7451 10.1855 19.5773 10.1093C19.3717 10.0226 19.1364 10.0445 18.9504 10.1676C18.7643 10.2908 18.6522 10.4988 18.6517 10.7219C18.6517 11.5513 18.8157 13.0306 19.854 14.0239C19.3083 14.3558 18.7987 14.7435 18.3333 15.1809V12.6666C18.3333 11.9066 17.2583 11.3333 15.8333 11.3333C14.4083 11.3333 13.3333 11.9066 13.3333 12.6666V16.0249C12.1643 16.1416 11.3333 16.6666 11.3333 17.3333V25.8116C10.528 26.0279 10 26.4666 10 26.9999V28.6666C10 29.4266 11.075 29.9999 12.5 29.9999C13.7743 29.9999 14.7667 29.5409 14.9623 28.8999C15.5377 29.2046 16.1826 29.354 16.8333 29.3333C18.2583 29.3333 19.3333 28.7599 19.3333 27.9999V23.6666C19.3333 22.9066 18.2583 22.3333 16.8333 22.3333C16.6664 22.3332 16.4995 22.3415 16.3333 22.3583V17.3333C16.3333 16.6033 15.341 16.0473 14 16.0043V13.5896C14.5671 13.8778 15.1975 14.0189 15.8333 13.9999C16.4692 14.0189 17.0996 13.8778 17.6667 13.5896V15.8629C17.447 16.1086 17.2263 16.3763 17.0087 16.6729C16.909 16.8214 16.9442 17.022 17.0884 17.1277C17.2326 17.2333 17.4345 17.2064 17.546 17.0666C17.7601 16.7768 17.9895 16.4986 18.2333 16.2333C18.236 16.2303 18.2383 16.2273 18.241 16.2246C18.8773 15.5174 19.6245 14.9186 20.4533 14.4516C20.6167 14.5304 20.7896 14.5879 20.9677 14.6226L20.1083 15.4246C19.9738 15.5503 19.9666 15.7614 20.0923 15.8959C20.2181 16.0305 20.4291 16.0377 20.5637 15.9119L21.897 14.6683H22.0033V15.6683C22.0033 15.8524 22.1526 16.0016 22.3367 16.0016C22.5208 16.0016 22.67 15.8524 22.67 15.6683V14.6666H22.7763L24.1097 15.9103C24.1967 15.9916 24.3206 16.0203 24.4345 15.9856C24.5485 15.9509 24.6353 15.858 24.6622 15.7419C24.6891 15.6259 24.6521 15.5043 24.565 15.4229L23.7 14.6176C23.877 14.5826 24.0487 14.5249 24.211 14.4459C25.092 14.9226 27.988 16.8059 29.0727 21.4096C29.5443 23.4136 29.3743 24.9466 28.5677 25.9649C27.5357 27.2666 25.745 27.3333 25.3967 27.3333H20.6667C20.4826 27.3333 20.3333 27.4825 20.3333 27.6666C20.3333 27.8507 20.4826 27.9999 20.6667 27.9999H25.3967C25.9633 27.9999 27.8983 27.8829 29.09 26.3789C30.0293 25.1926 30.242 23.4693 29.7213 21.2569ZM12.5 26.3333C13.6023 26.3333 14.3333 26.7333 14.3333 26.9999C14.3333 27.2666 13.6023 27.6666 12.5 27.6666C11.3977 27.6666 10.6667 27.2666 10.6667 26.9999C10.6667 26.7333 11.3977 26.3333 12.5 26.3333ZM12.5 29.3333C11.3977 29.3333 10.6667 28.9333 10.6667 28.6666V27.9229C11.2337 28.2112 11.8642 28.3523 12.5 28.3333C13.1358 28.3523 13.7663 28.2112 14.3333 27.9229V28.6666C14.3333 28.9333 13.6023 29.3333 12.5 29.3333ZM16.8333 28.6666C15.731 28.6666 15 28.2666 15 27.9999V24.5896C15.5671 24.8778 16.1975 25.0189 16.8333 24.9999C17.4692 25.0189 18.0996 24.8778 18.6667 24.5896V27.9999C18.6667 28.2666 17.9357 28.6666 16.8333 28.6666ZM18.6667 23.6666C18.6667 23.9333 17.9357 24.3333 16.8333 24.3333C15.731 24.3333 15 23.9333 15 23.6666C15 23.3999 15.731 22.9999 16.8333 22.9999C17.9357 22.9999 18.6667 23.3999 18.6667 23.6666ZM14.3333 23.6666V26.0769C13.7663 25.7887 13.1358 25.6476 12.5 25.6666C12.333 25.6665 12.1661 25.6748 12 25.6916V18.2563C12.5671 18.5445 13.1975 18.6856 13.8333 18.6666C14.4692 18.6856 15.0996 18.5445 15.6667 18.2563V22.4783C14.8613 22.6946 14.3333 23.1333 14.3333 23.6666ZM15.6667 17.3333C15.6667 17.5999 14.9357 17.9999 13.8333 17.9999C12.731 17.9999 12 17.5999 12 17.3333C12 17.0666 12.731 16.6666 13.8333 16.6666C14.9357 16.6666 15.6667 17.0666 15.6667 17.3333ZM15.8333 13.3333C14.731 13.3333 14 12.9333 14 12.6666C14 12.3999 14.731 11.9999 15.8333 11.9999C16.9357 11.9999 17.6667 12.3999 17.6667 12.6666C17.6667 12.9333 16.9357 13.3333 15.8333 13.3333ZM26.5667 12.9999C26.5667 13.5463 25.975 13.9946 25.2333 13.9999C25.1093 13.9992 24.9857 13.985 24.8647 13.9576C25.3485 13.4415 25.6847 12.8048 25.8383 12.1143C26.2396 12.2325 26.5282 12.5834 26.5667 12.9999ZM19.6227 10.9266C19.9042 11.1904 20.2762 11.336 20.662 11.3333C21.048 11.3362 21.4203 11.1906 21.702 10.9266C21.8668 10.7603 22.0912 10.6667 22.3253 10.6667C22.5595 10.6667 22.7839 10.7603 22.9487 10.9266C23.2303 11.1908 23.6029 11.3364 23.989 11.3333C24.3751 11.3363 24.7476 11.1907 25.0293 10.9266C25.1217 10.845 25.2245 10.7759 25.335 10.7213C25.335 11.3403 25.22 12.8706 24.146 13.7096C23.9044 13.8911 23.6115 13.9913 23.3093 13.9959C23.5979 13.5003 23.8263 12.972 23.9897 12.4223C24.0216 12.3075 23.9898 12.1844 23.9064 12.0993C23.8229 12.0143 23.7004 11.9802 23.585 12.01C23.4697 12.0398 23.3789 12.1288 23.347 12.2436C23.1624 12.8702 22.8786 13.4632 22.5063 13.9999H22.1637C21.7922 13.4627 21.5083 12.8699 21.3227 12.2436C21.2732 12.0662 21.0894 11.9625 20.912 12.0119C20.7346 12.0614 20.6309 12.2452 20.6803 12.4226C20.8439 12.9728 21.0725 13.5016 21.3613 13.9976C21.0531 13.996 20.7537 13.8952 20.5073 13.7099C19.4333 12.8713 19.3183 11.3409 19.3183 10.7239C19.4288 10.7769 19.5312 10.8451 19.6227 10.9266Z" fill="#818285" stroke="#818285" stroke-width="0.3"/>
</svg>
