<svg width="16" height="17" viewBox="0 0 16 17" fill="none" xmlns="http://www.w3.org/2000/svg">
<path d="M15.8046 10.1962C15.6795 10.0712 15.51 10.001 15.3332 10.001C15.1564 10.001 14.9869 10.0712 14.8619 10.1962L12.9999 12.0582L11.1379 10.1962C11.0122 10.0747 10.8438 10.0075 10.669 10.0091C10.4942 10.0106 10.327 10.0807 10.2033 10.2043C10.0797 10.3279 10.0096 10.4951 10.0081 10.6699C10.0066 10.8447 10.0738 11.0131 10.1952 11.1388L12.0572 13.0008L10.1952 14.8628C10.1316 14.9243 10.0808 14.9979 10.0458 15.0792C10.0109 15.1606 9.99249 15.248 9.99172 15.3366C9.99096 15.4251 10.0078 15.5129 10.0413 15.5948C10.0749 15.6767 10.1244 15.7512 10.187 15.8138C10.2496 15.8764 10.324 15.9259 10.4059 15.9594C10.4879 15.9929 10.5756 16.0098 10.6642 16.009C10.7527 16.0082 10.8402 15.9898 10.9215 15.9549C11.0028 15.92 11.0764 15.8692 11.1379 15.8055L12.9999 13.9435L14.8619 15.8055C14.9876 15.9269 15.156 15.9941 15.3308 15.9926C15.5056 15.9911 15.6728 15.921 15.7964 15.7974C15.92 15.6738 15.9901 15.5066 15.9917 15.3318C15.9932 15.157 15.926 14.9886 15.8046 14.8628L13.9426 13.0008L15.8046 11.1388C15.9295 11.0138 15.9997 10.8443 15.9997 10.6675C15.9997 10.4907 15.9295 10.3212 15.8046 10.1962Z" fill="#BDBDBD"/>
<path d="M8 14.6667C6.68146 14.6667 5.39253 14.2757 4.2962 13.5431C3.19987 12.8106 2.34539 11.7694 1.84081 10.5512C1.33622 9.33305 1.2042 7.99261 1.46144 6.6994C1.71867 5.4062 2.35361 4.21831 3.28596 3.28596C4.21831 2.35361 5.4062 1.71867 6.6994 1.46144C7.99261 1.2042 9.33305 1.33622 10.5512 1.84081C11.7694 2.34539 12.8106 3.19987 13.5431 4.2962C14.2757 5.39253 14.6667 6.68146 14.6667 8C14.6667 8.17682 14.7369 8.34638 14.8619 8.47141C14.987 8.59643 15.1565 8.66667 15.3333 8.66667C15.5101 8.66667 15.6797 8.59643 15.8047 8.47141C15.9298 8.34638 16 8.17682 16 8C16 6.41775 15.5308 4.87104 14.6518 3.55544C13.7727 2.23985 12.5233 1.21447 11.0615 0.608967C9.59966 0.00346629 7.99113 -0.15496 6.43928 0.153721C4.88743 0.462403 3.46197 1.22433 2.34315 2.34315C1.22433 3.46197 0.462403 4.88743 0.153721 6.43928C-0.15496 7.99113 0.00346629 9.59966 0.608967 11.0615C1.21447 12.5233 2.23985 13.7727 3.55544 14.6518C4.87104 15.5308 6.41775 16 8 16C8.17682 16 8.34638 15.9298 8.47141 15.8047C8.59643 15.6797 8.66667 15.5101 8.66667 15.3333C8.66667 15.1565 8.59643 14.987 8.47141 14.8619C8.34638 14.7369 8.17682 14.6667 8 14.6667Z" fill="#BDBDBD"/>
<path d="M8.00005 4C7.82324 4 7.65367 4.07024 7.52864 4.19526C7.40362 4.32029 7.33338 4.48986 7.33338 4.66667V7.724L5.52872 9.52866C5.46505 9.59016 5.41426 9.66372 5.37932 9.74506C5.34438 9.82639 5.32599 9.91387 5.32522 10.0024C5.32445 10.0909 5.34132 10.1787 5.37484 10.2606C5.40836 10.3426 5.45786 10.417 5.52046 10.4796C5.58305 10.5422 5.65749 10.5917 5.73942 10.6252C5.82135 10.6587 5.90913 10.6756 5.99765 10.6748C6.08617 10.6741 6.17365 10.6557 6.25499 10.6207C6.33632 10.5858 6.40989 10.535 6.47138 10.4713L8.47138 8.47133C8.59641 8.34633 8.66667 8.17679 8.66671 7.99999V4.66667C8.66671 4.48986 8.59647 4.32029 8.47145 4.19526C8.34643 4.07024 8.17686 4 8.00005 4Z" fill="#BDBDBD"/>
</svg>
