<svg width="40" height="40" viewBox="0 0 40 40" fill="none" xmlns="http://www.w3.org/2000/svg">
<g clip-path="url(#clip0_3287_8791)">
<path d="M31.6667 1.66602H8.33333C6.12401 1.66866 4.00593 2.54749 2.4437 4.10972C0.88147 5.67195 0.00264643 7.79002 0 9.99935L0 29.9993C0.00264643 32.2087 0.88147 34.3268 2.4437 35.889C4.00593 37.4512 6.12401 38.33 8.33333 38.3327H31.6667C33.876 38.33 35.9941 37.4512 37.5563 35.889C39.1185 34.3268 39.9974 32.2087 40 29.9993V9.99935C39.9974 7.79002 39.1185 5.67195 37.5563 4.10972C35.9941 2.54749 33.876 1.66866 31.6667 1.66602ZM8.33333 4.99935H31.6667C32.6646 5.00131 33.6392 5.30187 34.4649 5.86236C35.2906 6.42284 35.9298 7.21759 36.3 8.14435L23.5367 20.9093C22.5974 21.8449 21.3257 22.3701 20 22.3701C18.6743 22.3701 17.4026 21.8449 16.4633 20.9093L3.7 8.14435C4.07025 7.21759 4.70936 6.42284 5.53508 5.86236C6.3608 5.30187 7.33536 5.00131 8.33333 4.99935ZM31.6667 34.9993H8.33333C7.00725 34.9993 5.73548 34.4726 4.7978 33.5349C3.86012 32.5972 3.33333 31.3254 3.33333 29.9993V12.4993L14.1067 23.266C15.671 24.8264 17.7904 25.7027 20 25.7027C22.2096 25.7027 24.329 24.8264 25.8933 23.266L36.6667 12.4993V29.9993C36.6667 31.3254 36.1399 32.5972 35.2022 33.5349C34.2645 34.4726 32.9927 34.9993 31.6667 34.9993Z" fill="#101010"/>
</g>
<defs>
<clipPath id="clip0_3287_8791">
<rect width="40" height="40" fill="white"/>
</clipPath>
</defs>
</svg>
