<svg width="24" height="24" viewBox="0 0 24 24" fill="none" xmlns="http://www.w3.org/2000/svg">
<path d="M14.9996 17.0006C14.9996 17.2658 14.8942 17.5201 14.7067 17.7077C14.5192 17.8952 14.2648 18.0006 13.9996 18.0006H9.99959C9.73438 18.0006 9.48002 17.8952 9.29249 17.7077C9.10495 17.5201 8.99959 17.2658 8.99959 17.0006C8.99959 16.7353 9.10495 16.481 9.29249 16.2934C9.48002 16.1059 9.73438 16.0006 9.99959 16.0006H13.9996C14.2648 16.0006 14.5192 16.1059 14.7067 16.2934C14.8942 16.481 14.9996 16.7353 14.9996 17.0006ZM14.7066 7.29357C14.5191 7.1061 14.2648 7.00078 13.9996 7.00078C13.7344 7.00078 13.4801 7.1061 13.2926 7.29357L11.9996 8.58657L10.7066 7.29357C10.6143 7.19806 10.504 7.12188 10.382 7.06947C10.26 7.01706 10.1288 6.98947 9.99599 6.98832C9.86321 6.98717 9.73153 7.01247 9.60864 7.06275C9.48574 7.11303 9.37409 7.18728 9.2802 7.28117C9.18631 7.37507 9.11205 7.48672 9.06177 7.60961C9.01149 7.73251 8.98619 7.86419 8.98734 7.99697C8.9885 8.12975 9.01608 8.26097 9.06849 8.38297C9.1209 8.50498 9.19708 8.61532 9.29259 8.70757L10.5856 10.0006L9.29259 11.2936C9.19708 11.3858 9.1209 11.4962 9.06849 11.6182C9.01608 11.7402 8.9885 11.8714 8.98734 12.0042C8.98619 12.1369 9.01149 12.2686 9.06177 12.3915C9.11205 12.5144 9.18631 12.6261 9.2802 12.72C9.37409 12.8138 9.48574 12.8881 9.60864 12.9384C9.73153 12.9887 9.86321 13.014 9.99599 13.0128C10.1288 13.0117 10.26 12.9841 10.382 12.9317C10.504 12.8793 10.6143 12.8031 10.7066 12.7076L11.9996 11.4146L13.2926 12.7076C13.4812 12.8897 13.7338 12.9905 13.996 12.9882C14.2582 12.986 14.509 12.8808 14.6944 12.6954C14.8798 12.51 14.985 12.2592 14.9873 11.997C14.9895 11.7348 14.8888 11.4822 14.7066 11.2936L13.4136 10.0006L14.7066 8.70757C14.8941 8.52004 14.9994 8.26573 14.9994 8.00057C14.9994 7.7354 14.8941 7.4811 14.7066 7.29357ZM21.9996 16.0006H17.9996C17.7344 16.0006 17.48 16.1059 17.2925 16.2934C17.1049 16.481 16.9996 16.7353 16.9996 17.0006C16.9996 17.2658 17.1049 17.5201 17.2925 17.7077C17.48 17.8952 17.7344 18.0006 17.9996 18.0006H21.9996C22.2648 18.0006 22.5192 17.8952 22.7067 17.7077C22.8942 17.5201 22.9996 17.2658 22.9996 17.0006C22.9996 16.7353 22.8942 16.481 22.7067 16.2934C22.5192 16.1059 22.2648 16.0006 21.9996 16.0006ZM21.4136 10.0006L22.7066 8.70757C22.8021 8.61532 22.8783 8.50498 22.9307 8.38297C22.9831 8.26097 23.0107 8.12975 23.0118 7.99697C23.013 7.86419 22.9877 7.73251 22.9374 7.60961C22.8871 7.48672 22.8129 7.37507 22.719 7.28117C22.6251 7.18728 22.5134 7.11303 22.3905 7.06275C22.2677 7.01247 22.136 6.98717 22.0032 6.98832C21.8704 6.98947 21.7392 7.01706 21.6172 7.06947C21.4952 7.12188 21.3848 7.19806 21.2926 7.29357L19.9996 8.58657L18.7066 7.29357C18.6143 7.19806 18.504 7.12188 18.382 7.06947C18.26 7.01706 18.1288 6.98947 17.996 6.98832C17.8632 6.98717 17.7315 7.01247 17.6086 7.06275C17.4857 7.11303 17.3741 7.18728 17.2802 7.28117C17.1863 7.37507 17.1121 7.48672 17.0618 7.60961C17.0115 7.73251 16.9862 7.86419 16.9873 7.99697C16.9885 8.12975 17.0161 8.26097 17.0685 8.38297C17.1209 8.50498 17.1971 8.61532 17.2926 8.70757L18.5856 10.0006L17.2926 11.2936C17.1971 11.3858 17.1209 11.4962 17.0685 11.6182C17.0161 11.7402 16.9885 11.8714 16.9873 12.0042C16.9862 12.1369 17.0115 12.2686 17.0618 12.3915C17.1121 12.5144 17.1863 12.6261 17.2802 12.72C17.3741 12.8138 17.4857 12.8881 17.6086 12.9384C17.7315 12.9887 17.8632 13.014 17.996 13.0128C18.1288 13.0117 18.26 12.9841 18.382 12.9317C18.504 12.8793 18.6143 12.8031 18.7066 12.7076L19.9996 11.4146L21.2926 12.7076C21.4812 12.8897 21.7338 12.9905 21.996 12.9882C22.2582 12.986 22.509 12.8808 22.6944 12.6954C22.8798 12.51 22.985 12.2592 22.9873 11.997C22.9895 11.7348 22.8888 11.4822 22.7066 11.2936L21.4136 10.0006ZM5.99959 16.0006H1.99959C1.73438 16.0006 1.48002 16.1059 1.29249 16.2934C1.10495 16.481 0.999593 16.7353 0.999593 17.0006C0.999593 17.2658 1.10495 17.5201 1.29249 17.7077C1.48002 17.8952 1.73438 18.0006 1.99959 18.0006H5.99959C6.26481 18.0006 6.51916 17.8952 6.7067 17.7077C6.89424 17.5201 6.99959 17.2658 6.99959 17.0006C6.99959 16.7353 6.89424 16.481 6.7067 16.2934C6.51916 16.1059 6.26481 16.0006 5.99959 16.0006ZM6.70659 7.29357C6.51906 7.1061 6.26476 7.00078 5.99959 7.00078C5.73443 7.00078 5.48012 7.1061 5.29259 7.29357L3.99959 8.58657L2.70659 7.29357C2.61435 7.19806 2.504 7.12188 2.382 7.06947C2.25999 7.01706 2.12877 6.98947 1.99599 6.98832C1.86321 6.98717 1.73154 7.01247 1.60864 7.06275C1.48574 7.11303 1.37409 7.18728 1.2802 7.28117C1.18631 7.37507 1.11205 7.48672 1.06177 7.60961C1.01149 7.73251 0.986189 7.86419 0.987342 7.99697C0.988496 8.12975 1.01608 8.26097 1.06849 8.38297C1.1209 8.50498 1.19708 8.61532 1.29259 8.70757L2.58559 10.0006L1.29259 11.2936C1.19708 11.3858 1.1209 11.4962 1.06849 11.6182C1.01608 11.7402 0.988496 11.8714 0.987342 12.0042C0.986189 12.1369 1.01149 12.2686 1.06177 12.3915C1.11205 12.5144 1.18631 12.6261 1.2802 12.72C1.37409 12.8138 1.48574 12.8881 1.60864 12.9384C1.73154 12.9887 1.86321 13.014 1.99599 13.0128C2.12877 13.0117 2.25999 12.9841 2.382 12.9317C2.504 12.8793 2.61435 12.8031 2.70659 12.7076L3.99959 11.4146L5.29259 12.7076C5.38484 12.8031 5.49518 12.8793 5.61719 12.9317C5.73919 12.9841 5.87041 13.0117 6.00319 13.0128C6.13597 13.014 6.26765 12.9887 6.39055 12.9384C6.51344 12.8881 6.6251 12.8138 6.71899 12.72C6.81288 12.6261 6.88713 12.5144 6.93741 12.3915C6.9877 12.2686 7.013 12.1369 7.01184 12.0042C7.01069 11.8714 6.9831 11.7402 6.93069 11.6182C6.87828 11.4962 6.8021 11.3858 6.70659 11.2936L5.41359 10.0006L6.70659 8.70757C6.89406 8.52004 6.99938 8.26573 6.99938 8.00057C6.99938 7.7354 6.89406 7.4811 6.70659 7.29357Z" fill="#101010"/>
</svg>
