<svg width="27" height="24" viewBox="0 0 27 24" fill="none" xmlns="http://www.w3.org/2000/svg">
<path d="M12.5312 18.6328C12.7192 18.6328 12.8994 18.5582 13.0323 18.4253C13.1652 18.2924 13.2399 18.1121 13.2399 17.9242V16.573H13.8163C14.3131 16.5727 14.7987 16.4251 15.2117 16.1489C15.6247 15.8727 15.9466 15.4803 16.1367 15.0212C16.3268 14.5622 16.3766 14.0571 16.2797 13.5697C16.1829 13.0824 15.9438 12.6347 15.5926 12.2832C15.3597 12.0494 15.0829 11.8639 14.778 11.7374C14.4732 11.6109 14.1463 11.5459 13.8163 11.5462H13.2399V9.36354H15.1296C15.3176 9.36354 15.4978 9.28888 15.6307 9.15598C15.7636 9.02308 15.8383 8.84283 15.8383 8.65488C15.8383 8.46693 15.7636 8.28668 15.6307 8.15378C15.4978 8.02088 15.3176 7.94622 15.1296 7.94622H13.2399V6.61393C13.2399 6.42599 13.1652 6.24574 13.0323 6.11284C12.8994 5.97994 12.7192 5.90527 12.5312 5.90527C12.3433 5.90527 12.163 5.97994 12.0301 6.11284C11.8972 6.24574 11.8226 6.42599 11.8226 6.61393V7.94622H11.2462C10.7394 7.93669 10.2416 8.0806 9.81812 8.35905C9.39461 8.6375 9.06519 9.03749 8.87308 9.50652C8.68097 9.97555 8.63516 10.4917 8.74165 10.9872C8.84814 11.4828 9.10196 11.9345 9.4698 12.2832C9.70318 12.5158 9.98031 12.6998 10.2852 12.8247C10.5901 12.9496 10.9167 13.0128 11.2462 13.0108H11.8226V15.1179H9.44146C9.25351 15.1179 9.07326 15.1925 8.94036 15.3254C8.80746 15.4583 8.7328 15.6386 8.7328 15.8265C8.7328 16.0145 8.80746 16.1947 8.94036 16.3276C9.07326 16.4605 9.25351 16.5352 9.44146 16.5352H11.8226V17.9525C11.8299 18.1355 11.9078 18.3086 12.0399 18.4354C12.172 18.5622 12.3481 18.633 12.5312 18.6328ZM13.2399 12.9635H13.8163C14.1063 12.9667 14.3839 13.0818 14.5911 13.2848C14.7509 13.437 14.8611 13.6339 14.9072 13.8497C14.9533 14.0655 14.9332 14.2903 14.8495 14.4945C14.7657 14.6987 14.6223 14.8728 14.438 14.9942C14.2536 15.1155 14.0369 15.1784 13.8163 15.1746H13.2399V12.9635ZM11.2462 11.5462C11.1022 11.5467 10.9595 11.5185 10.8265 11.4634C10.6935 11.4082 10.5728 11.3272 10.4714 11.225C10.3694 11.1253 10.2885 11.0062 10.2333 10.8748C10.1782 10.7433 10.1499 10.6022 10.1501 10.4596C10.1501 10.1689 10.2656 9.89012 10.4711 9.68457C10.6767 9.47902 10.9555 9.36354 11.2462 9.36354H11.8226V11.5462H11.2462Z" fill="#263997"/>
<path d="M19.0316 19.8428C19.0851 19.7099 19.1771 19.5961 19.2958 19.5159C19.4145 19.4357 19.5545 19.3929 19.6977 19.3929C19.841 19.3929 19.981 19.4357 20.0997 19.5159C20.2184 19.5961 20.3104 19.7099 20.3639 19.8428C20.4013 19.9293 20.4206 20.0225 20.4206 20.1168C20.4206 20.2111 20.4013 20.3043 20.3639 20.3908L19.8064 21.5814L24.1907 19.2381L19.8253 16.9042L20.3639 18.0853C20.4011 18.1702 20.4203 18.2619 20.4203 18.3546C20.4203 18.4473 20.4011 18.539 20.3639 18.6239C20.3298 18.713 20.2778 18.7941 20.2112 18.8624C20.1446 18.9306 20.0647 18.9845 19.9765 19.0207C19.8035 19.0975 19.6071 19.1028 19.4302 19.0356C19.2532 18.9684 19.11 18.834 19.0316 18.6617L17.6143 15.5719C17.5525 15.4337 17.5365 15.2793 17.5688 15.1314C17.6011 14.9834 17.68 14.8497 17.7938 14.7499C17.9061 14.6513 18.0454 14.5887 18.1936 14.5702C18.3418 14.5517 18.4922 14.5781 18.6253 14.6459L26.0332 18.6144C26.1475 18.6736 26.2432 18.763 26.3099 18.8731C26.3766 18.9831 26.4116 19.1094 26.4111 19.2381C26.4106 19.3665 26.3751 19.4924 26.3085 19.6022C26.2419 19.7121 26.1468 19.8017 26.0332 19.8617L18.6253 23.8207C18.5172 23.8765 18.3973 23.9056 18.2757 23.9058C18.0981 23.9093 17.9258 23.8451 17.7938 23.7262C17.682 23.627 17.6044 23.495 17.5722 23.3491C17.54 23.2031 17.5547 23.0507 17.6143 22.9137L19.0316 19.8428Z" fill="#263997"/>
<path d="M12.5316 3.72327e-06C9.35147 3.72327e-06 6.30163 1.26329 4.05297 3.51195C1.8043 5.76062 0.541016 8.81046 0.541016 11.9906C0.541016 15.1706 1.8043 18.2205 4.05297 20.4692C6.30163 22.7178 9.35147 23.9811 12.5316 23.9811C13.3764 23.9834 14.2191 23.8947 15.045 23.7165C15.1515 23.6954 15.2527 23.6527 15.3421 23.5909C15.4314 23.5292 15.5072 23.4497 15.5646 23.3575C15.6536 23.2218 15.7005 23.0629 15.6994 22.9007C15.6982 22.7384 15.6491 22.5802 15.5582 22.4458C15.4672 22.3114 15.3386 22.207 15.1884 22.1456C15.0382 22.0842 14.8733 22.0686 14.7142 22.1008C12.6243 22.5482 10.4471 22.3367 8.48225 21.4956C6.51744 20.6544 4.86166 19.2249 3.74286 17.4039C2.62406 15.5828 2.09724 13.4597 2.23493 11.3269C2.37262 9.194 3.16804 7.15626 4.51171 5.49416C5.85537 3.83206 7.6812 2.62732 9.73786 2.04578C11.7945 1.46424 13.9809 1.5345 15.9959 2.24689C18.011 2.95928 19.7557 4.27877 20.9899 6.02371C22.2241 7.76866 22.887 9.85326 22.8875 11.9906C22.8875 12.3402 22.8875 12.6803 22.8402 13.0299C22.8267 13.1377 22.8356 13.247 22.8665 13.3511C22.8974 13.4552 22.9496 13.5518 23.0198 13.6346C23.1611 13.8004 23.3612 13.9048 23.578 13.926C23.7947 13.9471 24.0113 13.8833 24.182 13.748C24.3494 13.6069 24.4573 13.4078 24.4843 13.1906C24.4843 12.8032 24.541 12.3969 24.541 11.9906C24.5398 10.4147 24.2282 8.8545 23.624 7.39907C23.0198 5.94364 22.1348 4.62147 21.0196 3.50804C19.9044 2.39461 18.5809 1.51174 17.1245 0.909832C15.6681 0.307923 14.1074 -0.0012376 12.5316 3.72327e-06Z" fill="#263997"/>
</svg>
