<svg width="20" height="20" viewBox="0 0 20 20" fill="none" xmlns="http://www.w3.org/2000/svg">
<g clip-path="url(#clip0_732_26529)">
<path d="M19.1663 13.334C18.9453 13.334 18.7334 13.4218 18.5771 13.5781C18.4208 13.7343 18.333 13.9463 18.333 14.1673V15.834C18.333 16.497 18.0696 17.1329 17.6008 17.6017C17.1319 18.0706 16.496 18.334 15.833 18.334H14.1663C13.9453 18.334 13.7334 18.4218 13.5771 18.5781C13.4208 18.7343 13.333 18.9463 13.333 19.1673C13.333 19.3883 13.4208 19.6003 13.5771 19.7566C13.7334 19.9128 13.9453 20.0006 14.1663 20.0006H15.833C16.9377 19.9993 17.9967 19.5599 18.7778 18.7788C19.5589 17.9977 19.9983 16.9386 19.9997 15.834V14.1673C19.9997 13.9463 19.9119 13.7343 19.7556 13.5781C19.5993 13.4218 19.3873 13.334 19.1663 13.334Z" fill="#0E3D94"/>
<path d="M0.833333 6.66667C1.05435 6.66667 1.26631 6.57887 1.42259 6.42259C1.57887 6.26631 1.66667 6.05435 1.66667 5.83333V4.16667C1.66667 3.50363 1.93006 2.86774 2.3989 2.3989C2.86774 1.93006 3.50363 1.66667 4.16667 1.66667H5.83333C6.05435 1.66667 6.26631 1.57887 6.42259 1.42259C6.57887 1.26631 6.66667 1.05435 6.66667 0.833333C6.66667 0.61232 6.57887 0.400358 6.42259 0.244078C6.26631 0.0877974 6.05435 0 5.83333 0L4.16667 0C3.062 0.00132321 2.00296 0.440735 1.22185 1.22185C0.440735 2.00296 0.00132321 3.062 0 4.16667L0 5.83333C0 6.05435 0.0877974 6.26631 0.244078 6.42259C0.400358 6.57887 0.61232 6.66667 0.833333 6.66667Z" fill="#0E3D94"/>
<path d="M5.83333 18.334H4.16667C3.50363 18.334 2.86774 18.0706 2.3989 17.6017C1.93006 17.1329 1.66667 16.497 1.66667 15.834V14.1673C1.66667 13.9463 1.57887 13.7343 1.42259 13.5781C1.26631 13.4218 1.05435 13.334 0.833333 13.334C0.61232 13.334 0.400358 13.4218 0.244078 13.5781C0.0877974 13.7343 0 13.9463 0 14.1673L0 15.834C0.00132321 16.9386 0.440735 17.9977 1.22185 18.7788C2.00296 19.5599 3.062 19.9993 4.16667 20.0006H5.83333C6.05435 20.0006 6.26631 19.9128 6.42259 19.7566C6.57887 19.6003 6.66667 19.3883 6.66667 19.1673C6.66667 18.9463 6.57887 18.7343 6.42259 18.5781C6.26631 18.4218 6.05435 18.334 5.83333 18.334Z" fill="#0E3D94"/>
<path d="M15.833 0H14.1663C13.9453 0 13.7334 0.0877974 13.5771 0.244078C13.4208 0.400358 13.333 0.61232 13.333 0.833333C13.333 1.05435 13.4208 1.26631 13.5771 1.42259C13.7334 1.57887 13.9453 1.66667 14.1663 1.66667H15.833C16.496 1.66667 17.1319 1.93006 17.6008 2.3989C18.0696 2.86774 18.333 3.50363 18.333 4.16667V5.83333C18.333 6.05435 18.4208 6.26631 18.5771 6.42259C18.7334 6.57887 18.9453 6.66667 19.1663 6.66667C19.3873 6.66667 19.5993 6.57887 19.7556 6.42259C19.9119 6.26631 19.9997 6.05435 19.9997 5.83333V4.16667C19.9983 3.062 19.5589 2.00296 18.7778 1.22185C17.9967 0.440735 16.9377 0.00132321 15.833 0V0Z" fill="#0E3D94"/>
<path d="M10.0003 9.16667C10.6596 9.16667 11.3041 8.97117 11.8522 8.6049C12.4004 8.23863 12.8276 7.71803 13.0799 7.10895C13.3322 6.49986 13.3982 5.82964 13.2696 5.18303C13.141 4.53643 12.8235 3.94249 12.3573 3.47631C11.8912 3.01014 11.2972 2.69267 10.6506 2.56405C10.004 2.43543 9.3338 2.50144 8.72471 2.75374C8.11563 3.00603 7.59503 3.43327 7.22876 3.98143C6.86249 4.5296 6.66699 5.17406 6.66699 5.83334C6.66699 6.71739 7.01818 7.56524 7.6433 8.19036C8.26842 8.81548 9.11627 9.16667 10.0003 9.16667ZM10.0003 4.16667C10.33 4.16667 10.6522 4.26442 10.9263 4.44755C11.2004 4.63069 11.414 4.89099 11.5401 5.19553C11.6663 5.50007 11.6993 5.83518 11.635 6.15849C11.5707 6.48179 11.4119 6.77876 11.1788 7.01185C10.9457 7.24493 10.6488 7.40367 10.3255 7.46798C10.0022 7.53229 9.66706 7.49928 9.36252 7.37314C9.05798 7.24699 8.79768 7.03337 8.61454 6.75929C8.43141 6.4852 8.33366 6.16297 8.33366 5.83334C8.33366 5.39131 8.50925 4.96738 8.82181 4.65482C9.13438 4.34226 9.5583 4.16667 10.0003 4.16667Z" fill="#0E3D94"/>
<path d="M15.0003 16.6673C15.2213 16.6673 15.4333 16.5795 15.5896 16.4232C15.7459 16.267 15.8337 16.055 15.8337 15.834C15.8323 14.5083 15.3051 13.2373 14.3677 12.2999C13.4303 11.3625 12.1593 10.8353 10.8337 10.834H9.16699C7.84132 10.8353 6.57032 11.3625 5.63292 12.2999C4.69553 13.2373 4.16832 14.5083 4.16699 15.834C4.16699 16.055 4.25479 16.267 4.41107 16.4232C4.56735 16.5795 4.77931 16.6673 5.00033 16.6673C5.22134 16.6673 5.4333 16.5795 5.58958 16.4232C5.74586 16.267 5.83366 16.055 5.83366 15.834C5.83366 14.9499 6.18485 14.1021 6.80997 13.477C7.43509 12.8518 8.28294 12.5007 9.16699 12.5007H10.8337C11.7177 12.5007 12.5656 12.8518 13.1907 13.477C13.8158 14.1021 14.167 14.9499 14.167 15.834C14.167 16.055 14.2548 16.267 14.4111 16.4232C14.5674 16.5795 14.7793 16.6673 15.0003 16.6673Z" fill="#0E3D94"/>
</g>
<defs>
<clipPath id="clip0_732_26529">
<rect width="20" height="20" fill="white"/>
</clipPath>
</defs>
</svg>
