<svg width="28" height="24" viewBox="0 0 28 24" fill="none" xmlns="http://www.w3.org/2000/svg">
<path d="M12.3672 14.7117C9.26451 14.7117 6.52498 14.7117 3.42234 14.7117C2.54478 14.7117 1.83337 14.0003 1.83337 13.1227V3.58896C1.83337 2.7114 2.54478 2 3.42234 2H17.723C18.6006 2 19.312 2.7114 19.312 3.58896V6.76689" stroke="#0E3D94" stroke-width="2" stroke-linecap="round" stroke-linejoin="round"/>
<path d="M1.83337 6.7666H19.312" stroke="#0E3D94" stroke-width="2" stroke-linecap="round" stroke-linejoin="round"/>
<path d="M20.8051 21C20.6121 20.9993 20.4237 20.9526 20.2637 20.8658C20.1037 20.7789 19.9792 20.6558 19.9061 20.512C19.833 20.3682 19.8145 20.2101 19.8529 20.0579C19.8914 19.9056 19.985 19.7659 20.122 19.6565L24.611 16.0581C24.7025 15.9851 24.7751 15.8982 24.8246 15.8025C24.8741 15.7067 24.8996 15.604 24.8996 15.5003C24.8996 15.3966 24.8741 15.2939 24.8246 15.1982C24.7751 15.1024 24.7025 15.0155 24.611 14.9425L20.122 11.3441C20.0306 11.2711 19.958 11.1842 19.9084 11.0884C19.8589 10.9927 19.8334 10.89 19.8334 10.7863C19.8334 10.6826 19.8589 10.5799 19.9084 10.4841C19.958 10.3884 20.0306 10.3015 20.122 10.2285C20.3049 10.0821 20.5522 10 20.81 10C21.0678 10 21.3152 10.0821 21.498 10.2285L25.9772 13.8347C26.5254 14.2766 26.8334 14.8757 26.8334 15.5003C26.8334 16.1249 26.5254 16.724 25.9772 17.1659L21.498 20.7721C21.4068 20.845 21.2987 20.9026 21.1798 20.9417C21.0609 20.9808 20.9336 21.0006 20.8051 21Z" fill="#0E3D94" stroke="#0E3D94" stroke-width="0.4"/>
<path d="M14.8051 21C14.6121 20.9993 14.4237 20.9526 14.2637 20.8658C14.1037 20.7789 13.9792 20.6558 13.9061 20.512C13.833 20.3682 13.8145 20.2101 13.8529 20.0579C13.8914 19.9056 13.985 19.7659 14.122 19.6565L18.611 16.0581C18.7025 15.9851 18.7751 15.8982 18.8246 15.8025C18.8741 15.7067 18.8996 15.604 18.8996 15.5003C18.8996 15.3966 18.8741 15.2939 18.8246 15.1982C18.7751 15.1024 18.7025 15.0155 18.611 14.9425L14.122 11.3441C14.0306 11.2711 13.958 11.1842 13.9084 11.0884C13.8589 10.9927 13.8334 10.89 13.8334 10.7863C13.8334 10.6826 13.8589 10.5799 13.9084 10.4841C13.958 10.3884 14.0306 10.3015 14.122 10.2285C14.3049 10.0821 14.5522 10 14.81 10C15.0678 10 15.3152 10.0821 15.498 10.2285L19.9772 13.8347C20.5254 14.2766 20.8334 14.8757 20.8334 15.5003C20.8334 16.1249 20.5254 16.724 19.9772 17.1659L15.498 20.7721C15.4068 20.845 15.2987 20.9026 15.1798 20.9417C15.0609 20.9808 14.9336 21.0006 14.8051 21Z" fill="#0E3D94" stroke="#0E3D94" stroke-width="0.4"/>
</svg>
