<svg width="24" height="24" viewBox="0 0 24 24" fill="none" xmlns="http://www.w3.org/2000/svg">
<g clip-path="url(#clip0_705_71961)">
<path d="M18 16.1H18.1V16V5C18.1 4.17783 17.7734 3.38933 17.192 2.80797C16.6107 2.22661 15.8222 1.9 15 1.9H9C8.17783 1.9 7.38933 2.22661 6.80797 2.80797C6.22661 3.38933 5.9 4.17783 5.9 5V16V16.1H6H18ZM6 17.9H5.9V18V19C5.9 19.8222 6.22661 20.6107 6.80797 21.192C7.38933 21.7734 8.17783 22.1 9 22.1H15C15.8222 22.1 16.6107 21.7734 17.192 21.192C17.7734 20.6107 18.1 19.8222 18.1 19V18V17.9H18H6ZM5.53693 1.53693C6.45554 0.618317 7.701 0.101556 9.00012 0.0999999L14.9999 0.1C16.299 0.101572 17.5445 0.618332 18.4631 1.53693C19.3817 2.45554 19.8984 3.701 19.9 5.00012V18.9999C19.8984 20.299 19.3817 21.5445 18.4631 22.4631C17.5445 23.3817 16.299 23.8984 14.9999 23.9H9.00012C7.701 23.8984 6.45554 23.3817 5.53693 22.4631C4.61832 21.5445 4.10156 20.299 4.1 18.9999L4.1 5.00006C4.10157 3.70097 4.61833 2.45553 5.53693 1.53693Z" fill="#263997" stroke="white" stroke-width="0.2"/>
<path d="M12 20.9995C12.5523 20.9995 13 20.5518 13 19.9995C13 19.4472 12.5523 18.9995 12 18.9995C11.4477 18.9995 11 19.4472 11 19.9995C11 20.5518 11.4477 20.9995 12 20.9995Z" fill="#0E3D94"/>
</g>
<defs>
<clipPath id="clip0_705_71961">
<rect width="24" height="24" fill="white"/>
</clipPath>
</defs>
</svg>
