<svg width="32" height="32" viewBox="0 0 32 32" fill="none" xmlns="http://www.w3.org/2000/svg">
<g clip-path="url(#clip0_4059_46107)">
<path d="M23.8534 8.77072L22.3643 10.0833H24.3493H26.6667C27.8822 10.0833 29.048 10.5662 29.9076 11.4258C30.7671 12.2853 31.25 13.4511 31.25 14.6667V16C31.25 16.5083 31.0481 16.9958 30.6886 17.3553C30.3292 17.7147 29.8417 17.9167 29.3333 17.9167H28.5833V18.6667V25.3324C28.5815 26.9013 27.9574 28.4054 26.848 29.5147C25.7387 30.6241 24.2346 31.2481 22.6658 31.25H9.33423C7.76537 31.2481 6.26131 30.6241 5.15196 29.5147C4.0427 28.4055 3.41865 26.9015 3.41667 25.3328V18.6667V17.9167H2.66667C2.15834 17.9167 1.67082 17.7147 1.31138 17.3553C0.951934 16.9958 0.75 16.5083 0.75 16V14.6667C0.75 13.4511 1.23289 12.2853 2.09243 11.4258C2.95197 10.5662 4.11776 10.0833 5.33333 10.0833H7.65067H9.63568L8.14661 8.77072C7.47529 8.17895 6.94242 7.4467 6.58579 6.62592C6.22916 5.80513 6.05751 4.91593 6.08303 4.02138L6.08333 4.01069V4C6.08333 3.84529 6.14479 3.69692 6.25419 3.58752C6.36358 3.47812 6.51196 3.41667 6.66667 3.41667C6.82138 3.41667 6.96975 3.47812 7.07915 3.58752C7.18854 3.69692 7.25 3.84529 7.25 4C7.25 6.01904 8.18177 7.40973 9.44071 8.3232C10.6656 9.21196 12.1868 9.64462 13.4378 9.86042L14.9947 10.129L14.2186 8.7529C13.3898 7.28347 12.8889 5.65222 12.7501 3.97117C12.7577 3.11963 13.0992 2.3046 13.7019 1.7019C14.3114 1.09241 15.138 0.75 16 0.75C16.862 0.75 17.6886 1.09241 18.2981 1.7019C18.9008 2.30459 19.2423 3.11962 19.2499 3.97116C19.1111 5.65221 18.6102 7.28347 17.7814 8.7529L17.0053 10.129L18.5622 9.86042C19.8132 9.64462 21.3344 9.21196 22.5593 8.3232C23.8182 7.40973 24.75 6.01904 24.75 4C24.75 3.84529 24.8115 3.69692 24.9209 3.58752C25.0302 3.47813 25.1786 3.41667 25.3333 3.41667C25.488 3.41667 25.6364 3.47813 25.7458 3.58752C25.8552 3.69692 25.9167 3.84529 25.9167 4V4.01069L25.917 4.02138C25.9425 4.91593 25.7708 5.80513 25.4142 6.62592C25.0576 7.4467 24.5247 8.17895 23.8534 8.77072ZM18.0785 4.08464L18.0833 4.04246V4C18.0833 3.44747 17.8638 2.91756 17.4731 2.52686C17.0824 2.13616 16.5525 1.91667 16 1.91667C15.4475 1.91667 14.9176 2.13616 14.5269 2.52686C14.1362 2.91756 13.9167 3.44746 13.9167 4V4.04246L13.9215 4.08464C14.0942 5.60513 14.5814 7.07305 15.3521 8.39507L16 9.50647L16.6479 8.39507C17.4186 7.07305 17.9058 5.60513 18.0785 4.08464ZM15.4167 12V11.25H14.6667H5.33333C4.42718 11.25 3.55813 11.61 2.91739 12.2507C2.27664 12.8915 1.91667 13.7605 1.91667 14.6667V16V16.75H2.66667H14.6667H15.4167V16V12ZM5.33333 17.9167H4.58333V18.6667V25.3333C4.58333 26.5931 5.08378 27.8013 5.97458 28.6921L6.50491 28.1618L5.97458 28.6921C6.86537 29.5829 8.07356 30.0833 9.33333 30.0833H14.6667H15.4167V29.3333V18.6667V17.9167H14.6667H5.33333ZM16.5833 29.3333V30.0833H17.3333H22.6667C23.9264 30.0833 25.1346 29.5829 26.0254 28.6921C26.9162 27.8013 27.4167 26.5931 27.4167 25.3333V18.6667V17.9167H26.6667H17.3333H16.5833V18.6667V29.3333ZM16.5833 16V16.75H17.3333H29.3333H30.0833V16V14.6667C30.0833 13.7605 29.7234 12.8915 29.0826 12.2507C28.4419 11.61 27.5728 11.25 26.6667 11.25H17.3333H16.5833V12V16Z" fill="white" stroke="white" stroke-width="1.5"/>
</g>
<defs>
<clipPath id="clip0_4059_46107">
<rect width="32" height="32" fill="white"/>
</clipPath>
</defs>
</svg>
