<svg width="172" height="98" viewBox="0 0 172 98" fill="none" xmlns="http://www.w3.org/2000/svg">
<path fill-rule="evenodd" clip-rule="evenodd" d="M3.37175 31C4.66543 31 5.74349 29.913 5.74349 28.6087V16.9783C5.74349 10.7826 10.7026 5.78261 16.8476 5.78261H27.6283C28.9219 5.78261 30 4.69565 30 3.3913C30 2.08696 28.9219 1 27.6283 1H16.8476C8.11524 1 1 8.17391 1 16.9783V28.6087C1 29.913 2.07807 31 3.37175 31ZM144.372 1H155.152C163.885 1 171 8.17391 171 16.9783V28.6087C171 29.913 169.922 31 168.628 31C167.335 31 166.257 29.913 166.257 28.6087V16.9783C166.257 10.7826 161.297 5.78261 155.152 5.78261H144.372C143.078 5.78261 142 4.69565 142 3.3913C142 2.08696 143.078 1 144.372 1ZM166.257 71.3602C166.257 70.0728 167.335 69 168.628 69C169.922 69 171 70.0728 171 71.3602V81.2299C171 89.9195 163.885 97 155.152 97H144.372C143.078 97 142 95.9272 142 94.6398C142 93.3525 143.078 92.2797 144.372 92.2797H155.152C161.297 92.2797 166.257 87.3448 166.257 81.2299V71.3602ZM16.8476 92.2797H27.6283C28.9219 92.2797 30 93.3525 30 94.6398C30 95.9272 29.0297 97 27.6283 97H16.8476C8.11524 97 1 89.9195 1 81.2299V71.3602C1 70.0728 2.07807 69 3.37175 69C4.66543 69 5.74349 70.0728 5.74349 71.3602V81.2299C5.74349 87.3448 10.7026 92.2797 16.8476 92.2797Z" fill="#8B8B8B"/>
<path d="M4.74349 28.6087C4.74349 29.3685 4.10542 30 3.37175 30V32C5.22544 32 6.74349 30.4576 6.74349 28.6087H4.74349ZM4.74349 16.9783V28.6087H6.74349V16.9783H4.74349ZM16.8476 4.78261C10.1426 4.78261 4.74349 10.2381 4.74349 16.9783H6.74349C6.74349 11.3271 11.2626 6.78261 16.8476 6.78261V4.78261ZM27.6283 4.78261H16.8476V6.78261H27.6283V4.78261ZM29 3.3913C29 4.15112 28.3619 4.78261 27.6283 4.78261V6.78261C29.4819 6.78261 31 5.24018 31 3.3913H29ZM27.6283 2C28.3619 2 29 2.63148 29 3.3913H31C31 1.54243 29.4819 0 27.6283 0V2ZM16.8476 2H27.6283V0H16.8476V2ZM2 16.9783C2 8.71844 8.67525 2 16.8476 2V0C7.55523 0 0 7.62939 0 16.9783H2ZM2 28.6087V16.9783H0V28.6087H2ZM3.37175 30C2.63808 30 2 29.3685 2 28.6087H0C0 30.4576 1.51806 32 3.37175 32V30ZM155.152 0H144.372V2H155.152V0ZM172 16.9783C172 7.62939 164.445 0 155.152 0V2C163.325 2 170 8.71844 170 16.9783H172ZM172 28.6087V16.9783H170V28.6087H172ZM168.628 32C170.482 32 172 30.4576 172 28.6087H170C170 29.3685 169.362 30 168.628 30V32ZM165.257 28.6087C165.257 30.4576 166.775 32 168.628 32V30C167.895 30 167.257 29.3685 167.257 28.6087H165.257ZM165.257 16.9783V28.6087H167.257V16.9783H165.257ZM155.152 6.78261C160.737 6.78261 165.257 11.3271 165.257 16.9783H167.257C167.257 10.2381 161.857 4.78261 155.152 4.78261V6.78261ZM144.372 6.78261H155.152V4.78261H144.372V6.78261ZM141 3.3913C141 5.24018 142.518 6.78261 144.372 6.78261V4.78261C143.638 4.78261 143 4.15113 143 3.3913H141ZM144.372 0C142.518 0 141 1.54243 141 3.3913H143C143 2.63148 143.638 2 144.372 2V0ZM168.628 68C166.787 68 165.257 69.5159 165.257 71.3602H167.257C167.257 70.6297 167.882 70 168.628 70V68ZM172 71.3602C172 69.5159 170.47 68 168.628 68V70C169.374 70 170 70.6297 170 71.3602H172ZM172 81.2299V71.3602H170V81.2299H172ZM155.152 98C164.432 98 172 90.4764 172 81.2299H170C170 89.3626 163.337 96 155.152 96V98ZM144.372 98H155.152V96H144.372V98ZM141 94.6398C141 96.4841 142.53 98 144.372 98V96C143.626 96 143 95.3703 143 94.6398H141ZM144.372 91.2797C142.53 91.2797 141 92.7956 141 94.6398H143C143 93.9094 143.626 93.2797 144.372 93.2797V91.2797ZM155.152 91.2797H144.372V93.2797H155.152V91.2797ZM165.257 81.2299C165.257 86.7879 160.75 91.2797 155.152 91.2797V93.2797C161.845 93.2797 167.257 87.9017 167.257 81.2299H165.257ZM165.257 71.3602V81.2299H167.257V71.3602H165.257ZM27.6283 91.2797H16.8476V93.2797H27.6283V91.2797ZM31 94.6398C31 92.7956 29.4696 91.2797 27.6283 91.2797V93.2797C28.3743 93.2797 29 93.9094 29 94.6398H31ZM27.6283 98C29.6072 98 31 96.454 31 94.6398H29C29 95.4004 28.4523 96 27.6283 96V98ZM16.8476 98H27.6283V96H16.8476V98ZM0 81.2299C0 90.4764 7.56758 98 16.8476 98V96C8.6629 96 2 89.3626 2 81.2299H0ZM0 71.3602V81.2299H2V71.3602H0ZM3.37175 68C1.53041 68 0 69.5159 0 71.3602H2C2 70.6297 2.62573 70 3.37175 70V68ZM6.74349 71.3602C6.74349 69.5159 5.21309 68 3.37175 68V70C4.11777 70 4.74349 70.6297 4.74349 71.3602H6.74349ZM6.74349 81.2299V71.3602H4.74349V81.2299H6.74349ZM16.8476 91.2797C11.2503 91.2797 6.74349 86.7879 6.74349 81.2299H4.74349C4.74349 87.9017 10.1549 93.2797 16.8476 93.2797V91.2797Z" fill="white"/>
<path d="M102.122 16.3505C106.601 14.2933 111.84 13.25 117.693 13.25C123.507 13.25 128.746 14.2933 133.27 16.3538C133.488 16.4545 133.719 16.5 133.943 16.5C134.561 16.5 135.152 16.1458 135.425 15.5478C135.796 14.732 135.435 13.7668 134.619 13.3963C129.669 11.144 123.975 10 117.693 10C111.365 10 105.668 11.144 100.764 13.3995C99.9513 13.7733 99.5938 14.7385 99.9676 15.5543C100.345 16.3668 101.303 16.7243 102.122 16.3505Z" fill="#8B8B8B" stroke="white" stroke-width="1.17"/>
<path d="M96.0999 29.019C102.09 22.9545 109.552 19.75 117.686 19.75C125.854 19.75 133.325 22.9545 139.286 29.0158C139.604 29.3375 140.024 29.5 140.443 29.5C140.852 29.5 141.265 29.344 141.584 29.032C142.224 28.4015 142.234 27.3745 141.603 26.7343C135.015 20.0393 126.744 16.5 117.686 16.5C108.664 16.5 100.4 20.0393 93.7892 26.731C93.1587 27.3713 93.1652 28.4015 93.8022 29.032C94.4424 29.6625 95.4694 29.6528 96.0999 29.019Z" fill="#8B8B8B" stroke="white" stroke-width="1.17"/>
<path d="M117.686 23C115.369 23 113.068 23.286 110.845 23.8515C109.974 24.0725 109.448 24.9565 109.669 25.8275C109.89 26.6985 110.78 27.2185 111.645 27.0008C113.604 26.5035 115.639 26.25 117.686 26.25C131.128 26.25 142.061 37.183 142.061 50.625C142.061 51.522 142.789 52.25 143.686 52.25C144.583 52.25 145.311 51.522 145.311 50.625C145.311 35.3923 132.919 23 117.686 23Z" fill="#8B8B8B" stroke="white" stroke-width="1.17"/>
<path d="M93.318 50.6506C93.422 44.0856 95.9375 37.9853 100.406 33.4678C101.927 31.9273 103.627 30.6078 105.457 29.5386C106.23 29.0868 106.49 28.0923 106.039 27.3156C105.59 26.5453 104.599 26.2821 103.816 26.7338C101.742 27.9461 99.8148 29.4443 98.0955 31.1863C93.0353 36.3018 90.185 43.1951 90.068 50.6018C90.055 51.4988 90.77 52.2366 91.6703 52.2496C91.6768 52.2496 91.6865 52.2496 91.6963 52.2496C92.5803 52.2496 93.305 51.5411 93.318 50.6506Z" fill="#8B8B8B" stroke="white" stroke-width="1.17"/>
<path d="M99.8147 51.0248C99.8147 46.049 101.664 41.4405 105.028 38.041C108.401 34.6285 112.893 32.75 117.686 32.75C122.844 32.75 127.758 34.9893 131.161 38.8958C131.749 39.5717 132.779 39.64 133.455 39.0518C134.131 38.4602 134.2 37.4333 133.611 36.7573C129.588 32.1455 123.783 29.5 117.686 29.5C112.018 29.5 106.705 31.723 102.72 35.7563C98.7487 39.7668 96.5647 45.191 96.5647 51.1093C96.5744 54.6063 95.4824 58.7987 93.5259 62.8255L92.6127 64.4505C92.1739 65.2337 92.4502 66.2218 93.2334 66.6638C93.4869 66.8068 93.7599 66.875 94.0297 66.875C94.5984 66.875 95.1509 66.576 95.4467 66.0463L96.4054 64.3368C98.6512 59.7153 99.8277 55.1393 99.8147 51.0248Z" fill="#8B8B8B" stroke="white" stroke-width="1.17"/>
<path d="M140.001 63.362C138.971 58.6592 138.883 54.171 138.828 51.4865L138.811 50.6252C138.811 48.217 138.405 45.851 137.606 43.5922C137.307 42.7472 136.387 42.3052 135.532 42.6042C134.687 42.9032 134.245 43.8295 134.544 44.6777C135.22 46.5855 135.561 48.5875 135.561 50.6675L135.581 51.5515C135.639 54.353 135.73 59.0427 136.861 64.181L138.72 70.304C138.932 71.006 139.578 71.4545 140.277 71.4545C140.433 71.4545 140.592 71.4317 140.752 71.3862C141.61 71.123 142.094 70.2195 141.834 69.3582L140.001 63.362Z" fill="#8B8B8B" stroke="white" stroke-width="1.17"/>
<path d="M135.581 72.0263C132.9 63.6543 132.399 54.2423 132.311 50.625C132.311 42.5618 125.75 36 117.686 36C109.623 36 103.065 42.6625 103.065 50.9078C103.071 52.6173 102.756 61.649 95.892 71.5485C95.3785 72.2863 95.5637 73.3003 96.2982 73.8105C97.0327 74.3208 98.05 74.1388 98.5602 73.4043C105.795 62.975 106.324 53.5403 106.315 50.8558C106.315 44.4565 111.417 39.2533 117.686 39.2533C123.959 39.2533 129.061 44.3558 129.061 50.6673C129.178 55.3863 129.78 64.5643 132.484 73.011L133.985 77.8308C134.203 78.5263 134.843 78.9715 135.539 78.9715C135.698 78.9715 135.86 78.9488 136.023 78.9C136.881 78.6303 137.359 77.7203 137.092 76.8655L135.581 72.0263Z" fill="#8B8B8B" stroke="white" stroke-width="1.17"/>
<path d="M125.811 50.625C125.811 46.1465 122.165 42.5 117.686 42.5C113.208 42.5 109.561 46.1465 109.561 50.6868C109.581 51.223 109.942 63.989 99.6197 77.4213C99.0737 78.133 99.207 79.1535 99.9187 79.6995C100.634 80.2488 101.651 80.109 102.197 79.4005C113.224 65.0485 112.828 51.1482 112.808 50.625C112.808 47.9373 114.995 45.75 117.683 45.75C120.371 45.75 122.558 47.9373 122.561 50.6608C122.607 52.4808 122.617 68.8997 109.929 85.3838C109.383 86.0955 109.513 87.116 110.224 87.662C110.523 87.8895 110.871 88 111.216 88C111.703 88 112.184 87.7823 112.503 87.3663C125.896 69.9723 125.857 52.5198 125.811 50.625Z" fill="#8B8B8B" stroke="white" stroke-width="1.17"/>
<path d="M116.894 58.7238C116.981 58.7368 117.069 58.7433 117.154 58.7433C117.937 58.7433 118.629 58.1745 118.756 57.3783C119.419 53.254 119.312 50.6605 119.305 50.5533C119.263 49.6595 118.561 48.9478 117.612 49.003C116.718 49.042 116.023 49.7993 116.058 50.6963C116.058 50.719 116.149 53.098 115.545 56.8583C115.405 57.7455 116.01 58.5808 116.894 58.7238Z" fill="#8B8B8B" stroke="white" stroke-width="1.17"/>
<path d="M116.117 62.1138C115.252 61.8571 114.352 62.3511 114.095 63.2091C112.064 70.0698 108.684 76.4853 104.056 82.2833C103.497 82.9853 103.611 84.0058 104.313 84.5681C104.612 84.8086 104.969 84.9223 105.327 84.9223C105.804 84.9223 106.276 84.7143 106.597 84.3113C111.489 78.1883 115.06 71.3991 117.215 64.1353C117.469 63.2741 116.978 62.3673 116.117 62.1138Z" fill="#8B8B8B" stroke="white" stroke-width="1.17"/>
<path d="M129.906 75.3603C129.126 73.0268 128.398 70.56 128.395 70.5503C128.2 69.8905 127.615 69.4258 126.929 69.3868C126.227 69.338 125.607 69.741 125.34 70.3748C125.304 70.4593 121.684 78.971 117.534 85.5035C117.053 86.2608 117.277 87.265 118.034 87.746C118.304 87.9183 118.606 87.9995 118.905 87.9995C119.445 87.9995 119.968 87.733 120.277 87.2455C122.789 83.2903 125.07 78.7435 126.559 75.5813C126.643 75.8413 126.731 76.1045 126.819 76.3645L128.766 82.559C129.035 83.4138 129.939 83.8948 130.803 83.6218C131.658 83.352 132.136 82.442 131.866 81.584L129.906 75.3603Z" fill="#8B8B8B" stroke="white" stroke-width="1.17"/>
<path fill-rule="evenodd" clip-rule="evenodd" d="M26 36.6603C26 35.2352 27.1518 34 28.6875 34C30.1272 34 31.375 35.1401 31.375 36.6603V43.5012C31.375 44.9264 30.2232 46.0665 28.6875 46.0665C27.2478 46.0665 26 44.9264 26 43.4062V36.6603ZM69 43.5012C68.904 44.9264 67.7522 46.0665 66.3125 46.0665C64.8728 46.0665 63.625 44.9264 63.625 43.4062V36.6603C63.625 35.2352 64.7768 34 66.3125 34C67.8482 34 69 35.1401 69 36.6603V43.5012ZM48.5558 69.8195C53.2589 69.8195 57.8661 67.9192 61.3214 64.4988C62.1853 63.6437 63.529 63.6437 64.2969 64.4988C65.1607 65.3539 65.1607 66.6841 64.2969 67.4442C60.0737 71.7197 54.4107 74 48.5558 74H47.7879C41.933 74 36.3661 71.7197 32.0469 67.4442C31.183 66.5891 31.183 65.2589 32.0469 64.4988C32.9107 63.6437 34.2545 63.6437 35.0223 64.4988C38.4777 67.9192 42.9888 69.8195 47.7879 69.8195H48.5558ZM42.8929 58.7031H43.3728C47.692 58.7031 51.1473 55.2827 51.1473 51.1021V36.6603C51.1473 35.5202 50.1875 34.5701 49.0357 34.5701C47.8839 34.5701 46.9241 35.5202 46.9241 36.6603V51.0071C46.9241 53.0024 45.2924 54.5226 43.3728 54.5226H42.8929C41.7411 54.5226 40.7812 55.4727 40.7812 56.6128C40.7812 57.753 41.7411 58.7031 42.8929 58.7031Z" fill="#8B8B8B"/>
<path d="M69 43.5012L69.5837 43.5405L69.585 43.5209V43.5012H69ZM61.3214 64.4988L61.733 64.9146V64.9146L61.3214 64.4988ZM64.2969 64.4988L63.8616 64.8897L63.8731 64.9025L63.8853 64.9146L64.2969 64.4988ZM64.2969 67.4442L63.9104 67.005L63.8951 67.0185L63.8807 67.0331L64.2969 67.4442ZM32.0469 67.4442L32.4584 67.0284H32.4584L32.0469 67.4442ZM32.0469 64.4988L32.4333 64.938L32.4462 64.9267L32.4584 64.9146L32.0469 64.4988ZM35.0223 64.4988L34.5871 64.8897L34.5985 64.9025L34.6108 64.9146L35.0223 64.4988ZM28.6875 33.415C26.8207 33.415 25.415 34.9201 25.415 36.6603H26.585C26.585 35.5502 27.4829 34.585 28.6875 34.585V33.415ZM31.96 36.6603C31.96 34.798 30.4309 33.415 28.6875 33.415V34.585C29.8235 34.585 30.79 35.4823 30.79 36.6603H31.96ZM31.96 43.5012V36.6603H30.79V43.5012H31.96ZM28.6875 46.6515C30.5266 46.6515 31.96 45.2688 31.96 43.5012H30.79C30.79 44.5839 29.9199 45.4815 28.6875 45.4815V46.6515ZM25.415 43.4062C25.415 45.2685 26.9441 46.6515 28.6875 46.6515V45.4815C27.5515 45.4815 26.585 44.5842 26.585 43.4062H25.415ZM25.415 36.6603V43.4062H26.585V36.6603H25.415ZM66.3125 46.6515C68.0769 46.6515 69.4682 45.2557 69.5837 43.5405L68.4163 43.4619C68.3399 44.597 67.4276 45.4815 66.3125 45.4815V46.6515ZM63.04 43.4062C63.04 45.2685 64.5691 46.6515 66.3125 46.6515V45.4815C65.1765 45.4815 64.21 44.5842 64.21 43.4062H63.04ZM63.04 36.6603V43.4062H64.21V36.6603H63.04ZM66.3125 33.415C64.4457 33.415 63.04 34.9201 63.04 36.6603H64.21C64.21 35.5502 65.1079 34.585 66.3125 34.585V33.415ZM69.585 36.6603C69.585 34.8115 68.1657 33.415 66.3125 33.415V34.585C67.5307 34.585 68.415 35.4688 68.415 36.6603H69.585ZM69.585 43.5012V36.6603H68.415V43.5012H69.585ZM60.9099 64.0831C57.5618 67.3973 53.1017 69.2345 48.5558 69.2345V70.4045C53.4162 70.4045 58.1704 68.4412 61.733 64.9146L60.9099 64.0831ZM64.7321 64.108C63.7191 62.9798 61.9873 63.0165 60.9099 64.0831L61.733 64.9146C62.3832 64.2709 63.339 64.3076 63.8616 64.8897L64.7321 64.108ZM64.6833 67.8834C65.8265 66.8775 65.789 65.1527 64.7084 64.0831L63.8853 64.9146C64.5325 65.5552 64.495 66.4907 63.9104 67.005L64.6833 67.8834ZM48.5558 74.585C54.5635 74.585 60.3774 72.2446 64.7131 67.8553L63.8807 67.0331C59.7699 71.1948 54.2579 73.415 48.5558 73.415V74.585ZM47.7879 74.585H48.5558V73.415H47.7879V74.585ZM31.6353 67.8599C36.0623 72.2421 41.7764 74.585 47.7879 74.585V73.415C42.0896 73.415 36.6699 71.1973 32.4584 67.0284L31.6353 67.8599ZM31.6604 64.0596C30.5173 65.0655 30.5548 66.7903 31.6353 67.8599L32.4584 67.0284C31.8113 66.3878 31.8488 65.4523 32.4333 64.938L31.6604 64.0596ZM35.4576 64.108C34.4445 62.9798 32.7128 63.0165 31.6353 64.0831L32.4584 64.9146C33.1087 64.2709 34.0644 64.3076 34.5871 64.8897L35.4576 64.108ZM47.7879 69.2345C43.1478 69.2345 38.7832 67.3985 35.4339 64.0831L34.6108 64.9146C38.1722 68.44 42.8299 70.4045 47.7879 70.4045V69.2345ZM48.5558 69.2345H47.7879V70.4045H48.5558V69.2345ZM43.3728 58.1181H42.8929V59.2881H43.3728V58.1181ZM50.5623 51.1021C50.5623 54.9493 47.3793 58.1181 43.3728 58.1181V59.2881C48.0047 59.2881 51.7323 55.616 51.7323 51.1021H50.5623ZM50.5623 36.6603V51.1021H51.7323V36.6603H50.5623ZM49.0357 35.1551C49.87 35.1551 50.5623 35.8489 50.5623 36.6603H51.7323C51.7323 35.1915 50.505 33.9851 49.0357 33.9851V35.1551ZM47.5091 36.6603C47.5091 35.8489 48.2014 35.1551 49.0357 35.1551V33.9851C47.5665 33.9851 46.3391 35.1915 46.3391 36.6603H47.5091ZM47.5091 51.0071V36.6603H46.3391V51.0071H47.5091ZM43.3728 55.1076C45.5995 55.1076 47.5091 53.3413 47.5091 51.0071H46.3391C46.3391 52.6635 44.9853 53.9376 43.3728 53.9376V55.1076ZM42.8929 55.1076H43.3728V53.9376H42.8929V55.1076ZM41.3663 56.6128C41.3663 55.8014 42.0585 55.1076 42.8929 55.1076V53.9376C41.4236 53.9376 40.1962 55.144 40.1962 56.6128H41.3663ZM42.8929 58.1181C42.0585 58.1181 41.3663 57.4243 41.3663 56.6128H40.1962C40.1962 58.0816 41.4236 59.2881 42.8929 59.2881V58.1181Z" fill="white"/>
</svg>
