<svg width="25" height="24" viewBox="0 0 25 24" fill="none" xmlns="http://www.w3.org/2000/svg">
<g clip-path="url(#clip0_1973_38775)">
<path d="M22.3 5.57907L15.3 0.855073C14.4742 0.29347 13.4987 -0.00683594 12.5 -0.00683594C11.5014 -0.00683594 10.5258 0.29347 9.7 0.855073L2.7 5.57907C2.02215 6.03725 1.4671 6.65476 1.08353 7.37745C0.699953 8.10013 0.499586 8.9059 0.500001 9.72407V19.0001C0.501589 20.3257 1.02888 21.5965 1.96622 22.5339C2.90356 23.4712 4.17441 23.9985 5.5 24.0001H19.5C20.8256 23.9985 22.0964 23.4712 23.0338 22.5339C23.9711 21.5965 24.4984 20.3257 24.5 19.0001V9.72407C24.5004 8.9059 24.3001 8.10013 23.9165 7.37745C23.5329 6.65476 22.9778 6.03725 22.3 5.57907ZM22.5 19.0001C22.5 19.7957 22.1839 20.5588 21.6213 21.1214C21.0587 21.684 20.2957 22.0001 19.5 22.0001H5.5C4.70435 22.0001 3.94129 21.684 3.37868 21.1214C2.81607 20.5588 2.5 19.7957 2.5 19.0001V9.72407C2.49997 9.23299 2.6205 8.74941 2.851 8.31579C3.0815 7.88216 3.41492 7.51175 3.822 7.23707L10.822 2.51307C11.317 2.17679 11.9016 1.99699 12.5 1.99699C13.0984 1.99699 13.683 2.17679 14.178 2.51307L21.178 7.23707C21.5851 7.51175 21.9185 7.88216 22.149 8.31579C22.3795 8.74941 22.5 9.23299 22.5 9.72407V19.0001ZM12.5 7.00607C11.3122 7.00593 10.1512 7.35831 9.16384 8.01859C8.17652 8.67887 7.40739 9.61733 6.95387 10.7151C6.50035 11.8129 6.38285 13.0205 6.61626 14.1851C6.84966 15.3497 7.42347 16.4189 8.265 17.2571L10.089 19.0411C10.7353 19.667 11.5998 20.017 12.4995 20.017C13.3992 20.017 14.2637 19.667 14.91 19.0411L16.743 17.2491C17.5823 16.41 18.1538 15.3408 18.3854 14.1768C18.617 13.0128 18.4981 11.8063 18.044 10.7099C17.5898 9.61343 16.8206 8.6763 15.8338 8.01703C14.847 7.35775 13.6868 7.00593 12.5 7.00607ZM15.336 15.8271L13.511 17.6121C13.2398 17.8747 12.877 18.0216 12.4995 18.0216C12.122 18.0216 11.7592 17.8747 11.488 17.6121L9.671 15.8351C9.11196 15.276 8.73113 14.5638 8.57663 13.7884C8.42213 13.013 8.50088 12.2092 8.80294 11.4786C9.105 10.7479 9.61681 10.1231 10.2737 9.68319C10.9307 9.24325 11.7032 9.00785 12.4939 9.00673C13.2845 9.00562 14.0577 9.23883 14.7159 9.67692C15.3741 10.115 15.8876 10.7383 16.1918 11.4681C16.4959 12.1979 16.5769 13.0015 16.4246 13.7773C16.2723 14.5531 15.8935 15.2664 15.336 15.8271ZM13.5 13.0001C13.5 13.1979 13.4414 13.3912 13.3315 13.5556C13.2216 13.7201 13.0654 13.8483 12.8827 13.924C12.7 13.9996 12.4989 14.0194 12.3049 13.9809C12.1109 13.9423 11.9327 13.847 11.7929 13.7072C11.653 13.5673 11.5578 13.3891 11.5192 13.1952C11.4806 13.0012 11.5004 12.8001 11.5761 12.6174C11.6518 12.4347 11.78 12.2785 11.9444 12.1686C12.1089 12.0587 12.3022 12.0001 12.5 12.0001C12.7652 12.0001 13.0196 12.1054 13.2071 12.293C13.3946 12.4805 13.5 12.7349 13.5 13.0001Z" fill="#0E3D94"/>
</g>
<defs>
<clipPath id="clip0_1973_38775">
<rect width="24" height="24" fill="white" transform="translate(0.5)"/>
</clipPath>
</defs>
</svg>
