<svg width="37" height="99" viewBox="0 0 37 99" fill="none" xmlns="http://www.w3.org/2000/svg">
<path d="M0 0H37V79.5L18.5 99L0 79.5V0Z" fill="#F7172C"/>
<path d="M18.1631 54.6629C17.7329 54.6629 17.3499 54.5822 17.0142 54.421C16.6785 54.2645 16.3924 54.0439 16.156 53.7594C15.9244 53.4795 15.7494 53.1475 15.6312 52.7634C15.513 52.384 15.4539 51.9737 15.4539 51.5326C15.4539 51.2244 15.4799 50.9374 15.5319 50.6718C15.5839 50.411 15.6478 50.1762 15.7234 49.9675C15.7991 49.7636 15.8771 49.5905 15.9574 49.4482C16.0378 49.3107 16.1064 49.2134 16.1631 49.1565C16.2199 49.1043 16.2908 49.064 16.3759 49.0356C16.4657 49.0119 16.5839 49 16.7305 49C16.8345 49 16.9196 49.0047 16.9858 49.0142C17.0567 49.0237 17.1135 49.0379 17.156 49.0569C17.1986 49.0759 17.227 49.0996 17.2411 49.1281C17.26 49.1565 17.2695 49.1897 17.2695 49.2277C17.2695 49.2941 17.2293 49.3865 17.1489 49.5051C17.0686 49.6284 16.9811 49.7849 16.8865 49.9746C16.792 50.1643 16.7021 50.392 16.617 50.6576C16.5366 50.9279 16.4965 51.2386 16.4965 51.5895C16.4965 51.8551 16.5319 52.097 16.6028 52.3152C16.6738 52.5381 16.7731 52.7278 16.9007 52.8843C17.0331 53.0456 17.1939 53.1689 17.383 53.2543C17.5721 53.3396 17.7872 53.3823 18.0284 53.3823C18.2884 53.3823 18.5106 53.323 18.695 53.2045C18.8794 53.0859 19.0402 52.9294 19.1773 52.7349C19.3191 52.5405 19.4468 52.3176 19.5603 52.0662C19.6785 51.8196 19.7967 51.5658 19.9149 51.305C20.0378 51.0441 20.1726 50.7904 20.3191 50.5438C20.4657 50.2971 20.6383 50.0766 20.8369 49.8822C21.0355 49.6877 21.2671 49.5288 21.5319 49.4055C21.8014 49.2869 22.1229 49.2277 22.4965 49.2277C22.8794 49.2277 23.2199 49.2964 23.5177 49.434C23.8203 49.5762 24.0733 49.7707 24.2766 50.0173C24.4799 50.2687 24.6336 50.5651 24.7376 50.9066C24.8463 51.2528 24.9007 51.6251 24.9007 52.0235C24.9007 52.2274 24.8818 52.4314 24.844 52.6353C24.8109 52.844 24.7636 53.0385 24.7021 53.2187C24.6454 53.4036 24.5792 53.5673 24.5035 53.7096C24.4326 53.8518 24.3735 53.9443 24.3262 53.987C24.2837 54.0344 24.2482 54.0653 24.2199 54.0795C24.1962 54.0937 24.1631 54.1056 24.1206 54.1151C24.0827 54.1245 24.0355 54.1317 23.9787 54.1364C23.922 54.1411 23.8487 54.1435 23.7589 54.1435C23.6738 54.1435 23.5981 54.1388 23.5319 54.1293C23.4657 54.1245 23.409 54.1151 23.3617 54.1008C23.3191 54.0866 23.2861 54.0653 23.2624 54.0368C23.2435 54.0131 23.234 53.9846 23.234 53.9514C23.234 53.8993 23.2671 53.8163 23.3333 53.7024C23.3995 53.5934 23.4728 53.4582 23.5532 53.2969C23.6383 53.1357 23.7139 52.9436 23.7801 52.7207C23.8511 52.5025 23.8865 52.2559 23.8865 51.9808C23.8865 51.7247 23.8511 51.5018 23.7801 51.3121C23.7139 51.1224 23.6241 50.9659 23.5106 50.8426C23.3972 50.7192 23.2624 50.6268 23.1064 50.5651C22.9504 50.5035 22.7849 50.4726 22.6099 50.4726C22.3546 50.4726 22.1348 50.5319 21.9504 50.6505C21.766 50.769 21.6028 50.9256 21.461 51.12C21.3191 51.3192 21.1891 51.5445 21.0709 51.7959C20.9527 52.0472 20.8322 52.3033 20.7092 52.5642C20.591 52.825 20.4586 53.0811 20.3121 53.3325C20.1702 53.5839 20 53.8068 19.8014 54.0012C19.6076 54.2004 19.3759 54.3593 19.1064 54.4779C18.8416 54.6012 18.5272 54.6629 18.1631 54.6629Z" fill="white"/>
<path d="M15.766 57.4587C15.7281 57.4587 15.695 57.4492 15.6667 57.4302C15.643 57.4113 15.6217 57.3805 15.6028 57.3378C15.5839 57.2951 15.5697 57.2358 15.5603 57.1599C15.5508 57.084 15.5461 56.9868 15.5461 56.8682C15.5461 56.7544 15.5508 56.6596 15.5603 56.5837C15.5697 56.5078 15.5839 56.4461 15.6028 56.3987C15.6217 56.356 15.643 56.3252 15.6667 56.3062C15.695 56.292 15.7281 56.2849 15.766 56.2849L22.1489 56.2849C22.182 56.2849 22.2128 56.292 22.2411 56.3062C22.2695 56.3252 22.2931 56.356 22.3121 56.3987C22.331 56.4461 22.3452 56.5078 22.3546 56.5837C22.3641 56.6596 22.3688 56.7544 22.3688 56.8682C22.3688 56.9868 22.3641 57.084 22.3546 57.1599C22.3452 57.2358 22.331 57.2951 22.3121 57.3378C22.2931 57.3805 22.2695 57.4113 22.2411 57.4303C22.2128 57.4492 22.182 57.4587 22.1489 57.4587L15.766 57.4587ZM24.305 57.5939C24.0307 57.5939 23.844 57.5417 23.7447 57.4374C23.6454 57.333 23.5957 57.1409 23.5957 56.8611C23.5957 56.586 23.643 56.3963 23.7376 56.292C23.8369 56.1924 24.0213 56.1426 24.2908 56.1426C24.565 56.1426 24.7518 56.1948 24.8511 56.2991C24.9504 56.4034 25 56.5955 25 56.8753C25 57.1504 24.9504 57.3378 24.8511 57.4374C24.7565 57.5417 24.5745 57.5939 24.305 57.5939Z" fill="white"/>
<path d="M21.8582 64.9783C21.6927 64.9783 21.5721 64.9546 21.4965 64.9072C21.4255 64.8645 21.3901 64.8076 21.3901 64.7365L21.3901 63.8187C21.2199 63.9847 21.0307 64.1009 20.8227 64.1673C20.6194 64.2337 20.4066 64.2669 20.1844 64.2669C19.8156 64.2669 19.4894 64.2076 19.2057 64.0891C18.922 63.9705 18.6809 63.7998 18.4823 63.5769C18.2884 63.3587 18.1395 63.0978 18.0355 62.7943C17.9314 62.4908 17.8794 62.154 17.8794 61.7841C17.8794 61.5232 17.9125 61.2743 17.9787 61.0371C18.0496 60.8047 18.1371 60.6245 18.2411 60.4964C18.156 60.4111 18.0591 60.3399 17.9504 60.283C17.8416 60.2308 17.7163 60.2048 17.5745 60.2048C17.409 60.2048 17.2719 60.2806 17.1631 60.4324C17.0544 60.5889 16.9953 60.7952 16.9858 61.0513L16.9149 62.7232C16.9054 63.0409 16.8605 63.3326 16.7801 63.5982C16.7045 63.8638 16.5934 64.0938 16.4468 64.2883C16.305 64.4827 16.1277 64.6345 15.9149 64.7436C15.7069 64.8527 15.4634 64.9072 15.1844 64.9072C14.8913 64.9072 14.6123 64.8456 14.3475 64.7222C14.0827 64.5989 13.8511 64.4092 13.6525 64.1531C13.4492 63.9017 13.2908 63.5792 13.1773 63.1856C13.0591 62.7919 13 62.3271 13 61.7912C13 61.2743 13.0449 60.8332 13.1348 60.468C13.2199 60.1075 13.3381 59.8111 13.4894 59.5787C13.6407 59.3463 13.8227 59.178 14.0355 59.0736C14.2435 58.9693 14.4704 58.9171 14.7163 58.9171C14.8723 58.9171 15.0236 58.9361 15.1702 58.974C15.3168 59.012 15.4563 59.0689 15.5887 59.1448C15.721 59.2254 15.8463 59.3226 15.9645 59.4364C16.0875 59.555 16.208 59.6902 16.3262 59.8419C16.4444 59.6095 16.5934 59.4364 16.773 59.3226C16.9527 59.2135 17.1466 59.159 17.3546 59.159C17.643 59.159 17.9007 59.2183 18.1277 59.3368C18.3546 59.4554 18.5579 59.6024 18.7376 59.7779C18.9125 59.6309 19.1087 59.5147 19.3262 59.4293C19.5485 59.344 19.8156 59.3013 20.1277 59.3013C20.4917 59.3013 20.818 59.3629 21.1064 59.4862C21.3948 59.6095 21.6383 59.7803 21.8369 59.9985C22.0355 60.2166 22.1868 60.4775 22.2908 60.781C22.3995 61.0893 22.4539 61.4237 22.4539 61.7841C22.4539 61.9786 22.4421 62.1588 22.4184 62.3248C22.3995 62.4955 22.3712 62.6544 22.3333 62.8014L22.3333 64.7365C22.3333 64.8171 22.2931 64.8764 22.2128 64.9143C22.1371 64.957 22.0189 64.9783 21.8582 64.9783ZM20.1773 63.1429C20.6123 63.1429 20.9504 63.022 21.1915 62.7801C21.4374 62.5429 21.5603 62.2038 21.5603 61.7628C21.5603 61.5351 21.5225 61.3359 21.4468 61.1652C21.3712 60.9992 21.2671 60.8593 21.1348 60.7454C21.0024 60.6364 20.8487 60.5534 20.6738 60.4964C20.5035 60.4443 20.3239 60.4182 20.1348 60.4182C19.7139 60.4182 19.383 60.5368 19.1418 60.7739C18.9007 61.0158 18.7801 61.3525 18.7801 61.7841C18.7801 62.0165 18.8156 62.2181 18.8865 62.3888C18.9622 62.5595 19.0638 62.6995 19.1915 62.8085C19.3239 62.9224 19.4752 63.0054 19.6454 63.0575C19.8156 63.1144 19.9929 63.1429 20.1773 63.1429ZM15.1206 63.7334C15.3948 63.7334 15.6052 63.6195 15.7518 63.3919C15.9031 63.169 15.9835 62.8654 15.9929 62.4813L16.0496 60.8237C15.9314 60.6719 15.818 60.5462 15.7092 60.4466C15.6052 60.3518 15.5059 60.2759 15.4113 60.219C15.3121 60.1621 15.2151 60.1218 15.1206 60.0981C15.026 60.0791 14.9291 60.0696 14.8298 60.0696C14.5225 60.0696 14.2908 60.2261 14.1348 60.5391C13.974 60.8521 13.8936 61.2885 13.8936 61.8481C13.8936 62.2038 13.9291 62.5003 14 62.7374C14.0662 62.9793 14.156 63.1737 14.2695 63.3208C14.383 63.4678 14.513 63.5721 14.6596 63.6338C14.8061 63.7002 14.9598 63.7334 15.1206 63.7334Z" fill="white"/>
<path d="M15.766 72C15.7281 72 15.695 71.9905 15.6667 71.9715C15.643 71.9526 15.6217 71.9217 15.6028 71.8791C15.5839 71.8364 15.5697 71.7771 15.5603 71.7012C15.5508 71.6253 15.5461 71.5305 15.5461 71.4166C15.5461 71.2981 15.5508 71.2008 15.5603 71.125C15.5697 71.0491 15.5839 70.9898 15.6028 70.9471C15.6217 70.9044 15.643 70.8736 15.6667 70.8546C15.695 70.8357 15.7281 70.8262 15.766 70.8262L19.5035 70.8262C19.8676 70.8262 20.1608 70.7977 20.383 70.7408C20.6052 70.6839 20.7967 70.6009 20.9574 70.4918C21.1182 70.3827 21.2411 70.2404 21.3262 70.065C21.4113 69.8942 21.4539 69.695 21.4539 69.4674C21.4539 69.1733 21.3499 68.8793 21.1418 68.5852C20.9338 68.2912 20.6288 67.9829 20.2269 67.6604L15.766 67.6604C15.7281 67.6604 15.695 67.6509 15.6667 67.6319C15.643 67.6129 15.6217 67.5821 15.6028 67.5394C15.5839 67.4968 15.5697 67.4375 15.5603 67.3616C15.5508 67.2857 15.5461 67.1885 15.5461 67.0699C15.5461 66.9561 15.5508 66.8612 15.5603 66.7853C15.5697 66.7095 15.5839 66.6478 15.6028 66.6004C15.6217 66.5577 15.643 66.5269 15.6667 66.5079C15.695 66.4937 15.7281 66.4865 15.766 66.4865L22.1489 66.4865C22.1868 66.4865 22.2175 66.4937 22.2411 66.5079C22.2695 66.5221 22.2931 66.5506 22.3121 66.5933C22.3357 66.6359 22.3499 66.6905 22.3546 66.7569C22.3641 66.8233 22.3688 66.911 22.3688 67.0201C22.3688 67.1244 22.3641 67.2098 22.3546 67.2762C22.3499 67.3474 22.3357 67.4019 22.3121 67.4398C22.2931 67.4778 22.2695 67.5039 22.2411 67.5181C22.2175 67.5371 22.1868 67.5466 22.1489 67.5466L21.305 67.5466C21.7069 67.907 22 68.2651 22.1844 68.6208C22.3735 68.9812 22.4681 69.3441 22.4681 69.7092C22.4681 70.1361 22.3948 70.4942 22.2482 70.7835C22.1064 71.0775 21.9149 71.3147 21.6738 71.4949C21.4326 71.6751 21.1489 71.8032 20.8227 71.8791C20.5012 71.9597 20.1135 72 19.6596 72L15.766 72Z" fill="white"/>
<path d="M18.6883 9.3912C18.4215 8.42075 17.7758 7.93553 17.2283 8.00688C16.5684 8.0925 15.8665 8.4921 15.5857 9.12008C14.7995 10.9183 16.442 16.213 16.6948 17.0979C15.0944 22.0073 9.61913 31.7119 6.93772 32.3684C6.88157 31.7262 7.21852 29.8709 10.7563 27.5589C10.9388 27.3591 11.1494 27.1165 11.2477 26.9595C8.25743 28.4438 4.38264 30.8271 6.71313 32.6111C6.83946 32.7109 7.03603 32.7966 7.26068 32.8822C9.04361 33.553 11.5425 31.3552 14.0555 26.3744C16.8212 25.4467 19.0534 24.7474 22.2121 24.2622C25.6657 26.6456 27.9821 27.1307 29.5544 26.5171C29.9896 26.3458 30.6776 25.7892 30.8741 25.0613C29.5966 26.6598 26.6063 25.5466 24.2197 24.0196C26.4237 23.7769 28.6981 23.6343 29.6808 23.9482C30.9302 24.3478 30.8881 24.9757 30.8741 25.0614C30.9724 24.7189 31.1128 24.1623 30.846 23.7199C29.7931 21.9788 24.9637 22.9921 23.2089 23.1776C20.4432 21.4793 18.5338 18.4537 17.7617 16.2702C18.4777 13.4586 19.2498 11.4178 18.6883 9.3912ZM17.495 15.2854C17.0317 13.6156 16.3859 9.90502 17.4248 8.7062C19.4605 9.89075 18.1969 12.7022 17.495 15.2854ZM21.2995 23.5629C18.6322 24.0624 16.8212 24.7616 14.224 25.8034C14.9961 24.2764 16.4561 20.3803 17.1581 17.8114C18.1408 19.8094 19.3341 21.7646 21.2995 23.5629Z" fill="white"/>
</svg>
