<svg width="27" height="24" viewBox="0 0 27 24" fill="none" xmlns="http://www.w3.org/2000/svg">
<path d="M5.5 17C6.32843 17 7 16.3284 7 15.5C7 14.6716 6.32843 14 5.5 14C4.67157 14 4 14.6716 4 15.5C4 16.3284 4.67157 17 5.5 17Z" fill="#0E3D94"/>
<path d="M13.61 19H5C4.20435 19 3.44129 18.6839 2.87868 18.1213C2.31607 17.5587 2 16.7956 2 16V10H22V10.66C22 10.9252 22.1054 11.1796 22.2929 11.3671C22.4804 11.5546 22.7348 11.66 23 11.66C23.2652 11.66 23.5196 11.5546 23.7071 11.3671C23.8946 11.1796 24 10.9252 24 10.66V8C24 7.34339 23.8707 6.69321 23.6194 6.08658C23.3681 5.47995 22.9998 4.92876 22.5355 4.46447C22.0712 4.00017 21.52 3.63188 20.9134 3.3806C20.3068 3.12933 19.6566 3 19 3L5 3C3.67392 3 2.40215 3.52678 1.46447 4.46447C0.526784 5.40215 0 6.67392 0 8L0 16C0 17.3261 0.526784 18.5979 1.46447 19.5355C2.40215 20.4732 3.67392 21 5 21H13.61C13.8752 21 14.1296 20.8946 14.3171 20.7071C14.5046 20.5196 14.61 20.2652 14.61 20C14.61 19.7348 14.5046 19.4804 14.3171 19.2929C14.1296 19.1054 13.8752 19 13.61 19ZM2.88 5.88C3.44207 5.31723 4.20462 5.0007 5 5H19C19.7956 5 20.5587 5.31607 21.1213 5.87868C21.6839 6.44129 22 7.20435 22 8H2C2.0007 7.20462 2.31723 6.44207 2.88 5.88Z" fill="#0E3D94"/>
<path d="M21.2899 13.1001C20.2159 13.1001 19.1661 13.4186 18.2731 14.0152C17.3802 14.6119 16.6842 15.4599 16.2732 16.4521C15.8622 17.4443 15.7547 18.5361 15.9642 19.5894C16.1737 20.6428 16.6909 21.6103 17.4503 22.3697C18.2097 23.1291 19.1772 23.6462 20.2305 23.8558C21.2838 24.0653 22.3756 23.9577 23.3678 23.5468C24.36 23.1358 25.2081 22.4398 25.8047 21.5468C26.4014 20.6539 26.7199 19.604 26.7199 18.5301C26.7199 17.09 26.1478 15.7088 25.1295 14.6905C24.1111 13.6722 22.73 13.1001 21.2899 13.1001ZM17.8699 18.5301C17.8699 17.6221 18.2299 16.7512 18.871 16.1082C19.512 15.4653 20.3819 15.1027 21.2899 15.1001C21.8499 15.1041 22.4 15.2486 22.8899 15.5201L18.2799 20.1301C18.016 19.6377 17.8754 19.0887 17.8699 18.5301ZM21.2899 22.0001C20.733 21.9961 20.1861 21.8516 19.6999 21.5801L24.3099 16.9701C24.5831 17.4885 24.7182 18.0686 24.702 18.6545C24.6858 19.2403 24.5188 19.812 24.2173 20.3146C23.9158 20.8171 23.4899 21.2334 22.9806 21.5234C22.4713 21.8134 21.8959 21.9672 21.3099 21.9701L21.2899 22.0001Z" fill="#0E3D94"/>
</svg>
