<svg width="25" height="24" viewBox="0 0 25 24" fill="none" xmlns="http://www.w3.org/2000/svg">
<path d="M7.41782 18.2089L10.3156 17.4325C10.5718 17.3638 10.7902 17.1962 10.9228 16.9665C11.0554 16.7368 11.0913 16.4639 11.0227 16.2077C10.9541 15.9515 10.7865 15.7331 10.5568 15.6005C10.3271 15.4679 10.0541 15.432 9.79796 15.5006L6.90018 16.2771C6.644 16.3457 6.42558 16.5133 6.29298 16.743C6.16037 16.9727 6.12443 17.2456 6.19307 17.5018C6.26172 17.758 6.42932 17.9764 6.659 18.109C6.88868 18.2416 7.16164 18.2776 7.41782 18.2089ZM16.4207 5.44383L2.89778 9.06729C2.12924 9.27322 1.47398 9.77602 1.07616 10.4651C0.678334 11.1541 0.570528 11.973 0.776457 12.7415L3.10583 21.4349C3.31176 22.2034 3.81455 22.8587 4.50361 23.2565C5.19266 23.6543 6.01152 23.7621 6.78006 23.5562L20.303 19.9327C21.0716 19.7268 21.7268 19.224 22.1246 18.5349C22.5225 17.8459 22.6303 17.027 22.4243 16.2585L20.095 7.56515C19.889 6.79661 19.3862 6.14135 18.6972 5.74353C18.0081 5.3457 17.1893 5.2379 16.4207 5.44383ZM20.4925 16.7761C20.5611 17.0323 20.5252 17.3053 20.3926 17.5349C20.26 17.7646 20.0416 17.9322 19.7854 18.0009L6.26243 21.6243C6.00625 21.693 5.73329 21.657 5.50361 21.5244C5.27392 21.3918 5.10632 21.1734 5.03768 20.9172L3.48477 15.1217L18.9396 10.9806L20.4925 16.7761ZM18.4219 9.04871L2.96713 13.1898L2.70831 12.2239C2.63967 11.9677 2.6756 11.6948 2.80821 11.4651C2.94082 11.2354 3.15924 11.0678 3.41542 10.9991L16.9384 7.37568C17.1946 7.30703 17.4675 7.34297 17.6972 7.47558C17.9269 7.60819 18.0945 7.82661 18.1631 8.08278L18.4219 9.04871Z" fill="#0E3D94"/>
<rect x="5.60059" y="1" width="18" height="13" fill="white"/>
<path d="M21.6006 0H7.60059C6.80494 0 6.04187 0.316071 5.47927 0.87868C4.91666 1.44129 4.60059 2.20435 4.60059 3V12C4.60059 12.7956 4.91666 13.5587 5.47927 14.1213C6.04187 14.6839 6.80494 15 7.60059 15H21.6006C22.3962 15 23.1593 14.6839 23.7219 14.1213C24.2845 13.5587 24.6006 12.7956 24.6006 12V3C24.6006 2.20435 24.2845 1.44129 23.7219 0.87868C23.1593 0.316071 22.3962 0 21.6006 0ZM22.6006 12C22.6006 12.2652 22.4952 12.5196 22.3077 12.7071C22.1202 12.8946 21.8658 13 21.6006 13H7.60059C7.33537 13 7.08102 12.8946 6.89348 12.7071C6.70594 12.5196 6.60059 12.2652 6.60059 12V6H22.6006V12ZM22.6006 4H6.60059V3C6.60059 2.73478 6.70594 2.48043 6.89348 2.29289C7.08102 2.10536 7.33537 2 7.60059 2H21.6006C21.8658 2 22.1202 2.10536 22.3077 2.29289C22.4952 2.48043 22.6006 2.73478 22.6006 3V4Z" fill="#0E3D94"/>
</svg>
