<svg width="14" height="14" viewBox="0 0 14 14" fill="none" xmlns="http://www.w3.org/2000/svg">
<g clip-path="url(#clip0_769_758)">
<path d="M13.3736 2.93761L13.3729 2.93832L5.31253 10.9981C5.31244 10.9982 5.31235 10.9983 5.31226 10.9984C5.21166 11.0993 5.09215 11.1794 4.96055 11.234C4.82884 11.2888 4.68761 11.3169 4.54499 11.3169C4.40237 11.3169 4.26114 11.2888 4.12943 11.234C3.99795 11.1794 3.87852 11.0994 3.77798 10.9986L13.3736 2.93761ZM13.3736 2.93761C13.3814 2.92984 13.3906 2.92367 13.4007 2.91946C13.4108 2.91525 13.4217 2.91309 13.4327 2.91309C13.4436 2.91309 13.4545 2.91525 13.4646 2.91946C13.4748 2.92367 13.484 2.92984 13.4917 2.93761L13.4928 2.93875C13.5006 2.9465 13.5068 2.95569 13.511 2.96582C13.5152 2.97594 13.5173 2.98679 13.5173 2.99775C13.5173 3.00872 13.5152 3.01957 13.511 3.02969C13.5068 3.03982 13.5006 3.04901 13.4928 3.05675L13.4924 3.05716L5.43222 11.1156C5.43215 11.1157 5.43208 11.1158 5.432 11.1158C5.43198 11.1159 5.43196 11.1159 5.43193 11.1159C5.19673 11.3505 4.87808 11.4823 4.54587 11.4823C4.21351 11.4823 3.89473 11.3504 3.65951 11.1156L0.541303 7.998L0.540637 7.99734C0.532866 7.9896 0.526698 7.9804 0.522488 7.97026C0.51828 7.96013 0.516113 7.94927 0.516113 7.9383C0.516113 7.92733 0.518279 7.91646 0.522488 7.90633C0.526698 7.8962 0.532866 7.88699 0.540637 7.87925L0.187814 7.52504L0.542032 7.87786C0.549774 7.87009 0.558975 7.86392 0.569107 7.85971C0.579239 7.8555 0.590102 7.85334 0.601074 7.85334C0.612045 7.85334 0.622909 7.8555 0.63304 7.85971C0.643172 7.86392 0.652373 7.87009 0.660115 7.87786L0.660647 7.87839L3.77745 10.9981L13.3736 2.93761Z" fill="white" stroke="white"/>
</g>
<defs>
<clipPath id="clip0_769_758">
<rect width="14" height="14" fill="white"/>
</clipPath>
</defs>
</svg>
