<svg width="18" height="9" viewBox="0 0 18 9" fill="none" xmlns="http://www.w3.org/2000/svg">
<path d="M0.51606 6.79727L0.516778 6.79654L5.96321 1.3501C5.96329 1.35003 5.96336 1.34995 5.96344 1.34988C6.29625 1.01628 6.6916 0.751601 7.12684 0.570995C7.56218 0.390349 8.02888 0.297363 8.50021 0.297363C8.97154 0.297363 9.43825 0.390349 9.87358 0.570995C10.3089 0.751611 10.7042 1.01631 11.037 1.34993C11.0371 1.34999 11.0372 1.35005 11.0372 1.3501L16.4836 6.79655C16.569 6.88192 16.6367 6.98327 16.6829 7.09482C16.7291 7.20636 16.7529 7.32592 16.7529 7.44666C16.7529 7.56739 16.7291 7.68695 16.6829 7.79849C16.6367 7.91004 16.569 8.01139 16.4836 8.09676C16.3983 8.18214 16.2969 8.24986 16.1854 8.29607C16.0738 8.34227 15.9543 8.36605 15.8335 8.36605C15.7128 8.36605 15.5932 8.34227 15.4817 8.29606C15.3702 8.24986 15.2688 8.18214 15.1834 8.09676L9.73688 2.65021L0.51606 6.79727ZM0.51606 6.79727C0.431102 6.88292 0.363888 6.9845 0.318269 7.09618C0.272834 7.20742 0.249712 7.3265 0.250217 7.44665M0.51606 6.79727L0.250217 7.44665M0.250217 7.44665C0.249712 7.5668 0.272834 7.68589 0.318269 7.79712C0.363886 7.90881 0.431101 8.01039 0.516054 8.09604C0.601268 8.18195 0.702653 8.25015 0.814358 8.29669C0.926065 8.34323 1.04588 8.36719 1.16689 8.36719C1.2879 8.36719 1.40771 8.34323 1.51942 8.29669C1.63096 8.25022 1.73221 8.18215 1.81734 8.09642C1.81747 8.09629 1.81759 8.09616 1.81772 8.09604L7.26355 2.65021C7.59167 2.32249 8.03646 2.13841 8.50021 2.13841C8.96391 2.13841 9.40865 2.32245 9.73677 2.6501L0.250217 7.44665Z" fill="#0E3D94" stroke="#0E3D94" stroke-width="0.5"/>
</svg>
