<svg width="18" height="18" viewBox="0 0 18 18" fill="none" xmlns="http://www.w3.org/2000/svg">
<path d="M8.33791 2.71891L8.33325 13.0109C8.33325 13.1877 8.40349 13.3573 8.52851 13.4823C8.65353 13.6073 8.8231 13.6776 8.99991 13.6776C9.17672 13.6776 9.34629 13.6073 9.47132 13.4823C9.59634 13.3573 9.66658 13.1877 9.66658 13.0109L9.67125 2.73024L11.6126 4.67224C11.7376 4.79722 11.9071 4.86743 12.0839 4.86743C12.2607 4.86743 12.4302 4.79722 12.5552 4.67224C12.6802 4.54722 12.7504 4.37768 12.7504 4.20091C12.7504 4.02413 12.6802 3.85459 12.5552 3.72957L10.4146 1.58624C10.2288 1.40039 10.0083 1.25295 9.76558 1.15236C9.52284 1.05177 9.26267 1 8.99991 1C8.73716 1 8.47699 1.05177 8.23425 1.15236C7.99152 1.25295 7.77098 1.40039 7.58525 1.58624L5.44458 3.72757C5.3196 3.85259 5.24939 4.02213 5.24939 4.19891C5.24939 4.37568 5.3196 4.54522 5.44458 4.67024C5.5696 4.79522 5.73914 4.86543 5.91591 4.86543C6.09269 4.86543 6.26223 4.79522 6.38725 4.67024L8.33791 2.71891Z" fill="#0E3D94" stroke="#0E3D94" stroke-width="0.5"/>
<path d="M15.6667 12.3327V14.9993C15.6667 15.1762 15.5964 15.3457 15.4714 15.4707C15.3464 15.5958 15.1768 15.666 15 15.666H3C2.82319 15.666 2.65362 15.5958 2.5286 15.4707C2.40357 15.3457 2.33333 15.1762 2.33333 14.9993V12.3327C2.33333 12.1559 2.2631 11.9863 2.13807 11.8613C2.01305 11.7363 1.84348 11.666 1.66667 11.666C1.48986 11.666 1.32029 11.7363 1.19526 11.8613C1.07024 11.9863 1 12.1559 1 12.3327L1 14.9993C1 15.5298 1.21071 16.0385 1.58579 16.4136C1.96086 16.7886 2.46957 16.9993 3 16.9993H15C15.5304 16.9993 16.0391 16.7886 16.4142 16.4136C16.7893 16.0385 17 15.5298 17 14.9993V12.3327C17 12.1559 16.9298 11.9863 16.8047 11.8613C16.6797 11.7363 16.5101 11.666 16.3333 11.666C16.1565 11.666 15.987 11.7363 15.8619 11.8613C15.7369 11.9863 15.6667 12.1559 15.6667 12.3327Z" fill="#0E3D94" stroke="#0E3D94" stroke-width="0.5"/>
</svg>
