<svg width="60" height="68" viewBox="0 0 60 68" fill="none" xmlns="http://www.w3.org/2000/svg">
<path d="M43.9552 51.7523C40.9373 51.7523 39.0941 49.9723 38.4659 46.4657C40.2545 44.7255 41.7609 42.6183 42.8745 40.2669C46.2744 33.1028 45.1655 32.8667 46.0871 32.3315L46.0841 32.3255C48.7045 31.0427 47.8263 27.8422 47.9871 27.1194C47.9871 25.483 47.7014 24.8961 46.9159 24.418C48.1089 20.8099 47.8614 16.5141 46.1799 12.4078C41.3985 0.729278 26.2888 -5.17266 20.8546 5.84572C18.4487 5.65404 14.8802 6.61246 13.6569 11.4C12.4245 16.2227 13.0214 22.1128 13.3309 24.3983C12.5992 25.0209 12.0127 26.0306 12.0127 27.1336C12.177 27.871 11.3018 31.0473 13.9153 32.3264L13.9122 32.3328C14.839 32.869 15.664 40.7518 21.5343 46.4671C20.9061 49.9732 19.0629 51.7528 16.0454 51.7528C4.81285 51.7528 -0.56068 58.4736 0.0462053 66.7078C0.125967 68.5555 2.78109 68.3684 2.63847 66.4868C2.57778 65.6826 2.41392 61.5122 5.15488 58.3798C6.7848 56.517 9.15598 55.3221 12.2221 54.801C13.8442 56.7178 19.4002 62.1842 30.0003 62.1842C40.6004 62.1842 46.1569 56.7178 47.7786 54.801C50.8446 55.3221 53.2154 56.517 54.8458 58.3798C57.5867 61.5122 57.4224 65.6826 57.3622 66.4868C57.22 68.3684 59.8747 68.5555 59.9544 66.7078C60.5357 58.8231 55.5758 51.7523 43.9552 51.7523ZM16.1681 12.1146C16.9254 9.151 19.1653 8.15919 21.3206 8.68941C21.979 8.86051 22.6518 8.46845 22.8655 7.78909C25.564 -0.787722 39.1482 2.15158 43.7926 13.4966C44.9986 16.4423 45.3476 19.469 44.8287 22.1251C43.9357 20.8094 42.7349 19.0541 41.4947 17.2891C38.6289 13.2102 33.4886 11.7458 29.2729 13.8068C28.4688 14.1997 27.5919 14.1878 26.8666 13.7743C24.1855 12.2458 21.6569 12.1827 19.5541 13.5908C17.7933 14.7725 16.0944 17.7914 16.1824 21.0331C16.1976 21.599 16.0519 22.1086 15.7403 22.5689C15.4797 19.9704 15.2664 15.6422 16.1681 12.1146ZM19.4509 39.0376C15.9518 31.6645 17.453 31.2514 15.1628 29.926C14.8958 29.7719 14.6132 29.5349 14.6132 29.2197C14.6132 26.2593 14.4779 26.9446 15.462 26.2657C15.5018 26.2182 18.8818 24.6559 18.7816 20.9553C18.7027 18.0384 20.7592 13.4133 25.6299 16.1898C27.0838 17.0187 28.81 17.0581 30.3657 16.2977C33.4687 14.7812 37.2704 15.8856 39.4057 18.9241C45.7685 27.9799 43.6362 25.6628 45.384 26.6633C45.3883 26.871 45.3866 27.3664 45.3866 29.2197C45.3866 30.0276 43.5269 30.0711 43.0583 32.4605C42.7922 33.8411 41.8779 36.2383 40.5488 39.0386C39.2861 41.7038 37.4563 44.0113 35.2568 45.7113C33.8943 46.7649 33.5983 46.7617 31.2925 46.7361C26.4834 46.683 26.486 47.0591 24.7434 45.7109C22.5439 44.0114 20.7141 41.7038 19.4509 39.0376ZM29.9999 59.4389C22.6007 59.4389 18 56.5458 15.6731 54.5032C20.0236 54.4483 22.6119 52.3352 23.768 48.3359C25.4556 49.5034 26.4873 49.5057 28.7337 49.4805C33.082 49.432 34.1306 49.7962 36.2313 48.3364C37.3709 52.2775 40.1028 54.4968 43.9548 54.4968C44.0731 54.4968 44.1876 54.5009 44.3042 54.5027C41.9594 56.5435 37.3397 59.4389 29.9999 59.4389Z" fill="#8B8B8B"/>
</svg>
