<svg width="24" height="24" viewBox="0 0 24 24" fill="none" xmlns="http://www.w3.org/2000/svg">
<path d="M17.0402 14.2432C16.7672 14.1062 15.4209 13.443 15.17 13.3524C14.9191 13.2606 14.7367 13.2153 14.5544 13.4894C14.372 13.7624 13.847 14.3803 13.6867 14.5627C13.5275 14.7451 13.3673 14.7672 13.0942 14.6301C12.2874 14.3089 11.5427 13.8496 10.8936 13.2728C10.2949 12.7194 9.78157 12.0802 9.37047 11.3761C9.21131 11.102 9.3539 10.9539 9.49095 10.8179C9.61364 10.6952 9.76507 10.4985 9.90102 10.3382C10.0136 10.1998 10.1059 10.0461 10.1751 9.88172C10.2116 9.80616 10.2285 9.7227 10.2245 9.63892C10.2204 9.55514 10.1955 9.4737 10.1519 9.40201C10.0834 9.26496 9.53627 7.91759 9.30858 7.36936C9.08641 6.8366 8.86093 6.90844 8.69182 6.8996C8.53265 6.89187 8.35028 6.88965 8.1679 6.88965C8.02917 6.89352 7.89274 6.92606 7.76719 6.98522C7.64165 7.04438 7.5297 7.12888 7.4384 7.2334C7.12894 7.52646 6.88391 7.88076 6.71892 8.27373C6.55393 8.6667 6.4726 9.08972 6.4801 9.51586C6.56885 10.5485 6.95724 11.5327 7.59757 12.3477C8.77131 14.1074 10.3825 15.5315 12.273 16.4804C12.783 16.6995 13.3039 16.892 13.8337 17.0574C14.3923 17.2269 14.9827 17.2636 15.558 17.1646C15.939 17.0874 16.2998 16.932 16.6177 16.7083C16.9356 16.4846 17.2037 16.1973 17.4049 15.8647C17.5845 15.4557 17.6398 15.0029 17.5641 14.5627C17.4967 14.4477 17.3143 14.3803 17.0402 14.2432ZM19.7946 4.20818C17.9155 2.32956 15.4178 1.19779 12.7664 1.02359C10.115 0.849384 7.49068 1.64462 5.38196 3.26125C3.27324 4.87787 1.82385 7.20571 1.30362 9.81138C0.783393 12.4171 1.22778 15.123 2.55406 17.4254L1 23.1012L6.80727 21.5791C8.41345 22.4537 10.2131 22.912 12.042 22.9121H12.0464C14.2129 22.911 16.3305 22.2678 18.1316 21.0638C19.9327 19.8597 21.3365 18.1488 22.1656 16.1472C22.9948 14.1457 23.2121 11.9433 22.7901 9.81825C22.3681 7.69325 21.3257 5.74101 19.7946 4.20817V4.20818ZM16.8843 19.6703C15.4343 20.5792 13.7577 21.0614 12.0464 21.0619H12.042C10.4116 21.0618 8.81117 20.6231 7.40856 19.7919L7.07586 19.5951L3.62952 20.4993L4.54913 17.1391L4.3336 16.7943C3.37701 15.2688 2.89425 13.4939 2.94637 11.694C2.99849 9.89417 3.58315 8.15018 4.62642 6.6826C5.66968 5.21502 7.1247 4.08974 8.80749 3.44908C10.4903 2.80841 12.3252 2.68112 14.0804 3.08331C15.8355 3.4855 17.4319 4.3991 18.6678 5.70858C19.9037 7.01806 20.7236 8.66462 21.0237 10.44C21.3239 12.2155 21.0908 14.04 20.354 15.683C19.6172 17.326 18.4097 18.7135 16.8843 19.6703Z" fill="black"/>
</svg>
