<svg width="19" height="24" viewBox="0 0 19 24" fill="none" xmlns="http://www.w3.org/2000/svg">
<g clip-path="url(#clip0_1633_18310)">
    <path clip-rule="evenodd"
        d="M14.5464 23.9487C14.1602 23.846 13.774 23.384 13.6968 22.9476C13.6453 22.6653 13.6968 22.4599 14.1087 21.6642C15.7822 18.4813 16.4773 15.5295 16.4773 11.9615C16.4773 8.52198 15.8336 5.82679 14.2632 2.61823C13.9285 1.92518 13.6453 1.30914 13.6453 1.20647C13.6453 0.872778 13.9285 0.359409 14.2374 0.17973C14.6751 -0.0769542 15.3702 -0.0256173 15.7307 0.282404C15.8594 0.410746 16.1941 0.975452 16.4773 1.51449C17.6101 3.72198 18.3824 6.16048 18.7686 8.70166C19.0003 10.2674 19.0518 13.245 18.8716 14.6567C18.5112 17.3006 17.816 19.6621 16.709 21.9722C16.0396 23.3583 15.6019 23.9487 15.2415 23.9487C15.1643 23.9487 15.0613 23.9744 14.984 24.0001C14.9068 24.0001 14.7266 24.0001 14.5464 23.9487ZM9.93798 21.5359C9.34584 21.3562 8.90817 20.6375 9.08839 20.0984C9.13988 19.9701 9.39733 19.3541 9.70627 18.7637C10.9678 16.1968 11.5084 13.4247 11.251 10.7038C11.045 8.47064 10.6331 7.05888 9.62904 5.0054C8.95966 3.6193 8.90817 3.41396 9.32009 2.84925C9.70627 2.31021 10.6331 2.23321 11.1223 2.69524C11.457 3.00326 12.5125 5.21075 12.9244 6.4685C14.2889 10.6011 14.0572 15.0418 12.3323 19.0974C11.457 21.1509 10.8391 21.7926 9.93798 21.5359ZM5.20085 19.0974C4.84042 18.9434 4.53148 18.5583 4.4285 18.1476C4.37701 17.9166 4.45424 17.6599 4.89191 16.7616C6.48812 13.5273 6.51386 10.4471 4.9434 7.28989C4.24828 5.9038 4.24828 5.62144 4.81467 5.0824C5.09787 4.82572 5.2266 4.77438 5.61278 4.77438C6.28215 4.77438 6.64259 5.10807 7.23473 6.34016C8.16156 8.23962 8.54774 9.88241 8.54774 11.9872C8.54774 14.1434 8.1873 15.6321 7.20898 17.6343C6.64259 18.7894 6.35939 19.0717 5.79299 19.1487C5.63852 19.2257 5.35533 19.1744 5.20085 19.0974ZM0.77267 16.8386C0.489472 16.7102 0.154783 16.3252 0.0518024 15.9915C-0.0511786 15.6065 0.0260571 15.2984 0.463726 14.5797C1.03012 13.6557 1.15885 13.168 1.15885 11.9615C1.15885 10.7551 1.03012 10.2674 0.463726 9.34337C0.28351 9.03535 0.0775477 8.65032 0.0518024 8.52198C-0.15416 7.9316 0.360745 7.18722 1.03012 7.05888C1.59652 6.9562 2.00844 7.21289 2.52335 8.03428C4.06806 10.4214 4.06806 13.6043 2.52335 15.9658C2.00844 16.7872 1.39056 17.0952 0.77267 16.8386Z"
        fill="white" fill-rule="evenodd" />
</g>
<defs>
    <clipPath id="clip0_1633_18310">
        <rect width="19" height="24" fill="white" />
    </clipPath>
</defs>
</svg>
