<svg width="20" height="20" viewBox="0 0 20 20" fill="none" xmlns="http://www.w3.org/2000/svg">
<path d="M19.1739 7.87608C19.2151 6.68329 18.9543 5.49942 18.4156 4.43441C18.0501 3.99741 17.5429 3.7025 16.9823 3.60108C14.6635 3.39068 12.3352 3.30445 10.0073 3.34274C7.6878 3.30271 5.36786 3.38616 3.05727 3.59274C2.60045 3.67584 2.1777 3.89011 1.8406 4.20941C1.0906 4.90108 1.00727 6.08441 0.923932 7.08441C0.803025 8.88238 0.803025 10.6864 0.923932 12.4844C0.94804 13.0472 1.03184 13.6059 1.17393 14.1511C1.27441 14.572 1.4777 14.9614 1.7656 15.2844C2.10499 15.6206 2.53759 15.8471 3.00727 15.9344C4.80386 16.1562 6.61411 16.2481 8.42393 16.2094C11.3406 16.2511 13.8989 16.2094 16.9239 15.9761C17.4051 15.8941 17.8499 15.6674 18.1989 15.3261C18.4322 15.0927 18.6065 14.807 18.7073 14.4927C19.0053 13.5783 19.1517 12.6212 19.1406 11.6594C19.1739 11.1927 19.1739 8.37608 19.1739 7.87608ZM8.12393 12.1594V7.00108L13.0573 9.59274C11.6739 10.3594 9.84893 11.2261 8.12393 12.1594Z" fill="black"/>
</svg>
